<svg width="3286" height="2401" viewBox="0 0 3286 2401" fill="none" xmlns="http://www.w3.org/2000/svg">
<g opacity="0.5">
<path opacity="0.5" d="M2603.15 308.638C2227.15 212.448 2063.66 443.558 1672.15 420.918C1514.85 413.918 1365.32 373.258 1207.55 350.158C1087.43 332.538 970.659 323.908 851.369 346.988C687.639 378.988 541.779 465.988 437.859 595.488C382.429 675.488 338.049 758.318 304.539 842.708C112.299 1326.71 277.859 1860.6 768.829 2181.08C1336.21 2552.53 2805.25 2574.8 3045.83 1250.96C3056.83 1191.73 3064.46 1131.92 3068.68 1071.82C3091.68 732.968 2988.09 416.808 2603.15 308.638Z" fill="#3E92CC"/>
</g>
<path d="M304.549 842.709C112.309 1326.71 277.869 1860.6 768.839 2181.08C1336.22 2552.53 2805.26 2574.8 3045.84 1250.96C3056.84 1191.73 3064.47 1131.92 3068.69 1071.82C1851.54 2295.22 705.649 1284.2 304.549 842.709Z" fill="#3E92CC"/>
<path d="M923.569 458.259L883.299 461.259C845.869 477.669 718.299 510.959 701.989 542.669C679.619 572.609 682.589 584.039 675.429 623.729C667.169 686.489 661.349 708.589 631.939 727.539L560.299 776.149L558.299 777.529L551.489 782.139C435.489 865.689 452.949 839.479 343.829 819.279C259.829 802.659 232.959 871.439 158.239 948.939C148.089 957.789 142.089 973.309 130.889 996.049C173.429 1192.67 242.179 1570.55 422.029 1610.67C474.649 1622.9 518.829 1606.14 533.269 1555.77C615.199 1246.67 512.909 1331.18 731.069 1184.77C1009.2 997.649 1001.9 990.279 1053.58 993.139C1148.58 1008.26 1245.82 1045.73 1323.91 1037.39C1366.39 1027.83 1381.13 988.469 1386.48 959.389C1400.27 883.899 1354.38 806.149 1279.57 729.189C1186.55 633.739 1047.83 540.149 923.569 458.259Z" fill="#9F54F0"/>
<path d="M1326.18 917.419C1285.18 1024.42 1092.39 915.119 985.178 921.859C946.178 919.439 875.079 981.049 741.089 1069.29C646.779 1138.03 553.089 1183.29 536.379 1223.42C498.659 1300.99 524.439 1545.28 406.769 1539.9C354.839 1540.66 310.638 1515.18 273.938 1473.34C315.448 1550.14 369.939 1607.79 441.849 1613.76C581.369 1634.11 540.959 1387.29 591.269 1290.07C599.619 1267.07 669.409 1228.47 769.269 1158.96C871.039 1093.75 990.869 998.959 1022.74 995.419C1098.07 975.289 1331.58 1103.08 1375.47 994.789C1408.47 921.199 1378.09 843.909 1314.21 767.409C1339.99 818.539 1347.19 868.129 1326.18 917.419Z" fill="#003049"/>
<path d="M268.179 964.599C297.319 1005.29 361.259 967.059 333.389 920.359C304.249 879.669 240.309 917.899 268.179 964.599Z" fill="white"/>
<path d="M335.019 919.189C319.559 897.609 294.589 897.379 277.899 908.299C261.559 918.999 251.689 940.879 266.459 965.629L266.549 965.769C275.639 978.459 288.019 983.769 300.069 983.769C308.457 983.727 316.653 981.258 323.669 976.659C340.009 965.959 349.879 944.089 335.109 919.329L335.019 919.189ZM321.469 973.319C306.409 983.179 283.849 982.979 269.849 963.509C256.499 941.059 265.369 921.289 280.099 911.649C295.159 901.779 317.719 901.989 331.719 921.459C345.089 943.899 336.199 963.669 321.469 973.319V973.319Z" fill="black"/>
<path d="M391.088 931.418C350.408 960.558 388.638 1024.5 435.338 996.628C476.088 967.488 437.828 903.538 391.088 931.418Z" fill="white"/>
<path d="M257.089 1022.34C216.399 1051.47 254.629 1115.42 301.339 1087.55C342.089 1058.41 303.819 994.459 257.089 1022.34Z" fill="white"/>
<path d="M359.088 1098.61C388.228 1139.3 452.168 1101.06 424.298 1054.36C395.168 1013.67 331.228 1051.91 359.088 1098.61Z" fill="white"/>
<path d="M425.938 1053.2C410.478 1031.61 385.508 1031.38 368.818 1042.3C352.478 1053 342.609 1074.88 357.379 1099.63L357.468 1099.77C366.558 1112.46 378.938 1117.77 390.988 1117.77C399.376 1117.73 407.572 1115.26 414.588 1110.67C430.928 1099.97 440.798 1078.09 426.028 1053.34L425.938 1053.2ZM412.389 1107.32C397.329 1117.19 374.769 1116.98 360.769 1097.51C347.419 1075.06 356.289 1055.29 371.009 1045.65C386.079 1035.78 408.639 1035.99 422.639 1055.46C435.989 1077.91 427.089 1097.68 412.389 1107.32Z" fill="black"/>
<path d="M363.089 1034.28C310.089 1072.52 360.359 1154.65 420.359 1118.69C473.329 1080.45 423.089 998.319 363.089 1034.28ZM407.329 1099.49C378.079 1118.34 345.519 1077.23 376.109 1053.49C405.349 1034.62 437.909 1075.74 407.309 1099.49H407.329Z" fill="#6711C2"/>
<path d="M272.148 900.279C219.148 938.519 269.418 1020.64 329.418 984.689C382.408 946.449 332.148 864.319 272.148 900.279ZM316.388 965.489C287.138 984.339 254.578 943.229 285.168 919.489C314.428 900.619 346.988 941.729 316.388 965.489Z" fill="#6711C2"/>
<path d="M384.609 921.819C331.609 960.059 381.879 1042.18 441.879 1006.23C494.869 967.989 444.609 885.859 384.609 921.819ZM428.859 987.029C399.609 1005.88 367.049 964.769 397.639 941.029C426.889 922.159 459.449 963.279 428.859 987.049V987.029Z" fill="#6711C2"/>
<path d="M250.608 1012.74C197.608 1050.98 247.878 1133.11 307.878 1097.15C360.868 1058.91 310.608 976.779 250.608 1012.74ZM294.848 1077.95C265.598 1096.8 233.038 1055.69 263.628 1031.95C292.888 1013.05 325.438 1054.2 294.848 1077.95Z" fill="#6711C2"/>
<path d="M545.419 908.909C564.229 935.339 606.879 911.039 588.469 879.699C569.659 853.259 527.019 877.559 545.419 908.909Z" fill="white"/>
<path d="M646.339 840.439C665.149 866.869 707.789 842.569 689.339 811.229C670.579 784.789 627.929 809.049 646.339 840.439Z" fill="white"/>
<path d="M939.889 567.499L902.269 592.969C870.889 548.819 871.729 529.299 826.629 563.789C772.629 593.219 808.569 610.659 827.019 643.909C782.869 675.289 763.349 674.449 797.849 719.549C827.269 773.549 844.709 737.609 877.959 719.149C909.349 763.309 908.499 782.829 953.599 748.329C1007.6 718.899 971.659 701.459 953.209 668.219C985.049 645.069 1016.47 636.689 990.519 604.589C970.619 577.109 964.929 554.869 939.889 567.499Z" fill="white"/>
<path d="M2362.67 1262.74C2362.67 1262.74 2349.67 1301.68 2327.38 1353.95C2443.87 1366.16 2529.64 1322.95 2568.81 1262.74C2517.86 1220.16 2390.09 1252.23 2362.67 1262.74Z" fill="#003049"/>
<path d="M1146.44 1264.71C1146.44 1264.71 1130.44 1357.2 1476.12 1323.23C1410.93 1243.6 1149.18 1264.77 1146.44 1264.71Z" fill="#003049"/>
<path d="M1448.78 1754.54C1448.78 1754.54 1618.6 1912.54 2264.51 1780.06C2264.51 1780.06 2366.6 1774.17 2400.95 1716.25L2122.17 1552.32L1448.78 1754.54Z" fill="#003049"/>
<path d="M2512.71 1071.64C2466.4 933.719 2391.71 751.539 2290.22 629.489C2290.22 629.489 2100.79 617.369 2022.72 630.929C1976.03 772.349 1777.72 759.869 1723.72 649.929H1723.54C1714.98 650.719 1545.72 640.069 1497.96 675.979C1493.51 679.319 1486.79 686.149 1478.26 695.869C1434.17 746.139 1341.79 873.789 1265.6 997.549C1196.89 1109.17 1141.35 1217.62 1146.33 1263.26C1209.48 1260.75 1326.23 1254.94 1411.78 1284.13C1425.43 1288.68 1438.62 1294.52 1451.17 1301.58C1557.74 1264.64 1718.44 1183.02 1738.36 1164.58C1764.86 1140.04 1800.2 1052.68 1800.2 1052.68C1840.45 1064.46 1811 1129.24 1811 1129.24L1867 1107.65C1905.73 1113.95 1953.53 1200.39 1959.66 1210.08C1959.8 1210.14 1959.92 1210.23 1960.02 1210.34C1960.12 1210.45 1960.2 1210.58 1960.25 1210.72C1960.42 1211.21 1960.25 1210.95 1959.66 1210.08C1928.59 1209.43 1879.86 1248.84 1843.09 1262.08C1690.69 1325.18 1822.18 1250.49 1515.58 1443.31C1515.58 1443.31 1422.37 1630.52 1439.06 1726.49C1440.89 1737.05 1444.06 1746.49 1448.83 1754.49C1668.89 1719.55 2067.42 1665.54 2401 1716.2C2401.1 1716.35 2400.12 1597.38 2333 1476.7C2322.79 1458.31 2311.39 1440.6 2298.88 1423.7C2219.46 1367.3 2034.8 1158.7 1960.88 1068.64C1923.88 1025.38 1950.82 1065.52 1765.99 980.559C1760.05 977.089 1762.07 977.559 1758.87 964.169C1755.35 946.259 1749.87 914.069 1747.24 886.849C1745.65 870.539 1745.06 856.009 1746.49 847.419C1744.59 845.879 1754.87 835.979 1766.68 826.419L1768.62 824.859C1778.25 817.239 1788.5 810.159 1793.81 808.179C1803.91 814.179 1907.72 889.619 1934.81 886.389C1934.81 886.389 1927.11 805.879 1970.3 810.869C1970.3 810.869 1968.17 892.349 1975.98 914.929C1978.15 921.209 2009.05 950.929 2052.55 990.619C2163.09 1091.42 2354.98 1256.37 2363.24 1263.47C2380.04 1257.94 2427.79 1244.2 2475.92 1242.36C2510.37 1241.05 2545.03 1245.84 2568.66 1264.12C2568.42 1262.91 2553.09 1196.75 2523.23 1103.73C2519.93 1093.37 2516.42 1082.67 2512.71 1071.64Z" fill="white"/>
<g opacity="0.5">
<path opacity="0.5" d="M2512.71 1071.64C2459.27 1045.18 2269.71 1040.64 2052.59 990.639C2163.13 1091.44 2355.02 1256.39 2363.28 1263.49C2380.08 1257.96 2427.83 1244.22 2475.96 1242.38C2495.56 1186.07 2512.62 1134.26 2523.27 1103.75C2524.52 1100.18 2525.68 1096.9 2526.74 1093.94C2530.02 1084.85 2524.92 1077.67 2512.71 1071.64Z" fill="#3E92CC"/>
</g>
<g opacity="0.5">
<path opacity="0.5" d="M1960.92 1068.67C1923.92 1025.41 1950.86 1065.55 1766.03 980.589C1760.09 977.119 1762.11 977.589 1758.91 964.199C1755.39 946.289 1749.91 914.099 1747.28 886.879C1650.15 840.099 1557.35 778.369 1478.28 695.879C1434.19 746.149 1341.81 873.799 1265.62 997.559C1334.82 1060.99 1470.8 1196.88 1427.76 1248.98C1421.76 1256.18 1416.51 1268.27 1411.76 1284.14C1425.41 1288.69 1438.6 1294.53 1451.15 1301.59C1557.72 1264.65 1718.42 1183.03 1738.34 1164.59C1764.84 1140.05 1800.18 1052.69 1800.18 1052.69C1840.43 1064.47 1810.98 1129.25 1810.98 1129.25L1866.98 1107.66C1905.71 1113.96 1953.51 1200.4 1959.64 1210.09C1928.57 1209.44 1879.84 1248.85 1843.07 1262.09C1690.67 1325.19 1822.16 1250.5 1515.56 1443.32C1515.56 1443.32 1422.35 1630.53 1439.04 1726.5C1506.19 1618.8 1604.92 1472.42 1633.77 1492.94C1678.77 1524.94 1999.77 1739.94 2095.77 1603.94C2182.6 1480.94 2289.06 1434.82 2333.02 1476.71C2322.81 1458.32 2311.41 1440.61 2298.9 1423.71C2219.45 1367.33 2034.79 1158.76 1960.92 1068.67Z" fill="#3E92CC"/>
</g>
<path d="M2010.76 282.37V281.96C2008.26 246.23 2004.25 208.7 2000.98 180.89C1971.89 177.84 1928.9 144.57 1911.77 114.98C1890.17 77.6796 1860.46 78.4796 1843.77 104.98C1843.77 104.98 1768.63 180.98 1707.77 178.98C1646.91 176.98 1670.66 215.35 1670.66 215.35C1671.59 216.73 1663.94 280.51 1660.95 299.6C1661.25 301.34 1661.54 303.08 1661.83 304.82C1677.46 397.7 1689.75 488.59 1800.23 531.43C1802 545.71 1809.1 624.95 1801.73 634.7C1799.62 640.16 1761.63 644.55 1722.62 650.19C1755.02 735.19 1958.57 795.19 2021.12 631.98C1955.65 629.87 1936.31 662.57 1933.73 507.88C1933.73 507.88 1990.15 445.82 2007.31 391.07C2007.67 391.07 2008.04 391.12 2008.4 391.13C2033.17 391.89 2055.4 344.83 2055.82 310.79C2056.14 284.92 2043.93 266.57 2010.76 282.37Z" fill="#F9AD9B"/>
<path d="M1911.74 114.98C1890.14 77.6796 1860.43 78.4796 1843.74 104.98C1843.74 104.98 1768.6 180.98 1707.74 178.98C1646.88 176.98 1670.63 215.35 1670.63 215.35C1671.56 216.73 1663.91 280.51 1660.92 299.6C1661.22 301.34 1661.51 303.08 1661.8 304.82C1668.8 300.18 1686.74 231.98 1686.74 231.98C1838.74 245.98 1863.74 118.98 1863.74 118.98C1863.74 118.98 1869.74 172.98 1930.74 183.98C1991.74 194.98 1987.74 234.98 2010.74 281.98C2008.24 246.25 2004.23 208.72 2000.96 180.91C1971.86 177.84 1928.87 144.57 1911.74 114.98Z" fill="#F68E6E"/>
<path d="M1723.54 648.929L1723.53 648.939H1723.54V648.929Z" fill="#FD8200"/>
<path d="M1154.49 1262.38C1154.42 1261.38 1154.33 1260.38 1154.23 1259.38C1154.18 1258.87 1154.11 1258.38 1154.09 1257.85V1256.25V1254.61L1146.03 1255.12L1154.49 1262.38Z" fill="#FD8200"/>
<path d="M1723.53 648.939H1723.44C1722.38 648.939 1721.13 648.809 1719.96 648.719L1716.38 648.409L1709.2 647.769L1694.81 646.609C1685.21 645.849 1675.6 645.329 1665.97 644.839C1656.34 644.349 1646.7 644.119 1637.04 643.949C1627.38 643.779 1617.72 643.839 1608.04 644.099C1588.67 644.599 1569.24 645.799 1549.76 648.829C1539.88 650.296 1530.11 652.437 1520.52 655.239C1515.55 656.704 1510.68 658.478 1505.93 660.549C1500.88 662.729 1496.09 665.473 1491.65 668.729C1489.27 670.529 1487.3 672.299 1485.37 674.069L1482.58 676.729L1479.91 679.399C1478.12 681.179 1476.48 682.999 1474.76 684.799L1469.76 690.249C1463.25 697.569 1456.91 704.929 1450.76 712.439C1444.61 719.949 1438.58 727.439 1432.66 735.119C1426.74 742.799 1420.89 750.419 1415.15 758.119C1392.15 789.059 1370.29 820.779 1348.89 852.769C1338.21 868.769 1327.61 884.839 1317.29 901.089C1312.12 909.199 1307.07 917.389 1302.03 925.579L1294.51 937.899L1287.11 950.299C1277.27 966.829 1267.7 983.529 1258.18 1000.24L1243.98 1025.36L1229.91 1050.54C1211.21 1084.14 1192.73 1117.83 1175.24 1152.21C1166.59 1169.45 1158.11 1186.84 1150.97 1205.04C1147.32 1214.21 1144.22 1223.59 1141.67 1233.13C1139.25 1242.85 1137.37 1252.96 1138.1 1264.13L1138.58 1271.56L1146.58 1271.44C1172.51 1271.06 1198.25 1270.23 1223.98 1269.9C1249.71 1269.57 1275.39 1269.9 1300.98 1271.35C1326.55 1272.64 1352.02 1275.52 1377.24 1279.97C1389.83 1282.26 1402.28 1285.21 1414.56 1288.82C1426.89 1292.43 1438.92 1296.97 1450.56 1302.42L1451.56 1300.69C1440.63 1293.43 1429.02 1287.25 1416.9 1282.24C1404.76 1277.19 1392.3 1272.95 1379.6 1269.54C1354.22 1262.68 1328.21 1258.54 1302.16 1255.88C1276.14 1253.35 1250 1252.13 1223.86 1252.22C1210.81 1252.22 1197.78 1252.46 1184.78 1252.93C1174.48 1253.3 1164.21 1253.93 1153.96 1254.53V1256.17V1257.77C1153.96 1258.29 1154.05 1258.77 1154.1 1259.3C1154.2 1260.3 1154.29 1261.3 1154.36 1262.3L1145.88 1254.99L1153.94 1254.48V1252.91L1154.16 1249.62C1154.25 1248.51 1154.25 1247.42 1154.42 1246.3L1154.82 1242.94C1155.04 1240.71 1155.51 1238.44 1155.88 1236.19C1157.58 1227.01 1159.81 1217.93 1162.55 1209.01C1168.14 1190.82 1174.77 1172.97 1182.4 1155.54C1190 1138 1198.4 1120.8 1207.4 1103.87C1216.4 1086.94 1225.82 1070.28 1235.7 1053.87L1243.18 1041.6C1245.69 1037.52 1248.26 1033.48 1250.81 1029.42L1258.54 1017.3C1261.13 1013.3 1263.77 1009.3 1266.4 1005.3C1276.93 989.299 1287.76 973.459 1298.61 957.669L1315.09 934.049L1331.5 910.469C1342.44 894.749 1353.37 879.029 1364.5 863.469C1386.69 832.276 1409.31 801.426 1432.34 770.919C1443.81 755.649 1455.34 740.469 1467.15 725.539C1473.07 718.099 1478.98 710.679 1485.06 703.539L1489.64 698.229C1491.19 696.509 1492.73 694.729 1494.28 693.079L1496.61 690.559L1498.95 688.169C1500.49 686.639 1502.06 685.169 1503.46 683.999C1506.69 681.472 1510.19 679.312 1513.9 677.559C1517.87 675.617 1521.96 673.923 1526.14 672.489C1534.87 669.541 1543.77 667.139 1552.8 665.299C1561.95 663.409 1571.24 661.829 1580.61 660.539C1589.98 659.249 1599.41 658.119 1608.88 657.219C1613.62 656.759 1618.37 656.359 1623.12 655.989C1627.87 655.619 1632.63 655.239 1637.39 654.919C1646.92 654.239 1656.47 653.789 1666.03 653.299C1675.59 652.809 1685.17 652.519 1694.76 652.139L1709.15 651.669L1716.36 651.399C1718.8 651.289 1721.11 651.249 1723.69 650.969H1723.59H1723.98L1723.53 648.939Z" fill="#FD8200"/>
<path d="M2009.21 650.359C2004.92 656.565 2000.28 662.525 1995.32 668.209C1990.45 673.752 1985.24 678.98 1979.71 683.859C1963.12 698.227 1944.21 709.667 1923.78 717.689C1916.86 720.289 1909.71 722.339 1902.47 724.289C1898.84 725.229 1895.18 726.159 1891.47 726.989C1887.76 727.819 1884.02 728.539 1880.24 729.129C1872.64 730.377 1864.94 730.876 1857.24 730.619C1849.53 730.348 1841.87 729.231 1834.4 727.289C1826.96 725.274 1819.77 722.436 1812.96 718.829C1806.12 715.339 1799.68 711.279 1793.32 707.349L1788.58 704.349C1787.79 703.859 1787.02 703.349 1786.22 702.869L1783.88 701.359C1783.1 700.869 1782.31 700.359 1781.52 699.889C1780.73 699.419 1779.98 698.889 1779.2 698.379L1776.85 696.899L1774.54 695.349C1768.41 691.209 1762.46 686.799 1756.73 682.049C1750.95 677.249 1745.43 672.156 1740.18 666.789C1734.83 661.369 1729.78 655.549 1724.58 649.449L1722.8 650.319C1724.63 658.293 1727.59 665.961 1731.61 673.089C1735.62 680.303 1740.44 687.034 1745.98 693.149C1751.52 699.302 1757.68 704.871 1764.36 709.769L1766.86 711.609C1767.7 712.199 1768.56 712.779 1769.42 713.339C1770.28 713.899 1771.15 714.479 1772.02 715.039C1772.89 715.599 1773.8 716.039 1774.69 716.599C1775.58 717.159 1776.49 717.599 1777.39 718.119C1778.29 718.639 1779.24 719.039 1780.16 719.499C1781.08 719.959 1782 720.429 1782.94 720.849L1785.79 722.059C1793.39 725.132 1801.26 727.498 1809.3 729.129C1817.3 730.809 1825.19 732.129 1833.05 733.499C1840.91 734.869 1848.73 736.169 1856.64 737.239C1864.55 738.309 1872.52 739.379 1880.64 739.959C1884.69 740.259 1888.77 740.459 1892.85 740.469C1894.9 740.469 1896.94 740.409 1899 740.379C1901.06 740.349 1903.09 740.149 1905.14 739.999C1913.37 739.237 1921.51 737.738 1929.47 735.519C1945.47 731.239 1961.16 724.519 1974.72 714.439C1994.96 699.469 2010.17 678.701 2018.33 654.889C2020.96 647.213 2022.75 639.273 2023.66 631.209L2021.77 630.589C2017.67 637.459 2013.59 644.049 2009.21 650.359Z" fill="#FD8200"/>
<path d="M2001.43 38.6594C2002.43 6.26945 1903.27 11.1694 1878.73 55.3494C1873.47 64.8294 1839.46 7.24946 1810.02 18.0495C1780.58 28.8495 1720.69 -21.2205 1675.53 40.6195C1630.37 102.459 1590.09 134.859 1593.09 195.719C1596.09 256.579 1594.09 305.659 1656.89 319.399C1659.11 319.889 1661.6 320.399 1664.33 320.859C1656.82 300.779 1671.44 233.979 1670.64 215.349C1655.64 188.019 1730.28 215.409 1796.26 176.569C1838.78 151.569 1852.98 149.199 1864.06 118.569C1879.62 97.6294 1849.11 167.079 2000.96 180.889C2004.24 208.799 2008.26 246.519 2010.77 282.369C2020.31 278.119 2032.06 274.709 2041.13 277.909C2081.91 219.629 2113.47 224.909 2084.88 181.979C2055.42 137.799 2000.45 71.0494 2001.43 38.6594Z" fill="black"/>
<path d="M1800.2 531.429C1800.2 531.429 1801.63 544.429 1802.94 561.329C1921.27 580.589 1933.7 507.869 1933.7 507.869C1888.55 567.749 1800.2 531.429 1800.2 531.429Z" fill="#F68E6E"/>
<path d="M1683.56 405.738C1673.89 374.178 1666.78 337.538 1661.71 304.738C1617.4 276.858 1613.82 397.978 1683.56 405.738Z" fill="#F68E6E"/>
<path d="M1801.52 6.04927C1852.37 12.9293 1853.61 40.7793 1872.52 59.7393C1861.8 7.40927 1797.85 -10.7107 1801.52 6.04927Z" fill="black"/>
<path d="M2576.77 1256.63L2575.57 1251.26L2573.09 1240.55C2571.4 1233.43 2569.64 1226.34 2567.87 1219.25C2564.34 1205.06 2560.47 1190.97 2556.59 1176.89C2548.65 1148.77 2539.9 1120.89 2530.59 1093.23C2511.71 1037.96 2491.33 983.139 2466.98 930.019C2463.98 923.349 2460.87 916.769 2457.78 910.149C2454.69 903.529 2451.64 896.919 2448.4 890.369L2443.62 880.529L2438.9 870.659C2435.66 864.119 2432.37 857.659 2429.18 851.059C2427.59 847.779 2425.99 844.509 2424.31 841.269L2419.39 831.509L2414.51 821.729C2412.92 818.449 2411.15 815.259 2409.51 811.999L2399.51 792.549L2394.38 782.889L2389.32 773.199C2386.01 766.699 2382.44 760.339 2379.01 753.899C2375.58 747.459 2372.18 740.999 2368.57 734.649L2357.92 715.469L2346.85 696.469C2345.92 694.889 2345.01 693.299 2344.06 691.729L2341.14 687.079L2335.29 677.749L2329.42 668.439L2323.2 659.339L2316.93 650.269L2313.77 645.749L2310.45 641.339C2306.02 635.459 2301.45 629.659 2296.98 623.819L2294.78 620.969L2290.78 620.669C2268.37 619.009 2246.04 618.209 2223.64 617.589C2201.24 616.969 2178.86 616.889 2156.45 617.199C2134.04 617.509 2111.62 618.459 2089.24 620.199L2080.84 620.899L2076.65 621.259L2072.46 621.719C2066.87 622.339 2061.29 623.005 2055.72 623.719L2039.09 626.389C2036.32 626.889 2033.57 627.559 2030.82 628.139C2028.07 628.719 2025.33 629.329 2022.59 629.949L2022.93 631.949C2045.14 630.069 2067.39 630.119 2089.63 630.329C2111.87 630.539 2134.1 631.199 2156.34 632.089C2178.58 632.979 2200.81 633.869 2223.04 634.949L2285.94 638.119L2283.49 635.119L2289.69 638.279L2285.94 638.089C2289.69 642.639 2293.43 647.199 2297.24 651.709L2300.7 655.839L2304.02 660.099L2310.71 668.579L2317.44 677.039L2323.92 685.709L2330.42 694.369L2333.67 698.709C2334.74 700.169 2335.76 701.659 2336.81 703.129L2349.31 720.879C2351.39 723.879 2353.31 726.879 2355.31 729.879L2361.26 738.979L2364.26 743.539C2365.26 745.049 2366.26 746.539 2367.16 748.139L2372.8 757.439L2378.38 766.779C2379.3 768.339 2380.25 769.879 2381.14 771.459L2383.79 776.219L2389.06 785.739L2394.26 795.299C2397.64 801.719 2400.87 808.219 2404.16 814.689C2407.45 821.159 2410.55 827.689 2413.63 834.289C2416.71 840.889 2419.85 847.399 2422.69 854.089C2425.53 860.779 2428.44 867.419 2431.31 874.089L2435.45 884.159L2439.51 894.259C2442.25 900.979 2444.82 907.759 2447.4 914.549C2449.98 921.339 2452.6 928.089 2455.04 934.919C2465.16 962.109 2474.66 989.509 2484.19 1016.92C2493.72 1044.33 2502.7 1071.84 2511.26 1099.52C2519.82 1127.2 2528.14 1154.95 2536.26 1182.76C2540.35 1196.65 2544.26 1210.59 2548.26 1224.51C2550.18 1231.39 2552.08 1238.27 2553.95 1245.15C2552.24 1244.48 2550.52 1243.82 2548.79 1243.15C2539.89 1240.08 2530.7 1237.91 2521.36 1236.68C2512.24 1235.48 2503.05 1234.89 2493.86 1234.93C2484.74 1234.93 2475.7 1235.58 2466.73 1236.5C2464.48 1236.72 2462.24 1236.95 2460.01 1237.26C2457.78 1237.57 2455.54 1237.78 2453.32 1238.15L2446.67 1239.2L2440.05 1240.37C2431.24 1242.04 2422.5 1243.9 2413.86 1246.15C2405.22 1248.4 2396.63 1250.77 2388.17 1253.53C2379.71 1256.29 2371.3 1259.2 2363.07 1262.53L2363.38 1263.47L2363.64 1263.7C2365.15 1263.17 2366.84 1262.59 2368.69 1261.99C2370.33 1261.99 2372.31 1261.89 2374.59 1261.85C2388.16 1258.79 2401.79 1256.23 2415.49 1254.16C2424.17 1252.9 2432.85 1251.73 2441.49 1250.9L2448.01 1250.33L2454.52 1249.88C2456.69 1249.71 2458.87 1249.63 2461.03 1249.51C2463.19 1249.39 2465.37 1249.31 2467.53 1249.25C2483.27 1248.64 2499.04 1249.58 2514.6 1252.08H2514.71C2516.03 1252.3 2517.34 1252.54 2518.64 1252.79C2526.77 1254.32 2534.73 1256.64 2542.42 1259.71C2549.81 1262.64 2556.73 1266.64 2562.95 1271.59L2583.68 1288.35L2578.05 1262.23L2576.77 1256.63Z" fill="#FD8200"/>
<path d="M2285.9 638.049L2289.65 638.239L2283.45 635.079L2285.9 638.049Z" fill="#FD8200"/>
<path d="M2363.54 1263.76L2363.28 1263.53L2363.59 1264.47C2367.22 1263.58 2370.86 1262.72 2374.49 1261.91C2372.21 1261.91 2370.23 1262 2368.59 1262.05C2366.74 1262.65 2365.09 1263.23 2363.54 1263.76Z" fill="#FD8200"/>
<path d="M1901.81 9.36776C1879.51 23.7078 1861.28 66.5478 1874.93 57.4278C1881.43 34.7378 1900.14 17.0978 1923.02 10.7378C1934.99 -0.95224 1906.49 2.81776 1901.81 9.36776Z" fill="black"/>
<path d="M1960.52 1208.3L1954.01 1204.93L1957.91 1211.14C1958.34 1211.83 1959.07 1212.99 1960.22 1212.99C1960.53 1212.98 1960.83 1212.91 1961.11 1212.77C1961.59 1212.54 1961.96 1212.13 1962.15 1211.63C1962.33 1211.14 1962.32 1210.59 1962.11 1210.1C1961.98 1209.71 1961.77 1209.35 1961.49 1209.04C1961.22 1208.73 1960.89 1208.48 1960.52 1208.3V1208.3ZM1959.61 1210.08L1958.69 1211.85C1958.51 1211.74 1958.37 1211.57 1958.31 1211.37C1958.22 1210.95 1958.27 1210.51 1958.45 1210.11C1958.63 1209.72 1958.93 1209.4 1959.31 1209.19C1959.59 1209.04 1959.91 1208.96 1960.23 1208.96C1960.52 1208.96 1960.81 1209.03 1961.07 1209.15L1959.61 1210.08Z" fill="black"/>
<path d="M2002.4 804.939C1979.15 831.829 1959.04 864.729 1943.4 904.119C1849.01 1215.22 2204.46 1394.96 2403.46 1224.9C2439.88 1193.78 2471.06 1150.9 2493.29 1095.05C2592.76 767.149 2192.47 585.169 2002.4 804.939Z" fill="#FFB424"/>
<path d="M2243.43 941.958C2207.22 802.958 2048.43 846.068 2032.8 941.478C2028.65 966.878 2034.65 995.998 2055.8 1026.38C2092.72 1079.32 2114.2 1114.38 2131.18 1136.27C2167.13 1182.52 2182.96 1169.51 2282.35 1140.97C2297.14 1136.71 2313.77 1132.12 2332.6 1127.33C2351.61 1123.65 2369.26 1114.84 2383.63 1101.85C2398.01 1088.87 2408.56 1072.2 2414.15 1053.66C2443.09 946.878 2321.49 876.258 2243.43 941.958Z" fill="#003049"/>
<path d="M2245.84 919.619C2206.76 769.619 2024.79 831.729 2034.34 942.799C2035.99 962.029 2043.34 982.719 2058.25 1004.03C2166.79 1159.7 2141.89 1161.03 2261.71 1125.37C2281.71 1119.42 2305.71 1112.44 2335.05 1104.97C2354.07 1101.29 2371.71 1092.48 2386.09 1079.5C2400.46 1066.51 2411.01 1049.85 2416.6 1031.3C2445.51 924.529 2323.9 853.919 2245.84 919.619Z" fill="#E83535"/>
<g opacity="0.6">
<path opacity="0.6" d="M2131.22 1136.27C2114.22 1114.42 2092.76 1079.27 2055.84 1026.38C2034.65 995.998 2028.65 966.879 2032.84 941.479C2019.01 929.539 2009.49 920.949 2005.78 916.979C1983.33 892.979 1995.7 831.509 2002.44 804.979C1979.19 831.869 1959.08 864.768 1943.44 904.158C1849.05 1215.26 2204.5 1395 2403.5 1224.94C2373.03 1206.94 2329.58 1176.26 2282.5 1141.01C2183 1169.51 2167.17 1182.52 2131.22 1136.27Z" fill="#FD8200"/>
</g>
<path d="M2058.25 1004.05C2043.38 982.739 2035.99 962.049 2034.34 942.819L2032.8 941.499C2028.65 966.899 2034.65 996.019 2055.8 1026.4C2092.72 1079.34 2114.2 1114.4 2131.18 1136.29C2167.13 1182.54 2182.96 1169.53 2282.35 1140.99C2275.53 1135.88 2268.64 1130.68 2261.67 1125.4C2141.89 1161.05 2166.79 1159.71 2058.25 1004.05Z" fill="black"/>
<path d="M2058.25 1004.05C2166.79 1159.72 2141.89 1161.05 2261.71 1125.39C2175.27 1059.83 2081.32 983.209 2034.34 942.809C2035.99 962.049 2043.38 982.719 2058.25 1004.05Z" fill="#D62828"/>
<path d="M1996.09 1533.86C1946.94 1582.86 1897.17 1611.95 1839.4 1556.76L1092.71 716.499C1094.33 713.649 1074.71 710.799 1064.71 661.129C1063.46 733.259 993.228 625.719 1838.06 1581.48C1912.85 1651.89 1961.58 1588.97 2040.64 1518.81C2051.07 1509.55 2059.12 1497.92 2064.11 1484.9C2069.09 1471.88 2070.87 1457.84 2069.29 1443.99C2060.7 1484.49 2041.51 1492.05 1996.09 1533.86Z" fill="#003049"/>
<path d="M1919.96 1189.12C1919.96 1189.12 1852.72 1259.31 1916.52 1268.12C1980.32 1276.93 1959.22 1209.71 1959.22 1209.71L1919.96 1189.12Z" fill="#F68E6E"/>
<path d="M1937.14 1245.2L1800.14 1091.06L1338.36 571.378C1310.36 547.148 1254.25 428.028 1143.77 541.518C1110.61 574.758 1020.32 622.278 1087.51 710.648L1560.21 1242.57L1683.39 1381.19L1838.9 1556.19C1839.55 1556.62 1838.16 1556.4 1850 1566.85C1928.18 1622.42 1975.27 1548.39 2041.48 1493.52C2078.28 1460.8 2079.63 1404.52 2048.67 1370.69L1937.14 1245.2Z" fill="white"/>
<path d="M1299.71 608.209C1295.04 595.759 1252.51 615.459 1243.95 615.799C1235.71 619.529 1206.5 587.879 1199.68 584.009C1169.18 567.869 1193.84 643.009 1172.91 647.539C1157.98 659.309 1128.91 667.769 1133.25 680.539C1135.12 690.989 1178.08 697.539 1186.38 706.029C1191.18 712.579 1196.38 748.239 1200.3 756.959C1215.3 781.879 1240.43 714.469 1254.77 719.159C1357.29 731.159 1289.84 702.159 1282.77 659.579C1283.46 653.499 1305.74 614.419 1299.71 608.209Z" fill="#FFB424"/>
<g opacity="0.45">
<path opacity="0.45" d="M1237.09 615.139C1201.21 590.359 1180.9 545.949 1181.69 632.669C1182 640.859 1179.38 644.369 1171 648.769C1106.33 685.109 1132.62 683.239 1182.5 703.329C1190.26 704.649 1192.79 730.659 1195.5 738.209C1253.64 719.039 1289.86 661.989 1280.01 605.929C1274.51 606.319 1242.6 619.049 1237.09 615.139Z" fill="white"/>
</g>
<path d="M1466.65 796.049C1461.99 783.599 1419.46 803.289 1410.9 803.639C1402.66 807.359 1373.45 775.719 1366.62 771.839C1336.13 755.709 1360.79 830.839 1339.86 835.379C1324.93 847.149 1295.86 855.599 1300.2 868.379C1302.07 878.829 1345.03 885.379 1353.33 893.869C1358.13 900.419 1363.33 936.089 1367.24 944.809C1382.24 969.719 1407.37 902.319 1421.71 907.009C1524.23 919.009 1456.78 890.009 1449.71 847.419C1450.41 841.369 1472.68 802.289 1466.65 796.049Z" fill="#FFB424"/>
<g opacity="0.45">
<path opacity="0.45" d="M1403.99 803.049C1368.1 778.269 1347.8 733.859 1348.59 820.569C1348.9 828.769 1346.28 832.269 1337.89 836.669C1273.22 873.009 1299.52 871.149 1349.39 891.229C1357.16 892.549 1359.68 918.569 1362.39 926.109C1420.54 906.949 1456.76 849.889 1446.9 793.829C1441.45 794.179 1409.55 806.949 1403.99 803.049Z" fill="white"/>
</g>
<path d="M1633.6 983.949C1628.94 971.489 1586.4 991.189 1577.84 991.529C1569.6 995.259 1540.4 963.609 1533.57 959.739C1503.08 943.599 1527.73 1018.74 1506.8 1023.28C1491.88 1035.04 1462.8 1043.5 1467.15 1056.28C1469.02 1066.73 1511.97 1073.28 1520.28 1081.77C1525.08 1088.32 1530.28 1123.98 1534.19 1132.7C1549.19 1157.62 1574.32 1090.21 1588.66 1094.9C1691.18 1106.9 1623.73 1077.9 1616.66 1035.32C1617.36 1029.23 1639.63 990.159 1633.6 983.949Z" fill="#FFB424"/>
<g opacity="0.45">
<path opacity="0.45" d="M1570.94 990.868C1535.05 966.098 1514.74 921.678 1515.53 1008.4C1515.84 1016.6 1513.23 1020.1 1504.84 1024.5C1440.17 1060.84 1466.47 1058.98 1516.34 1079.06C1524.1 1080.38 1526.63 1106.39 1529.34 1113.94C1587.48 1094.77 1623.7 1037.72 1613.85 981.658C1608.4 982.048 1576.5 994.808 1570.94 990.868Z" fill="white"/>
</g>
<path d="M1800.55 1171.81C1795.88 1159.36 1753.35 1179.05 1744.79 1179.4C1736.55 1183.13 1707.34 1151.48 1700.51 1147.61C1670.02 1131.47 1694.68 1206.61 1673.75 1211.14C1658.82 1222.91 1629.75 1231.36 1634.09 1244.14C1635.96 1254.6 1678.92 1261.14 1687.22 1269.63C1692.02 1276.19 1697.22 1311.85 1701.14 1320.57C1716.14 1345.48 1741.26 1278.08 1755.6 1282.77C1858.13 1294.77 1790.68 1265.77 1783.6 1223.18C1784.3 1217.1 1806.58 1178.05 1800.55 1171.81Z" fill="#FFB424"/>
<g opacity="0.45">
<path opacity="0.45" d="M1737.88 1178.74C1701.99 1153.96 1681.69 1109.55 1682.48 1196.26C1682.79 1204.46 1680.17 1207.96 1671.79 1212.37C1607.11 1248.7 1633.41 1246.84 1683.29 1266.92C1691.05 1268.24 1693.57 1294.26 1696.29 1301.8C1754.43 1282.64 1790.65 1225.58 1780.79 1169.52C1775.35 1169.91 1743.44 1182.68 1737.88 1178.74Z" fill="white"/>
</g>
<path d="M1967.49 1359.68C1962.83 1347.22 1920.3 1366.92 1911.73 1367.27C1903.5 1370.99 1874.29 1339.34 1867.46 1335.47C1836.97 1319.33 1861.63 1394.47 1840.7 1399.01C1825.77 1410.77 1796.65 1419.23 1801.04 1432.01C1802.91 1442.46 1845.87 1449.01 1854.17 1457.5C1858.97 1464.05 1864.17 1499.71 1868.08 1508.43C1883.08 1533.35 1908.21 1465.94 1922.55 1470.63C2025.07 1482.63 1957.62 1453.63 1950.55 1411.05C1951.25 1404.97 1973.52 1365.89 1967.49 1359.68Z" fill="#FFB424"/>
<g opacity="0.45">
<path opacity="0.45" d="M1904.83 1366.6C1868.94 1341.83 1848.64 1297.41 1849.42 1384.13C1849.74 1392.33 1847.12 1395.83 1838.73 1400.23C1774.06 1436.57 1800.36 1434.71 1850.23 1454.79C1858 1456.11 1860.52 1482.12 1863.23 1489.67C1921.38 1470.5 1957.6 1413.45 1947.74 1357.39C1942.29 1357.78 1910.39 1370.55 1904.83 1366.6Z" fill="white"/>
</g>
<g opacity="0.5">
<path opacity="0.5" d="M1560.21 1242.57L1683.39 1381.19C1754.28 1324.75 1884.39 1267.32 1937.14 1245.19L1800.14 1091.05C1739.09 1142.34 1619.09 1210.35 1560.21 1242.57Z" fill="#3E92CC"/>
</g>
<path d="M1866.95 1107.65L1810.95 1129.24L1811.34 1128.35C1814.1 1121.91 1830.23 1081.97 1814.65 1062.08C1810.94 1057.48 1805.86 1054.19 1800.15 1052.68C1797.68 1059.34 1756.8 1157.01 1731.42 1169.83C1691.92 1194.58 1472.04 1313.83 1370.2 1319.68C1372.2 1313.68 1377.99 1296.01 1384.84 1276.24C1320.77 1261.24 1240.76 1260.24 1191.61 1261.31C1178.09 1339.5 1154.31 1488.14 1168.01 1538.13C1183.86 1584.21 1257.39 1611.13 1266.16 1602.73C1288.97 1588.24 1700.9 1323.62 1745.1 1299.57C1772.18 1288.57 1869.8 1256.78 1917.62 1224.63C1924.85 1219.68 1950.17 1205.18 1959.56 1210.08C1942.95 1182.95 1904.5 1115.5 1866.95 1107.65Z" fill="#F9AD9B"/>
<path d="M1960.52 1208.3L1954.01 1204.93L1957.91 1211.14C1958.34 1211.83 1959.07 1212.99 1960.22 1212.99C1960.53 1212.98 1960.83 1212.91 1961.11 1212.77C1961.59 1212.54 1961.96 1212.13 1962.15 1211.63C1962.33 1211.14 1962.32 1210.59 1962.11 1210.1C1961.98 1209.71 1961.77 1209.35 1961.49 1209.04C1961.22 1208.73 1960.89 1208.48 1960.52 1208.3V1208.3ZM1959.61 1210.08L1958.69 1211.85C1958.51 1211.74 1958.37 1211.57 1958.31 1211.37C1958.22 1210.95 1958.27 1210.51 1958.45 1210.11C1958.63 1209.72 1958.93 1209.4 1959.31 1209.19C1959.59 1209.04 1959.91 1208.96 1960.23 1208.96C1960.52 1208.96 1960.81 1209.03 1961.07 1209.15L1959.61 1210.08Z" fill="black"/>
<path d="M1530.7 1741.6C1473.16 1902.76 1377.05 2175.83 1334.7 2379.31C1508.43 2405.46 1700.84 2408.01 1884.37 2380.18C1886.37 2369.33 1933.08 2114.93 1933.74 2111.33L1934.84 2119.64L1967.4 2365.64C2140.7 2330.75 2310.08 2267.96 2462.32 2171.03C2423.26 1998.55 2385.56 1840.72 2331.92 1706.88C2046.28 1675.22 1688.96 1718.46 1530.7 1741.6Z" fill="#02374F"/>
<path d="M1886.74 1725.13C1888.69 1838.86 1930.53 2108.58 1930.95 2111.29L1936.45 2110.44C1936.03 2107.73 1894.25 1838.38 1892.31 1725.04L1886.74 1725.13Z" fill="black"/>
<path d="M1976.09 1725.31C1987.09 1858.68 1962.73 1939.93 1910.31 1938.66L1909.31 1944.14C1910.7 1944.35 1912.1 1944.45 1913.51 1944.44C1963.44 1941.99 1993.78 1870.14 1981.65 1724.86L1976.09 1725.31Z" fill="black"/>
<path d="M1909 1956.83C1907.59 1965.36 1837.84 2386.47 1837.83 2386.52C1853.37 2384.62 1871.12 2382.19 1885.53 2380L1934.8 2119.64L1936.64 2109.88C1931.09 2074.05 1916.85 1981.15 1911.09 1943.99C1910.7 1946.57 1908.7 1958.63 1909 1956.83Z" fill="black"/>
<path d="M1880.85 1245.14C1906.6 1236.33 1931.43 1206.85 1959.61 1210.08C1949.64 1183.76 1913.47 1208.54 1880.85 1245.14Z" fill="#F68E6E"/>
<path d="M1841.74 317.979C1841.74 317.979 1821.74 343.979 1826.74 352.979C1831.74 361.979 1883.74 374.979 1882.74 338.979C1882.74 338.979 1870.74 318.979 1841.74 317.979Z" fill="#F68E6E"/>
<path d="M1740.6 305.74C1762.29 261.31 1806.6 305.3 1802.95 285.42C1738.53 241.91 1719.89 323.28 1740.6 305.74Z" fill="black"/>
<path d="M1937.94 259.489C1917.99 253.649 1889.65 276.489 1909.36 276.489C1921.55 267.429 1938.36 269.939 1951.24 277.719C1995.27 303.329 1958.85 257.699 1937.94 259.489Z" fill="black"/>
<path d="M1785.98 265.81C1795.15 265.81 1804.61 285.26 1806.41 275.39C1804.57 261.69 1779.73 256.94 1785.98 265.81Z" fill="black"/>
<path d="M1903.01 262.377C1912.36 255.187 1928.15 257.027 1938.3 253.377C1931.31 240.167 1890.09 255.947 1903.01 262.377Z" fill="black"/>
<path d="M1889.26 222.498C1911.37 228.498 1937.26 228.368 1961.26 241.198C2022.9 231.828 1886.55 188.828 1889.26 222.498Z" fill="black"/>
<path d="M1705.3 237.969C1680.3 272.969 1741.6 241.859 1752.35 239.289C1765.8 233.939 1787.12 239.509 1786.05 228.899C1771.45 209.239 1715.37 230.659 1705.3 237.969Z" fill="black"/>
<path d="M1878.86 350.69C1873.75 358.76 1858.55 359.18 1848.27 357.94C1810.75 351.02 1849.37 324.8 1841.69 317.84C1772.48 376.19 1902.04 378.67 1882.45 339.17C1877.63 336.83 1882.17 348.62 1878.86 350.69Z" fill="black"/>
<path d="M1794.8 420.049C1795.44 435.229 1802.5 448.179 1812.93 457.639C1840.64 482.769 1892.07 483.219 1909.46 435.249C1913.31 424.371 1915.36 412.938 1915.54 401.399C1844.86 367.049 1794.8 420.049 1794.8 420.049Z" fill="black"/>
<path d="M1812.93 457.609C1840.64 482.739 1892.07 483.189 1909.46 435.219C1876.09 429.049 1840.24 437.499 1812.93 457.609Z" fill="#F68E6E"/>
<g opacity="0.79">
<path opacity="0.79" d="M1842.74 349.979C1844.95 349.979 1846.74 348.188 1846.74 345.979C1846.74 343.769 1844.95 341.979 1842.74 341.979C1840.53 341.979 1838.74 343.769 1838.74 345.979C1838.74 348.188 1840.53 349.979 1842.74 349.979Z" fill="white"/>
</g>
<path d="M1729.24 391.979C1750.5 391.979 1767.74 379.442 1767.74 363.979C1767.74 348.515 1750.5 335.979 1729.24 335.979C1707.98 335.979 1690.74 348.515 1690.74 363.979C1690.74 379.442 1707.98 391.979 1729.24 391.979Z" fill="#F68E6E"/>
<path d="M1963.24 373.979C1984.5 373.979 2001.74 361.442 2001.74 345.979C2001.74 330.515 1984.5 317.979 1963.24 317.979C1941.98 317.979 1924.74 330.515 1924.74 345.979C1924.74 361.442 1941.98 373.979 1963.24 373.979Z" fill="#F68E6E"/>
<path d="M1191.66 1261.31C1190.45 1268.21 1189.1 1276.02 1187.66 1284.55C1235.12 1284.14 1321.05 1288.06 1370.66 1318.43C1372.23 1313.62 1378.2 1295.52 1384.89 1276.24C1320.81 1261.29 1240.81 1260.19 1191.66 1261.31Z" fill="#F68E6E"/>
<path d="M2516.68 1284.93C2516.09 1274.87 2515.37 1263.93 2514.55 1252.14C2498.99 1249.64 2483.22 1248.7 2467.48 1249.31C2465.32 1249.37 2463.15 1249.43 2460.98 1249.57C2458.81 1249.71 2456.64 1249.77 2454.47 1249.94L2447.96 1250.39L2441.44 1250.96C2432.75 1251.79 2424.07 1252.96 2415.44 1254.22C2401.76 1256.29 2388.13 1258.86 2374.54 1261.91C2372.26 1261.91 2370.28 1262 2368.64 1262.05C2366.79 1262.65 2365.1 1263.23 2363.59 1263.76L2363.33 1263.53C2351.82 1253.64 1983.75 937.239 1976.07 914.989C1968.26 892.409 1970.39 810.929 1970.39 810.929C1963.45 810.129 1957.83 811.529 1953.27 814.469C1929.48 829.729 1934.9 886.469 1934.9 886.469C1934.9 886.469 1910.36 884.469 1888.79 869.679C1884.33 866.529 1880.01 863.409 1875.79 860.269C1862.91 850.811 1850.78 840.355 1839.54 828.999C1831.7 820.169 1795.54 770.439 1785.65 797.639C1768.78 779.409 1745.31 772.089 1761.92 814.809C1744.92 799.139 1724.17 801.809 1741.92 830.219C1699.92 794.219 1756.79 963.219 1763.32 978.879C1785.63 994.489 1934.74 1048.65 1936.4 1045.04C1958.88 1047.13 2401.07 1648.35 2487.79 1454.4C2512.44 1405.3 2524.39 1418.26 2516.93 1289.09C2516.84 1287.69 2516.76 1286.32 2516.68 1284.93Z" fill="#F9AD9B"/>
<path d="M2514.55 1252.14C2498.99 1249.64 2483.22 1248.7 2467.48 1249.31C2465.32 1249.37 2463.15 1249.43 2460.98 1249.57C2458.81 1249.71 2456.64 1249.77 2454.47 1249.94L2447.96 1250.39L2441.44 1250.96C2432.75 1251.79 2424.07 1252.96 2415.44 1254.22C2401.76 1256.29 2388.13 1258.86 2374.54 1261.91C2403.91 1261.45 2482.61 1262.8 2516.97 1289.05L2517.3 1289.3C2516.55 1276.3 2515.64 1263.62 2514.71 1252.16L2514.55 1252.14Z" fill="#F68E6E"/>
<path d="M1773.17 909.048L1761.51 875.578C1757.57 864.438 1753.51 853.309 1749.26 842.229C1745.01 831.149 1740.53 820.139 1735.41 809.229C1737.25 821.027 1739.76 832.713 1742.92 844.229C1746.01 855.735 1749.54 867.112 1753.5 878.359C1757.43 889.637 1761.92 900.708 1766.98 911.528C1769.54 916.938 1772.28 922.289 1775.38 927.469C1776.15 928.759 1776.97 930.028 1777.77 931.308C1778.57 932.588 1779.48 933.808 1780.35 935.038C1782.11 937.511 1784.16 939.761 1786.46 941.738C1783.29 936.658 1781.26 931.148 1779.14 925.638C1777.02 920.128 1775.09 914.578 1773.17 909.048Z" fill="#F68E6E"/>
<path d="M1814.71 916.799L1768.71 824.919L1757.09 801.799C1757.28 802.299 1761.09 812.419 1766.74 826.479C1779.17 857.269 1800.66 906.979 1813.2 916.179C1813.74 916.569 1814.31 916.904 1814.92 917.179L1814.72 916.769L1814.71 916.799Z" fill="#F68E6E"/>
<path d="M1837.99 876.859C1834.99 873.169 1832.22 869.309 1829.52 865.379C1824.15 857.499 1819.08 849.379 1813.99 841.229C1808.9 833.079 1803.87 824.859 1798.7 816.679C1793.53 808.499 1788.23 800.359 1782.41 792.389C1785.15 801.812 1788.64 811.001 1792.85 819.869C1796.97 828.753 1801.62 837.382 1806.77 845.709C1811.91 854.129 1817.77 862.095 1824.27 869.519C1827.58 873.255 1831.2 876.71 1835.09 879.849C1836.09 880.619 1837.09 881.399 1838.09 882.079L1839.66 883.079C1840.18 883.419 1840.76 883.709 1841.3 884.019C1843.48 885.28 1845.84 886.195 1848.3 886.729C1844.39 883.967 1840.92 880.641 1837.99 876.859V876.859Z" fill="#F68E6E"/>
<g opacity="0.7">
<path opacity="0.7" d="M1530.7 1741.6L1526 1754.6C1703 1754.6 2138.55 1753.02 2345 1739.87C2340.57 1728.01 2336.22 1716.97 2331.93 1706.87C2046.28 1675.22 1688.96 1718.46 1530.7 1741.6Z" fill="black"/>
</g>
<path d="M2409.56 1708.59L2409.42 1705.92C2409.2 1702.59 2408.94 1699.25 2408.64 1695.92C2408.04 1689.26 2407.31 1682.64 2406.41 1676.04C2404.6 1662.86 2402.41 1649.75 2399.59 1636.76C2396.77 1623.77 2393.65 1610.88 2389.96 1598.14C2386.27 1585.4 2382.14 1572.78 2377.57 1560.34C2368.41 1535.48 2357.31 1511.38 2344.37 1488.27C2337.88 1476.76 2330.94 1465.51 2323.47 1454.64C2319.74 1449.2 2315.9 1443.85 2311.95 1438.58C2307.95 1433.35 2303.9 1428.17 2299.66 1423.14L2298.07 1424.33C2305.21 1435.33 2312.01 1446.44 2318.37 1457.81C2324.73 1469.18 2330.69 1480.74 2336.21 1492.49C2347.25 1515.94 2356.72 1540.11 2364.55 1564.82C2372.38 1589.46 2378.67 1614.56 2383.38 1639.98C2385.7 1652.68 2387.72 1665.42 2389.2 1678.22C2389.93 1684.61 2390.6 1691.01 2391.11 1697.4C2391.33 1700.23 2391.52 1703.05 2391.68 1705.88C2395.22 1706.4 2398.76 1706.88 2402.29 1707.46L2409.56 1708.59Z" fill="#FD8200"/>
<path d="M2409.56 1708.59L2402.29 1707.45C2398.76 1706.9 2395.22 1706.39 2391.68 1705.87C2391.68 1706.23 2391.68 1706.6 2391.75 1706.96L2391.96 1711.71L2392.03 1714.05V1714.62C2394.03 1713.89 2398.75 1712.83 2408.35 1711.31L2409.69 1711.1V1710.98L2409.56 1708.59Z" fill="#FD8200"/>
<path d="M2392.09 1714.62V1716.05C2394.52 1716.18 2393.3 1716.26 2392.09 1716.1C2390.89 1715.93 2389.71 1715.52 2392.09 1714.67V1714.05L2392.02 1711.71L2391.81 1706.96C2391.81 1706.6 2391.81 1706.23 2391.74 1705.87C2355.61 1700.6 2319.25 1697.16 2282.85 1695.23C2242.85 1693.11 2202.85 1692.59 2162.97 1692.48C2142.97 1692.36 2123.05 1692.48 2103.1 1692.53L2073.17 1692.71L2043.25 1693L2013.33 1693.45C2003.33 1693.61 1993.39 1693.88 1983.41 1693.99C1973.43 1694.1 1963.41 1694.45 1953.48 1694.67L1946 1694.82L1938.51 1695.04L1923.51 1695.47C1883.6 1696.64 1843.69 1698.47 1803.84 1701.22C1763.99 1703.97 1724.23 1707.83 1684.51 1711.95C1644.79 1716.07 1605.12 1720.82 1565.57 1726.27C1528.36 1731.42 1491.26 1737.27 1454.25 1743.48C1455.17 1745.52 1456.22 1747.5 1457.38 1749.41L1447.23 1744.66L1454.23 1743.48C1450.3 1734.9 1448.07 1724.97 1447.05 1714.79C1445.87 1701.83 1445.95 1688.78 1447.31 1675.84C1449.76 1649.51 1455.56 1623.17 1462.42 1597.13C1464.17 1590.62 1466 1584.13 1467.91 1577.64C1469.82 1571.16 1471.85 1564.72 1473.91 1558.26C1477.99 1545.36 1482.32 1532.53 1486.91 1519.76C1491.41 1506.96 1496.2 1494.26 1501.12 1481.6C1503.57 1475.26 1506.08 1468.93 1508.65 1462.6C1511.22 1456.27 1513.82 1449.99 1516.45 1443.75L1514.67 1442.87C1511.32 1448.87 1508.16 1454.87 1504.99 1460.92C1501.82 1466.97 1498.82 1473.09 1495.81 1479.22C1489.81 1491.49 1484.11 1503.9 1478.58 1516.4C1473.05 1528.9 1467.9 1541.59 1462.93 1554.4C1457.96 1567.21 1453.42 1580.11 1449.15 1593.18C1447.03 1599.71 1445 1606.28 1443.07 1612.91C1441.14 1619.54 1439.36 1626.2 1437.74 1632.91C1434.37 1646.42 1431.76 1660.11 1429.9 1673.91C1427.93 1688 1427.38 1702.25 1428.24 1716.45C1428.74 1723.81 1429.89 1731.1 1431.68 1738.26C1433.53 1745.76 1436.41 1752.96 1440.23 1759.67L1443.56 1765.41L1450.38 1764.41C1489.77 1758.65 1529.16 1752.98 1568.53 1747.41C1607.91 1741.85 1647.31 1736.35 1686.77 1731.34C1726.23 1726.33 1765.77 1721.89 1805.3 1717.67C1844.83 1713.45 1884.45 1709.36 1924.11 1706.01C2003.43 1699.29 2083.21 1696.5 2162.73 1700.41C2167.73 1700.67 2172.67 1700.86 2177.64 1701.18L2192.53 1702.18L2207.41 1703.18L2222.28 1704.42L2237.13 1705.68C2242.13 1706.06 2247.03 1706.63 2251.97 1707.1C2261.86 1708.1 2271.75 1708.99 2281.61 1710.16C2321.1 1714.46 2360.44 1719.36 2399.61 1725.09L2393.54 1721.23C2414.39 1717.91 2412.05 1716.72 2409.8 1716.39C2407.45 1716.28 2408.61 1716.21 2409.8 1716.39H2409.85V1714.89V1713.58L2409.75 1711.14L2408.41 1711.35C2398.76 1712.83 2394.09 1713.89 2392.09 1714.62Z" fill="#FD8200"/>
<path d="M2409.56 1708.59L2409.7 1710.98V1711.1L2417.65 1709.85L2409.56 1708.59Z" fill="#FD8200"/>
<path d="M2409.81 1716.35C2408.62 1716.17 2407.46 1716.24 2409.81 1716.35V1716.35Z" fill="#FD8200"/>
<path d="M1457.36 1749.41C1456.2 1747.5 1455.15 1745.52 1454.23 1743.48L1447.23 1744.66L1457.36 1749.41Z" fill="#FD8200"/>
<path d="M1796.75 1136.97C1797.03 1136.81 1803.11 1133.27 1811.39 1128.35C1814.15 1121.91 1830.28 1081.97 1814.7 1062.08C1814.17 1083.71 1811.21 1123.94 1796.75 1136.97Z" fill="#F68E6E"/>
<path d="M2010.74 289.978C2027.74 358.168 2011.83 386.108 2008.37 391.128C2033.14 391.888 2055.37 344.828 2055.79 310.788C2045.41 278.798 2010.74 289.978 2010.74 289.978Z" fill="#F68E6E"/>
<path d="M1934.85 886.449C1934.85 886.449 1910.31 884.449 1888.74 869.659C1884.28 866.509 1879.96 863.389 1875.74 860.249C1876.87 861.439 1921.03 907.709 1945.74 886.979C1945.74 886.979 1942.47 841.249 1953.22 814.469C1929.43 829.729 1934.85 886.449 1934.85 886.449Z" fill="#F68E6E"/>
<path d="M2854.75 412.249C2848.37 411.497 2841.95 411.21 2835.53 411.389C2783.75 480.479 2822.32 489.739 2714.18 481.869C2727.91 455.989 2747.09 432.939 2759.18 408.099L2740.34 407.559C2680.29 491.409 2729.34 480.979 2608.18 478.019L2598.68 493.049C2627.26 496.459 2654.86 495.529 2683.32 497.429C2637.32 561.639 2670.09 566.689 2570.32 557.619C2566.21 558.539 2562.09 558.189 2557.97 557.749C2554.33 562.412 2551.12 567.399 2548.39 572.649C2574.61 578.799 2605.39 575.429 2632.76 577.959C2617.37 601.959 2601.42 625.189 2588.34 648.779L2588.92 649.459H2606.06C2625.56 629.409 2633.71 596.339 2654.85 580.269C2677.19 577.029 2701.12 582.119 2724.53 581.849C2730.78 581.299 2706.28 616.849 2700.21 622.599C2697.96 633.599 2687.21 642.599 2683.42 652.599C2683.59 652.835 2683.77 653.059 2683.97 653.269C2690.49 652.369 2697.05 654.399 2703.58 653.069C2755.28 577.289 2718.88 578.239 2830.49 586.549C2837.24 582.869 2839.02 573.939 2842.79 569.859C2814.24 568.249 2786.3 567.059 2758.46 565.989C2809.84 488.749 2771.46 501.989 2883.66 505.369L2893.85 489.539C2866.02 485.909 2836.16 488.909 2809.61 484.539C2824.7 460.049 2841.09 436.349 2854.75 412.249ZM2663.29 561.389C2710.21 496.179 2676.03 493.599 2777.56 501.649C2733.28 567.229 2763.49 570.419 2663.29 561.389Z" fill="white"/>
<path d="M3022.92 576.359C3018.76 575.559 2981.33 651.189 2975.34 642.999C2938.61 564.479 2928.34 603.309 2988.09 510.299C2985.57 504.145 2982.51 498.228 2978.94 492.619C2920.94 571.069 2950.21 593.059 2894.7 489.219C2893.7 489.749 2893.92 489.549 2893.83 489.619L2883.64 505.449C2915.22 581.219 2944.95 557.449 2882.31 643.079L2843.79 569.509L2842.79 569.939L2833.25 585.149C2873.05 674.149 2891.5 632.659 2826.91 731.429L2836.1 748.989C2850.1 726.479 2866.1 702.629 2879.29 681.159C2883.86 674.469 2887.57 691.359 2892.69 698.579C2921.88 760.029 2926.94 722.149 2870.79 815.229L2879.55 831.959C2938.5 757.419 2907.63 727.849 2964.06 834.699C2967.96 829.602 2971.42 824.186 2974.41 818.509C2962.27 794.039 2947.71 770.449 2936.47 745.789C2942.47 730.409 2952.85 719.599 2961.21 704.519C2982.07 676.279 2965.84 665.109 3014.43 755.199C3018.55 749.848 3022.18 744.142 3025.29 738.149C2987.53 654.049 2966.91 688.689 3031.9 594.149C3029.83 587.739 3026.41 582.049 3022.92 576.359ZM2962.79 670.289C2951.13 688.459 2939.63 707.029 2928.23 724.929C2922.9 727.929 2916.03 704.119 2908.98 693.929C2904.49 682.009 2893.24 671.029 2893.26 659.459C2902.62 651.379 2931.58 577.629 2938.55 610.369C2939.7 619.109 2972.31 659.129 2962.79 670.289Z" fill="white"/>
<path d="M2879.68 833.049C2877.38 826.509 2872.76 819.719 2870.77 815.239L2870.49 815.489C2842.7 814.289 2815.49 814.039 2788.35 812.349C2776.03 801.429 2772.98 784.089 2763.35 769.519C2747 735.209 2737.66 749.519 2836.04 748.999L2826.85 731.439L2826.55 731.659C2738.08 724.869 2750.37 756.239 2704.05 653.979L2703.52 653.159C2696.99 654.489 2690.43 652.459 2683.91 653.359C2692.91 676.359 2718.57 708.259 2719.91 727.669C2629.19 720.739 2661.5 748.029 2608.91 650.239C2601.67 648.509 2594.45 649.979 2588.91 649.499C2601.75 674.389 2614.76 699.359 2627.34 723.309C2599.61 725.469 2570.96 719.199 2544.22 721.579C2546.67 727.342 2549.61 732.885 2553.01 738.149C2579.77 740.989 2607.58 737.699 2634.01 742.659C2645.82 750.739 2648.51 767.119 2656.76 779.799C2674.67 818.449 2689.58 805.669 2587.76 804.489C2590.3 810.596 2593.4 816.458 2597.02 821.999C2690.08 829.679 2668.02 797.209 2719.11 898.479C2725.8 899.395 2732.57 899.662 2739.32 899.279L2700.88 825.849C2792.12 833.679 2762.21 803.449 2814.25 902.439C2820.61 903.29 2827.03 903.548 2833.44 903.209C2794.67 815.169 2760.78 829.049 2879.68 833.049ZM2725.37 809.789C2681.69 807.309 2698.61 819.459 2661.66 750.929C2650.92 735.259 2670.66 745.199 2725.38 745.009C2738.89 745.079 2739.6 765.239 2749.26 778.209C2765.96 816.139 2782.55 812.669 2725.37 809.779V809.789Z" fill="#003049"/>
<path d="M2894.7 489.219C2945.16 570.649 2915.03 591.989 2978.94 492.619C2965 468.679 2953.94 438.899 2937.88 417.429C2927.09 442.849 2908.09 465.549 2894.7 489.219Z" fill="#3E92CC"/>
<path d="M3025.27 738.148C3071.54 655.538 3086.77 694.488 3031.88 594.148C2983.09 676.588 2971.78 638.128 3025.27 738.148Z" fill="#3E92CC"/>
<path d="M2973.43 685.289C2928.29 762.979 2924.43 720.629 2974.43 818.509C2988.57 797.429 3001.22 775.969 3014.43 755.199C3011.18 754.379 2978.44 674.529 2973.43 685.289Z" fill="#3E92CC"/>
<path d="M2944.28 578.529C2946.28 595.669 2959.28 608.259 2966.05 625.159C2983.95 655.539 2966.57 657.469 3022.92 576.359L2988.09 510.299C2973 531.979 2958.47 556.979 2944.28 578.529Z" fill="#3E92CC"/>
<path d="M2652.24 407.809C2638.66 431.259 2622.06 455.508 2608.24 478.018C2706.87 473.018 2675.97 512.619 2740.4 407.559C2713.76 405.639 2686.19 405.109 2660.06 403.729L2652.24 407.809Z" fill="#FFB424"/>
<path d="M2809.59 484.599C2837.4 489.019 2866.65 485.999 2893.83 489.599C2894.14 489.505 2894.43 489.37 2894.7 489.199C2908.2 465.359 2927.82 441.759 2937.88 417.409C2911.66 411.109 2881.44 414.829 2854.75 412.229C2840.69 436.909 2823.9 461.319 2809.59 484.599Z" fill="#FFB424"/>
<path d="M2714.18 481.869C2808.18 481.029 2773.18 508.429 2835.53 411.389L2759.22 408.099C2746.62 433.689 2727.47 456.649 2714.18 481.869Z" fill="#FFB424"/>
<path d="M2598.68 493.049C2584.75 513.929 2571.68 535.819 2557.95 557.749C2562.07 558.189 2566.19 558.539 2570.3 557.619C2670.09 566.689 2637.3 561.619 2683.3 497.429C2663.45 496.569 2644.65 495.909 2625.87 494.889C2616.81 494.429 2607.63 495.419 2598.68 493.049Z" fill="#FFB424"/>
<path d="M2758.44 566.049C2787.62 566.699 2816.32 569.309 2843.79 569.489L2883.91 506.319L2883.64 505.429C2800.29 509.129 2810.39 472.319 2758.44 566.049Z" fill="#FFB424"/>
<path d="M2663.29 561.389C2746.05 562.389 2724.97 588.979 2777.8 503.059C2699.09 497.859 2713.34 478.049 2663.29 561.389Z" fill="#FFB424"/>
<path d="M2830.47 586.629C2718.86 578.319 2755.26 577.369 2703.56 653.149L2704.09 653.969C2819.62 659.749 2776.52 663.649 2833.53 585.969C2833.41 585.692 2833.31 585.408 2833.23 585.119L2830.47 586.629Z" fill="#FFB424"/>
<path d="M2722.62 581.699C2617.62 572.929 2659.42 586.049 2606.04 649.519C2629.92 651.229 2658.57 651.409 2683.4 652.679C2687.23 642.679 2697.95 633.679 2700.19 622.679C2705.09 618.219 2733.93 578.329 2722.62 581.699Z" fill="#FFB424"/>
<path d="M2548.37 572.679C2535.37 596.079 2515.22 618.679 2505.56 643.759C2530.76 649.389 2561.67 646.379 2588.32 648.759C2601.4 625.169 2617.32 601.949 2632.74 577.939C2628.54 577.749 2625.51 577.579 2622.48 577.479C2598.77 575.449 2571.6 578.509 2548.37 572.679Z" fill="#FFB424"/>
<path d="M2843.79 569.509L2882.31 643.079C2930.17 565.449 2933.94 603.129 2883.91 506.339L2843.79 569.509Z" fill="#3E92CC"/>
<path d="M2910.48 631.949C2893.06 662.269 2885.08 652.559 2908.98 693.949C2925.06 716.369 2919.66 745.249 2942.86 701.699C2967.7 658.289 2975.2 677.699 2943.2 619.319C2928.09 591.499 2936.42 592.669 2910.48 631.949Z" fill="#3E92CC"/>
<path d="M2833.53 586.049C2817.67 607.599 2805.05 635.049 2786.92 655.569L2826.59 731.699L2826.89 731.479C2838.47 713.359 2850.06 695.242 2861.65 677.129C2863.45 671.589 2873.59 664.899 2870.83 656.829C2858.91 634.269 2845.73 609.189 2833.53 586.049Z" fill="#3E92CC"/>
<path d="M2836.09 748.988L2835.76 749.148L2870.5 815.479L2870.78 815.229C2872.35 812.769 2873.94 810.309 2875.49 807.829C2929.88 719.829 2920.14 760.009 2883.73 681.419C2879.46 671.589 2839.27 748.128 2836.09 748.988Z" fill="#3E92CC"/>
<path d="M2879.53 831.959C2890.75 855.479 2905.3 880.959 2917.53 904.889C2935.33 885.599 2948.33 856.889 2964.03 834.699C2952.41 812.829 2939.53 788.419 2927.67 765.319C2923.24 754.279 2884.02 831.749 2879.53 831.959Z" fill="#3E92CC"/>
<path d="M2588.32 648.809C2561.67 646.379 2530.76 649.389 2505.56 643.809C2514.04 670.899 2532.46 695.969 2544.21 721.619C2571.28 719.139 2601.06 725.689 2627.33 723.349C2614.22 698.409 2601.22 673.429 2588.9 649.539L2588.32 648.809Z" fill="#FD8200"/>
<path d="M2833.37 903.198C2860.6 903.678 2891.46 908.368 2917.54 904.888L2879.68 833.048C2786.61 837.048 2776.93 796.968 2833.37 903.198Z" fill="#FD8200"/>
<path d="M2596.95 821.988C2644.5 902.148 2604.42 895.508 2719.04 898.468C2671.38 820.478 2713.18 823.138 2596.95 821.988Z" fill="#FD8200"/>
<path d="M2553 738.139L2587.69 804.479C2590.69 800.749 2672.95 813.639 2669.55 804.039C2625.09 725.709 2661.59 744.529 2553 738.139Z" fill="#FD8200"/>
<path d="M2700.81 825.839L2739.25 899.269C2764.25 900.829 2789.19 901.749 2814.18 902.429C2769.09 830.269 2807.91 826.349 2700.81 825.839Z" fill="#FD8200"/>
<path d="M2683.4 652.679C2659.34 652.019 2632.32 650.179 2608.93 650.229C2621.87 674.229 2633.83 699.079 2646.99 722.699C2663.33 728.819 2680.99 724.529 2699.35 726.959C2730.35 725.959 2730.13 744.479 2683.95 653.349C2683.75 653.139 2683.57 652.915 2683.4 652.679V652.679Z" fill="#FD8200"/>
<path d="M2704.09 653.968C2748.33 734.968 2713.87 730.768 2826.59 731.648L2786.92 655.518C2759.69 658.668 2731.03 653.778 2704.09 653.968Z" fill="#FD8200"/>
<path d="M2753.09 749.869C2797.71 826.609 2757.95 810.329 2870.49 815.479L2835.75 749.149C2835.09 753.189 2750.84 740.369 2753.09 749.869Z" fill="#FD8200"/>
<path d="M2702.54 744.109C2697.65 746.049 2650.8 736.359 2660.16 748.049C2670.61 761.569 2679.23 797.949 2696.16 808.609C2719.23 808.809 2742.99 812.119 2765.51 810.819C2762.51 800.969 2753.51 787.689 2749.23 778.199C2734.44 755.539 2743.58 741.399 2702.54 744.109Z" fill="#FD8200"/>
<path d="M1048.28 1132.19C1042.39 1120.41 901.029 1265.69 797.959 1337.35C694.889 1409.01 717.469 1549.35 717.469 1549.35C717.554 1550.88 717.785 1552.39 718.159 1553.88C722.289 1571.29 751.349 1626.5 955.019 1492.41C1174.26 1348.08 1071.32 1170.61 1051.23 1137.16C1049.72 1134.7 1048.69 1133.05 1048.28 1132.19Z" fill="#9F54F0"/>
<path d="M718.159 1553.91C722.289 1571.32 751.349 1626.53 955.019 1492.44C1174.26 1348.11 1071.32 1170.64 1051.23 1137.19C1016.34 1232.82 923.449 1429.24 718.159 1553.91Z" fill="white"/>
<path d="M2564.9 1581.11C2559.9 1592.9 2588.16 1697.59 2607.61 1799.75C2628.14 1894.53 2612.61 1939.36 2670.52 2004.87C2730.93 1944.81 2784.93 1878.63 2831.66 1807.4C2799.42 1567.05 2589.81 1576.75 2564.9 1581.11Z" fill="#9F54F0"/>
<path d="M2572.09 1579.91C2623.02 1639.23 2709.09 1757.49 2749.98 1917.91C2779.24 1882.6 2806.51 1845.7 2831.68 1807.37C2800.01 1576.05 2609.5 1578.81 2572.09 1579.91Z" fill="white"/>
<path d="M1246.55 1851.74C1208.14 1871.22 901.549 2012.03 1005.39 2296.97C1070.23 2320.48 1136.5 2339.83 1203.81 2354.88C1317.36 2314.37 1250.28 2239.95 1236.06 2067.59C1222.62 1925.26 1245.99 1853.49 1246.55 1851.74Z" fill="white"/>
<path d="M1246.55 1851.75C1114.2 2104.62 1229.75 2156.41 1097.25 2327.2C1131.77 2337.4 1167.29 2346.62 1203.81 2354.87C1248.06 2341.07 1282.09 2308.87 1265.22 2238.47C1203.93 1982.65 1245.79 1854.05 1246.55 1851.75Z" fill="#9F54F0"/>
<path d="M903.979 1729.05C903.979 1729.05 984.469 1797.77 983.489 1792.86C983.489 1792.86 986.429 1656.41 983.489 1642.67C980.549 1628.93 903.979 1729.05 903.979 1729.05Z" fill="white"/>
<path d="M2742.56 1394.28L2833.85 1286.3L2703.29 1273.54L2742.56 1394.28Z" fill="white"/>
<path d="M1415.4 546.159L1545.96 494.129L1453.69 490.209L1415.4 546.159Z" fill="white"/>
<path d="M1399.18 97.5898C1490.74 184.09 1343.86 301.49 1276.88 346.06L1271.11 343.94C1246.32 386.66 880.809 543.74 734.849 441.74C835.659 545.05 1112.21 461.87 1239.52 393.05L1471.36 433.29V417.59L1301.77 355.24C1376.34 302.9 1518.16 185.15 1399.18 97.5898Z" fill="#003049"/>
<path d="M1399.18 97.5899C1257.27 -28.9501 1070.7 24.0499 917.529 122.41C860.629 158.98 722.529 245.69 696.379 335.58C682.149 381.58 704.569 429.83 755.759 454.13C877.549 510.47 1102.25 445.13 1234.76 371.75L1471.32 417.57L1307.32 324.47C1370.84 276.49 1481.5 175.14 1399.18 97.5899Z" fill="white"/>
<path d="M1310.56 328.739C1312.72 327.159 1314.86 325.569 1317 323.959L1310 319.809L1310.56 328.739Z" fill="#003049"/>
<path d="M1233.62 377.879L1235.91 378.289L1237.83 377.219L1233.62 377.879Z" fill="#003049"/>
<path d="M1392.56 369.839C1379.1 361.489 1365.39 353.069 1351.56 344.709C1340.07 337.759 1328.56 330.809 1316.97 323.959C1314.83 325.569 1312.69 327.159 1310.53 328.739L1309.95 319.809L1316.95 323.959C1344.4 303.399 1370.59 280.809 1393.21 254.319C1396.21 250.749 1399.21 247.099 1402.08 243.319C1404.95 239.539 1407.74 235.769 1410.4 231.849C1413.06 227.929 1415.64 223.929 1418.02 219.789C1420.4 215.649 1422.69 211.429 1424.74 207.059C1426.82 202.679 1428.68 198.197 1430.31 193.629C1431.93 188.987 1433.26 184.252 1434.31 179.449C1436.51 169.644 1437.11 159.547 1436.09 149.549C1434.94 139.423 1431.99 129.585 1427.38 120.499C1425.09 116.025 1422.46 111.73 1419.53 107.649C1416.6 103.642 1413.43 99.8213 1410.03 96.2091C1409.21 95.2991 1408.31 94.4191 1407.42 93.5391C1406.53 92.6591 1405.64 91.7391 1404.75 90.9191L1399.35 86.2991L1393.95 81.6791L1391.24 79.3691L1388.43 77.2191L1377.18 68.6391L1365.43 60.7191C1349.53 50.4442 1332.67 41.7367 1315.09 34.7191L1308.45 32.1991L1305.12 30.9491L1303.46 30.3191L1301.77 29.7891L1288.22 25.5191L1274.5 22.0491L1272.78 21.6191C1272.2 21.4891 1271.62 21.3891 1271.04 21.2691L1267.56 20.5891L1260.56 19.2391L1257.08 18.5591L1253.57 18.0591L1246.57 17.0591L1243.06 16.5691L1241.3 16.3291L1239.54 16.1691L1232.54 15.5391L1225.49 14.9391L1218.42 14.6791L1211.36 14.4291L1209.59 14.3691H1207.83H1204.3C1185.51 14.4199 1166.76 15.9412 1148.21 18.9191C1129.75 21.8784 1111.5 25.9728 1093.55 31.1791C1089.09 32.5291 1084.55 33.7791 1080.17 35.1791L1066.92 39.5891C1058.17 42.7391 1049.42 45.8891 1040.83 49.4291C1006.48 63.4067 973.332 80.1518 941.699 99.4991L929.909 106.799C925.989 109.249 922.139 111.799 918.259 114.299C914.379 116.799 910.559 119.299 906.739 121.879L895.289 129.539C880.019 139.789 864.859 150.249 849.969 161.089C835.079 171.929 820.409 183.089 806.179 194.829C791.949 206.569 778.039 218.699 764.849 231.619C758.199 238.019 751.849 244.749 745.569 251.509L740.979 256.699L738.679 259.299L736.459 261.959L732.009 267.289L727.729 272.749L725.589 275.489C724.889 276.409 724.229 277.359 723.589 278.289L719.519 283.919L715.659 289.709C715.019 290.709 714.359 291.629 713.739 292.609L711.939 295.609C707.002 303.527 702.705 311.827 699.089 320.429C698.239 322.599 697.309 324.739 696.519 326.939L694.339 333.589C689.888 347.061 688.551 361.366 690.429 375.429C692.869 394.179 701.269 411.949 713.499 426.269C719.618 433.447 726.574 439.866 734.219 445.389C736.099 446.809 738.089 448.069 740.039 449.389C741.039 450.029 742.039 450.639 743.039 451.259C744.039 451.879 745.039 452.509 746.039 453.069L749.109 454.809C750.109 455.379 751.199 455.909 752.239 456.449C754.319 457.589 756.479 458.499 758.599 459.499C775.689 467.189 793.789 472.289 812.109 475.709C830.442 479 849.006 480.833 867.629 481.189C886.199 481.599 904.777 480.931 923.269 479.189C941.749 477.579 960.129 474.979 978.339 471.659C987.459 470.019 996.532 468.182 1005.56 466.149C1014.56 464.149 1023.56 462.009 1032.56 459.639C1041.56 457.269 1050.42 454.829 1059.28 452.189C1068.14 449.549 1076.95 446.759 1085.73 443.869C1103.28 438.079 1120.63 431.709 1137.8 424.869C1171.5 411.517 1204.28 395.939 1235.92 378.239L1233.63 377.829L1237.84 377.169L1235.92 378.239L1264.07 383.239L1294.55 388.459C1314.86 391.879 1335.14 395.119 1355.16 398.259C1375.18 401.399 1394.91 404.479 1414.42 407.729C1424.14 409.329 1433.81 410.972 1443.42 412.659C1453.02 414.329 1462.62 416.049 1472.12 417.789C1458.97 410.149 1445.79 402.332 1432.56 394.339C1419.33 386.346 1406 378.179 1392.56 369.839ZM1440.09 410.949C1430.02 408.816 1419.99 406.642 1410 404.429C1390.08 400.039 1370.38 395.429 1351 390.989C1331.62 386.549 1312.45 382.099 1293.34 377.879L1264.68 371.649L1235.98 365.649L1233.85 365.209L1231.77 366.319C1215.77 374.899 1199.46 382.899 1182.83 390.319C1166.27 397.849 1149.43 404.769 1132.46 411.319C1098.5 424.39 1063.85 435.577 1028.66 444.829C993.509 454.039 957.859 461.399 921.869 465.749C903.891 467.955 885.809 469.21 867.699 469.509C849.642 469.847 831.587 468.77 813.699 466.289C804.777 465.021 795.93 463.269 787.199 461.039C778.494 458.79 769.951 455.954 761.629 452.549C745.129 445.819 729.879 435.669 718.049 422.309C712.125 415.643 707.163 408.181 703.309 400.139C702.309 398.139 701.509 396.069 700.659 394.019C699.809 391.969 699.119 389.839 698.509 387.699C697.202 383.449 696.236 379.102 695.619 374.699C693.806 361.391 695.051 347.844 699.259 335.089L701.389 328.669C702.149 326.559 703.059 324.489 703.889 322.399C707.399 314.063 711.6 306.035 716.449 298.399L718.229 295.509C718.849 294.559 719.499 293.639 720.129 292.699L723.969 287.089L728.029 281.629C728.719 280.729 729.379 279.809 730.029 278.909L732.159 276.259L736.439 270.959L740.889 265.799L743.119 263.229L745.429 260.719L750.039 255.719C756.349 249.159 762.779 242.719 769.499 236.559C776.219 230.399 783.039 224.379 789.989 218.489C796.939 212.599 804.099 206.929 811.339 201.399C825.789 190.259 840.669 179.679 855.769 169.399C870.869 159.119 886.259 149.289 901.769 139.609C909.519 134.789 917.349 129.919 925.109 125.169C928.999 122.809 932.859 120.399 936.779 118.079L948.559 111.209C964.379 102.209 980.399 93.6691 996.709 85.7091L1009 79.8791C1013.13 77.9991 1017.28 76.1891 1021.42 74.3391C1025.56 72.4891 1029.75 70.7891 1033.92 69.0291L1040.19 66.4291L1046.53 63.9891C1080.09 50.7368 1115.04 41.2944 1150.71 35.8391C1186.08 30.4443 1222.09 30.853 1257.33 37.0491C1292.33 43.2391 1325.74 56.8091 1355.77 75.7791L1366.88 83.1491L1377.58 91.1491L1380.26 93.1491L1382.81 95.2791L1387.92 99.5291L1393.03 103.779C1393.84 104.499 1394.53 105.229 1395.29 105.949C1396.05 106.669 1396.79 107.379 1397.51 108.169C1400.44 111.188 1403.18 114.391 1405.71 117.759C1408.16 121.098 1410.37 124.607 1412.33 128.259C1416.17 135.498 1418.68 143.365 1419.74 151.489C1421.84 167.769 1417.92 184.829 1410.74 200.639C1403.56 216.449 1393.61 231.409 1382.39 245.349C1370.97 259.315 1358.6 272.485 1345.39 284.769C1332.22 297.199 1318.39 308.969 1304.03 320.189L1297.57 325.259L1304.57 329.109C1317.97 336.449 1331.43 343.609 1344.97 350.769C1358.51 357.929 1372.13 365.019 1385.97 372.179C1399.81 379.339 1413.82 386.649 1427.97 394.179C1442.12 401.709 1456.24 409.399 1470.42 417.269C1460.35 415.189 1450.23 413.099 1440.09 410.949Z" fill="#003049"/>
<path d="M815.349 297.918C815.349 298.028 855.079 381.738 862.349 397.018C863.069 398.338 864.289 403.808 870.579 399.578C891.649 389.698 885.919 398.638 857.679 335.298C838.089 298.948 837.969 270.508 815.349 297.918Z" fill="#FFB424"/>
<path d="M961.718 350.908C956.918 340.788 920.779 264.528 915.269 252.908C913.809 243.908 892.918 256.468 895.418 260.528C895.468 260.618 938.318 351.038 942.718 360.308C945.088 368.408 967.198 354.508 961.718 350.908Z" fill="#FFB424"/>
<path d="M962.459 312.468C986.759 359.718 1056.17 329.938 1034.95 278.108C1010.87 231.628 941.459 261.048 962.459 312.468ZM980.239 304.048C969.409 277.718 1002.9 263.138 1015.78 284.048C1031.35 313.778 992.349 329.438 980.239 304.048V304.048Z" fill="#FFB424"/>
<path d="M1096.37 211.619C1098.28 202.489 1081.24 212.009 1075.9 216.619C1074.9 219.339 1076.9 258.259 1076.52 260.479L1076.21 260.629C1070.35 257.919 1043.68 224.199 1037 233.979C1029.57 237.709 1020.67 240.039 1025.72 244.389L1073.72 283.469C1107 312.559 1093.29 293.509 1096.37 211.619Z" fill="#FFB424"/>
<path d="M1177.85 227.358C1168.49 244.728 1147.71 251.208 1137.77 234.068L1182.93 212.668C1186.74 164.198 1091.93 175.338 1116.87 239.468C1141.55 295.048 1223.09 235.868 1177.85 227.358ZM1161.55 207.408L1132.89 220.988C1127.41 203.178 1153.32 192.048 1161.55 207.408V207.408Z" fill="#FFB424"/>
<path d="M1211.54 106.569C1195.28 115.179 1207.8 138.029 1223.09 130.939C1239.36 122.149 1227.09 99.3292 1211.54 106.569Z" fill="#FFB424"/>
<path d="M1270.25 205.048C1266.93 198.048 1242.02 145.498 1240.32 141.918C1239.64 135.988 1219.14 145.188 1221.07 150.808C1221.16 150.978 1239.41 189.488 1247.61 206.808C1251.68 227.488 1274.55 208.258 1270.25 205.048Z" fill="#FFB424"/>
<path d="M1329.23 163.458C1309.23 157.938 1317.97 199.458 1290.3 134.928C1294.47 131.858 1315.41 127.378 1307.14 118.978C1301.52 101.208 1292.33 114.858 1282.14 117.768C1280.02 114.768 1272.08 90.4281 1267.22 96.6781C1245.01 106.168 1254.62 105.578 1262.98 126.848C1246.18 129.638 1259.06 155.358 1271.12 144.008C1275.98 152.478 1286.43 181.338 1294.53 188.168C1306.32 201.818 1350.14 178.218 1329.23 163.458Z" fill="#FFB424"/>
<path d="M2821.09 1623.98L2882.93 1527.78H2821.09V1623.98Z" fill="white"/>
<path d="M297.089 635.048C49.7987 726.048 -38.1813 1026.77 14.8286 1269.05C19.2086 1301.05 67.5987 1441.91 96.1187 1431.14C112.379 1425.92 84.5787 1359.65 85.0287 1352.44C-1.77134 1074.24 55.6186 829.248 285.449 664.748C291.159 659.158 324.849 625.638 297.089 635.048Z" fill="#3E92CC"/>
<path d="M3266.91 1087.56C3186.42 1535.29 2971.53 1960.94 2583.24 2210.78C2563.72 2225.62 2532.68 2239.33 2526.63 2253.32C2522.49 2304.4 2583.05 2258.16 2603.25 2248.14C3007.56 2015.03 3251.38 1507.47 3284.37 1115.74C3287.94 1100.65 3285.28 1064.19 3266.91 1087.56Z" fill="#3E92CC"/>
<g opacity="0.5">
<path opacity="0.5" d="M1814.71 916.798L1813.2 916.188C1813.74 916.579 1814.31 916.914 1814.92 917.188L1814.72 916.778L1814.71 916.798Z" fill="#3E92CC"/>
</g>
</svg>
