<svg width="918" height="779" viewBox="0 0 918 779" fill="none" xmlns="http://www.w3.org/2000/svg">
<path d="M910.8 772H7" stroke="#E1E7F4" stroke-width="13" stroke-miterlimit="10" stroke-linecap="round"/>
<path d="M170.9 433.5H605.5C609.1 433.5 611.9 430.6 611.9 427.1V22.4004H164.5V427C164.5 430.6 167.3 433.5 170.9 433.5Z" fill="#F8FAFF" stroke="#A8B7E2" stroke-width="3" stroke-miterlimit="10"/>
<path d="M170.9 2H605.5C609.1 2 611.9 4.89999 611.9 8.39999V22.4H164.5V8.39999C164.5 4.89999 167.3 2 170.9 2Z" fill="#F8FAFF" stroke="#A8B7E2" stroke-width="3" stroke-miterlimit="10"/>
<path d="M220.1 17.3004C222.972 17.3004 225.3 14.9723 225.3 12.1004C225.3 9.22852 222.972 6.90039 220.1 6.90039C217.229 6.90039 214.9 9.22852 214.9 12.1004C214.9 14.9723 217.229 17.3004 220.1 17.3004Z" fill="#9EF482"/>
<path d="M203.4 17.3004C206.272 17.3004 208.6 14.9723 208.6 12.1004C208.6 9.22852 206.272 6.90039 203.4 6.90039C200.528 6.90039 198.2 9.22852 198.2 12.1004C198.2 14.9723 200.528 17.3004 203.4 17.3004Z" fill="#FFC95E"/>
<path d="M186.7 17.3004C189.572 17.3004 191.9 14.9723 191.9 12.1004C191.9 9.22852 189.572 6.90039 186.7 6.90039C183.828 6.90039 181.5 9.22852 181.5 12.1004C181.5 14.9723 183.828 17.3004 186.7 17.3004Z" fill="#6711C2"/>
<path d="M365 77.6992H116.7V244.199H365V77.6992Z" stroke="#6711C2" stroke-width="0.75" stroke-miterlimit="10"/>
<path d="M116.7 77.6992L365 244.199" stroke="#6711C2" stroke-width="0.75" stroke-miterlimit="10"/>
<path d="M365 77.6992L116.7 244.199" stroke="#6711C2" stroke-width="0.75" stroke-miterlimit="10"/>
<path d="M144.8 185.1H101.5C99 185.1 97 183.1 97 180.6C97 178.1 99 176.1 101.5 176.1H144.8C147.3 176.1 149.3 178.1 149.3 180.6C149.3 183 147.3 185.1 144.8 185.1Z" fill="#687CCD"/>
<path d="M165.8 201.799H101.5C99 201.799 97 199.799 97 197.299C97 194.799 99 192.799 101.5 192.799H165.8C168.3 192.799 170.3 194.799 170.3 197.299C170.3 199.699 168.2 201.799 165.8 201.799Z" fill="#687CCD"/>
<path d="M165.8 218.5H101.5C99 218.5 97 216.5 97 214C97 211.5 99 209.5 101.5 209.5H165.8C168.3 209.5 170.3 211.5 170.3 214C170.3 216.5 168.2 218.5 165.8 218.5Z" fill="#687CCD"/>
<path d="M287.7 421.399H62.9004C60.7004 421.399 58.9004 419.599 58.9004 417.399V280.199H291.6V417.399C291.7 419.599 289.9 421.399 287.7 421.399Z" fill="#687CCD"/>
<path d="M90.1006 280.199H89.1006V421.399H90.1006V280.199Z" fill="#4541FC"/>
<path d="M287.7 260.199H62.9004C60.7004 260.199 58.9004 261.999 58.9004 264.199V280.199H291.6V264.199C291.7 261.999 289.9 260.199 287.7 260.199Z" fill="#4541FC"/>
<path d="M77.4004 303.898H71.4004C69.7004 303.898 68.4004 302.598 68.4004 300.898C68.4004 299.198 69.7004 297.898 71.4004 297.898H77.4004C79.1004 297.898 80.4004 299.198 80.4004 300.898C80.4004 302.498 79.0004 303.898 77.4004 303.898Z" fill="#B3C0E2"/>
<path d="M77.4004 313.898H71.4004C69.7004 313.898 68.4004 312.598 68.4004 310.898C68.4004 309.198 69.7004 307.898 71.4004 307.898H77.4004C79.1004 307.898 80.4004 309.198 80.4004 310.898C80.4004 312.498 79.0004 313.898 77.4004 313.898Z" fill="#B3C0E2"/>
<path d="M77.4004 323.898H71.4004C69.7004 323.898 68.4004 322.598 68.4004 320.898C68.4004 319.198 69.7004 317.898 71.4004 317.898H77.4004C79.1004 317.898 80.4004 319.198 80.4004 320.898C80.4004 322.498 79.0004 323.898 77.4004 323.898Z" fill="#B3C0E2"/>
<path d="M77.4004 333.898H71.4004C69.7004 333.898 68.4004 332.598 68.4004 330.898C68.4004 329.198 69.7004 327.898 71.4004 327.898H77.4004C79.1004 327.898 80.4004 329.198 80.4004 330.898C80.4004 332.498 79.0004 333.898 77.4004 333.898Z" fill="#B3C0E2"/>
<path d="M77.4004 343.898H71.4004C69.7004 343.898 68.4004 342.598 68.4004 340.898C68.4004 339.198 69.7004 337.898 71.4004 337.898H77.4004C79.1004 337.898 80.4004 339.198 80.4004 340.898C80.4004 342.498 79.0004 343.898 77.4004 343.898Z" fill="#B3C0E2"/>
<path d="M77.4004 353.898H71.4004C69.7004 353.898 68.4004 352.598 68.4004 350.898C68.4004 349.198 69.7004 347.898 71.4004 347.898H77.4004C79.1004 347.898 80.4004 349.198 80.4004 350.898C80.4004 352.498 79.0004 353.898 77.4004 353.898Z" fill="#B3C0E2"/>
<path d="M77.4004 363.898H71.4004C69.7004 363.898 68.4004 362.598 68.4004 360.898C68.4004 359.198 69.7004 357.898 71.4004 357.898H77.4004C79.1004 357.898 80.4004 359.198 80.4004 360.898C80.4004 362.498 79.0004 363.898 77.4004 363.898Z" fill="#B3C0E2"/>
<path d="M77.4004 373.898H71.4004C69.7004 373.898 68.4004 372.598 68.4004 370.898C68.4004 369.198 69.7004 367.898 71.4004 367.898H77.4004C79.1004 367.898 80.4004 369.198 80.4004 370.898C80.4004 372.498 79.0004 373.898 77.4004 373.898Z" fill="#B3C0E2"/>
<path d="M77.4004 383.898H71.4004C69.7004 383.898 68.4004 382.598 68.4004 380.898C68.4004 379.198 69.7004 377.898 71.4004 377.898H77.4004C79.1004 377.898 80.4004 379.198 80.4004 380.898C80.4004 382.498 79.0004 383.898 77.4004 383.898Z" fill="#B3C0E2"/>
<path d="M77.4004 393.898H71.4004C69.7004 393.898 68.4004 392.598 68.4004 390.898C68.4004 389.198 69.7004 387.898 71.4004 387.898H77.4004C79.1004 387.898 80.4004 389.198 80.4004 390.898C80.4004 392.498 79.0004 393.898 77.4004 393.898Z" fill="#B3C0E2"/>
<path d="M77.4004 403.898H71.4004C69.7004 403.898 68.4004 402.598 68.4004 400.898C68.4004 399.198 69.7004 397.898 71.4004 397.898H77.4004C79.1004 397.898 80.4004 399.198 80.4004 400.898C80.4004 402.498 79.0004 403.898 77.4004 403.898Z" fill="#B3C0E2"/>
<path d="M123.4 303.898H107.4C105.7 303.898 104.4 302.598 104.4 300.898C104.4 299.198 105.7 297.898 107.4 297.898H123.4C125.1 297.898 126.4 299.198 126.4 300.898C126.4 302.498 125 303.898 123.4 303.898Z" fill="#B3C0E2"/>
<path d="M101.5 297.299L98.7004 300.099C98.3004 300.499 98.3004 301.099 98.7004 301.499L101.5 304.299C101.9 304.699 102.5 304.699 102.9 304.299C103.3 303.899 103.3 303.299 102.9 302.899L100.8 300.799L102.9 298.699C103.3 298.299 103.3 297.699 102.9 297.299C102.5 296.999 101.9 296.999 101.5 297.299Z" fill="#B3C0E2"/>
<path d="M101.5 397.299L98.7004 400.099C98.3004 400.499 98.3004 401.099 98.7004 401.499L101.5 404.299C101.9 404.699 102.5 404.699 102.9 404.299C103.3 403.899 103.3 403.299 102.9 402.899L100.8 400.799L102.9 398.699C103.3 398.299 103.3 397.699 102.9 397.299C102.5 396.999 101.9 396.999 101.5 397.299Z" fill="#B3C0E2"/>
<path d="M129.1 297.299L131.9 300.099C132.3 300.499 132.3 301.099 131.9 301.499L129.1 304.299C128.7 304.699 128.1 304.699 127.7 304.299C127.3 303.899 127.3 303.299 127.7 302.899L129.8 300.799L127.7 298.699C127.3 298.299 127.3 297.699 127.7 297.299C128.1 296.999 128.7 296.999 129.1 297.299Z" fill="#B3C0E2"/>
<path d="M135.7 397.299L138.5 400.099C138.9 400.499 138.9 401.099 138.5 401.499L135.7 404.299C135.3 404.699 134.7 404.699 134.3 404.299C133.9 403.899 133.9 403.299 134.3 402.899L136.4 400.799L134.3 398.699C133.9 398.299 133.9 397.699 134.3 397.299C134.6 396.999 135.3 396.999 135.7 397.299Z" fill="#B3C0E2"/>
<path d="M117.4 313.898H101.4C99.7004 313.898 98.4004 312.598 98.4004 310.898C98.4004 309.198 99.7004 307.898 101.4 307.898H117.4C119.1 307.898 120.4 309.198 120.4 310.898C120.4 312.498 119 313.898 117.4 313.898Z" fill="#FFA79B"/>
<path d="M129.2 323.898H111.4C109.7 323.898 108.4 322.598 108.4 320.898C108.4 319.198 109.7 317.898 111.4 317.898H129.2C130.9 317.898 132.2 319.198 132.2 320.898C132.2 322.498 130.9 323.898 129.2 323.898Z" fill="#FFC75D"/>
<path d="M145.701 323.898H137.301C135.601 323.898 134.301 322.598 134.301 320.898C134.301 319.198 135.601 317.898 137.301 317.898H145.701C147.401 317.898 148.701 319.198 148.701 320.898C148.701 322.498 147.401 323.898 145.701 323.898Z" fill="#4541FC"/>
<path d="M186.5 323.898H154.4C152.7 323.898 151.4 322.598 151.4 320.898C151.4 319.198 152.7 317.898 154.4 317.898H186.5C188.2 317.898 189.5 319.198 189.5 320.898C189.5 322.498 188.1 323.898 186.5 323.898Z" fill="#FFA79B"/>
<path d="M239.001 323.898H195.301C193.601 323.898 192.301 322.598 192.301 320.898C192.301 319.198 193.601 317.898 195.301 317.898H239.001C240.701 317.898 242.001 319.198 242.001 320.898C242.001 322.498 240.701 323.898 239.001 323.898Z" fill="#8BBAE8"/>
<path d="M264.4 323.898H247.7C246 323.898 244.7 322.598 244.7 320.898C244.7 319.198 246 317.898 247.7 317.898H264.4C266.1 317.898 267.4 319.198 267.4 320.898C267.4 322.498 266.1 323.898 264.4 323.898Z" fill="#FFA79B"/>
<path d="M139.201 333.898H111.301C109.601 333.898 108.301 332.598 108.301 330.898C108.301 329.198 109.601 327.898 111.301 327.898H139.201C140.901 327.898 142.201 329.198 142.201 330.898C142.201 332.498 140.901 333.898 139.201 333.898Z" fill="#8BBAE8"/>
<path d="M165.6 333.898H147.4C145.7 333.898 144.4 332.598 144.4 330.898C144.4 329.198 145.7 327.898 147.4 327.898H165.6C167.3 327.898 168.6 329.198 168.6 330.898C168.6 332.498 167.3 333.898 165.6 333.898Z" fill="#FFC75D"/>
<path d="M211.9 333.898H174C172.3 333.898 171 332.598 171 330.898C171 329.198 172.3 327.898 174 327.898H211.9C213.6 327.898 214.9 329.198 214.9 330.898C214.9 332.498 213.6 333.898 211.9 333.898Z" fill="#FFA79B"/>
<path d="M248.8 333.898H220.2C218.5 333.898 217.2 332.598 217.2 330.898C217.2 329.198 218.5 327.898 220.2 327.898H248.8C250.5 327.898 251.8 329.198 251.8 330.898C251.8 332.498 250.5 333.898 248.8 333.898Z" fill="#4541FC"/>
<path d="M123.4 343.898H111.4C109.7 343.898 108.4 342.598 108.4 340.898C108.4 339.198 109.7 337.898 111.4 337.898H123.4C125.1 337.898 126.4 339.198 126.4 340.898C126.4 342.498 125 343.898 123.4 343.898Z" fill="#B3C0E2"/>
<path d="M157 343.898H131.5C129.8 343.898 128.5 342.598 128.5 340.898C128.5 339.198 129.8 337.898 131.5 337.898H157C158.7 337.898 160 339.198 160 340.898C160 342.498 158.7 343.898 157 343.898Z" fill="#FFC75D"/>
<path d="M225.201 343.898H165.301C163.601 343.898 162.301 342.598 162.301 340.898C162.301 339.198 163.601 337.898 165.301 337.898H225.201C226.901 337.898 228.201 339.198 228.201 340.898C228.201 342.498 226.901 343.898 225.201 343.898Z" fill="#8BBAE8"/>
<path d="M117.4 353.898H101.4C99.7004 353.898 98.4004 352.598 98.4004 350.898C98.4004 349.198 99.7004 347.898 101.4 347.898H117.4C119.1 347.898 120.4 349.198 120.4 350.898C120.4 352.498 119 353.898 117.4 353.898Z" fill="#FFA79B"/>
<path d="M117.4 363.898H101.4C99.7004 363.898 98.4004 362.598 98.4004 360.898C98.4004 359.198 99.7004 357.898 101.4 357.898H117.4C119.1 357.898 120.4 359.198 120.4 360.898C120.4 362.498 119 363.898 117.4 363.898Z" fill="#FFA79B"/>
<path d="M135.8 373.898H111.4C109.7 373.898 108.4 372.598 108.4 370.898C108.4 369.198 109.7 367.898 111.4 367.898H135.8C137.5 367.898 138.8 369.198 138.8 370.898C138.8 372.498 137.4 373.898 135.8 373.898Z" fill="#4541FC"/>
<path d="M199.9 373.898H144.2C142.5 373.898 141.2 372.598 141.2 370.898C141.2 369.198 142.5 367.898 144.2 367.898H199.9C201.6 367.898 202.9 369.198 202.9 370.898C202.9 372.498 201.6 373.898 199.9 373.898Z" fill="#FFC75D"/>
<path d="M237.4 373.898H208.7C207 373.898 205.7 372.598 205.7 370.898C205.7 369.198 207 367.898 208.7 367.898H237.4C239.1 367.898 240.4 369.198 240.4 370.898C240.4 372.498 239.1 373.898 237.4 373.898Z" fill="#FFA79B"/>
<path d="M129.2 383.898H111.4C109.7 383.898 108.4 382.598 108.4 380.898C108.4 379.198 109.7 377.898 111.4 377.898H129.2C130.9 377.898 132.2 379.198 132.2 380.898C132.2 382.498 130.9 383.898 129.2 383.898Z" fill="#FFC75D"/>
<path d="M167.4 383.898H137.4C135.7 383.898 134.4 382.598 134.4 380.898C134.4 379.198 135.7 377.898 137.4 377.898H167.4C169.1 377.898 170.4 379.198 170.4 380.898C170.4 382.498 169.1 383.898 167.4 383.898Z" fill="#8BBAE8"/>
<path d="M186.501 383.898H176.101C174.401 383.898 173.101 382.598 173.101 380.898C173.101 379.198 174.401 377.898 176.101 377.898H186.501C188.201 377.898 189.501 379.198 189.501 380.898C189.501 382.498 188.101 383.898 186.501 383.898Z" fill="#FFC75D"/>
<path d="M117.4 393.898H101.4C99.7004 393.898 98.4004 392.598 98.4004 390.898C98.4004 389.198 99.7004 387.898 101.4 387.898H117.4C119.1 387.898 120.4 389.198 120.4 390.898C120.4 392.498 119 393.898 117.4 393.898Z" fill="#FFA79B"/>
<path d="M129.5 403.898H113.5C111.8 403.898 110.5 402.598 110.5 400.898C110.5 399.198 111.8 397.898 113.5 397.898H129.5C131.2 397.898 132.5 399.198 132.5 400.898C132.5 402.498 131.1 403.898 129.5 403.898Z" fill="#B3C0E2"/>
<path d="M105 402.899L107.9 397.899C108.2 397.399 108.8 397.299 109.3 397.499C109.8 397.799 109.9 398.399 109.7 398.899L106.8 403.899C106.5 404.399 105.9 404.499 105.4 404.299C104.9 403.999 104.7 403.399 105 402.899Z" fill="#B3C0E2"/>
<path d="M772.9 771.999H467.5C451.2 771.999 437.9 758.799 437.9 742.399V96.2992C437.9 79.9992 451.1 66.6992 467.5 66.6992H772.9C789.2 66.6992 802.5 79.8992 802.5 96.2992V742.399C802.5 758.699 789.2 771.999 772.9 771.999Z" fill="#CFE5FF"/>
<path d="M802.5 96.2992C802.5 79.9992 789.3 66.6992 772.9 66.6992H467.5C451.2 66.6992 437.9 79.8992 437.9 96.2992V369.899C477.8 403.899 533.2 433.799 608.6 442.999C688.8 452.799 753.5 445.499 802.4 433.199V96.2992H802.5Z" fill="#BCD7FD"/>
<path d="M503.701 684.2H418.901C412.801 684.2 407.801 679.2 407.801 673.1V588.2C407.801 582.1 412.801 577.1 418.901 577.1H503.801C509.901 577.1 514.901 582.1 514.901 588.2V673.1C514.801 679.3 509.901 684.2 503.701 684.2Z" fill="#8BBAE8"/>
<path d="M627.201 684.2H542.301C536.201 684.2 531.201 679.2 531.201 673.1V588.2C531.201 582.1 536.201 577.1 542.301 577.1H627.201C633.301 577.1 638.301 582.1 638.301 588.2V673.1C638.301 679.3 633.301 684.2 627.201 684.2Z" fill="#8BBAE8"/>
<path d="M750.601 684.2H665.701C659.601 684.2 654.601 679.2 654.601 673.1V588.2C654.601 582.1 659.601 577.1 665.701 577.1H750.601C756.701 577.1 761.701 582.1 761.701 588.2V673.1C761.701 679.3 756.701 684.2 750.601 684.2Z" fill="#8BBAE8"/>
<path d="M756.201 760.399H450.801C434.501 760.399 421.201 747.199 421.201 730.799V84.7992C421.201 68.4992 434.401 55.1992 450.801 55.1992H756.201C772.501 55.1992 785.801 68.3992 785.801 84.7992V730.899C785.801 747.199 772.501 760.399 756.201 760.399Z" stroke="#687CCD" stroke-width="3" stroke-miterlimit="10"/>
<path d="M678.601 305.699H545.801C539.201 305.699 533.801 300.299 533.801 293.699V160.799C533.801 154.199 539.201 148.799 545.801 148.799H678.701C685.301 148.799 690.701 154.199 690.701 160.799V293.699C690.601 300.299 685.201 305.699 678.601 305.699Z" fill="#63A7EA"/>
<path d="M765.9 218.999L740.6 193.799L732.4 201.999L757.7 227.199L732.4 252.499L740.6 260.599L765.9 235.399L774 227.199L765.9 218.999Z" fill="white"/>
<path d="M455.401 235.399L480.601 260.599L488.801 252.499L463.601 227.199L488.801 201.999L480.601 193.799L455.401 218.999L447.201 227.199L455.401 235.399Z" fill="white"/>
<path d="M769.401 95.0996H741.101C739.701 95.0996 738.501 93.8996 738.501 92.4996V91.1996C738.501 89.7996 739.701 88.5996 741.101 88.5996H769.401C770.801 88.5996 772.001 89.7996 772.001 91.1996V92.4996C772.001 93.8996 770.801 95.0996 769.401 95.0996Z" fill="#74ABED"/>
<path d="M769.401 104.699H741.101C739.701 104.699 738.501 103.499 738.501 102.099V100.799C738.501 99.3992 739.701 98.1992 741.101 98.1992H769.401C770.801 98.1992 772.001 99.3992 772.001 100.799V102.099C772.001 103.599 770.801 104.699 769.401 104.699Z" fill="#74ABED"/>
<path d="M769.401 114.4H741.101C739.701 114.4 738.501 113.2 738.501 111.8V110.5C738.501 109.1 739.701 107.9 741.101 107.9H769.401C770.801 107.9 772.001 109.1 772.001 110.5V111.8C772.001 113.2 770.801 114.4 769.401 114.4Z" fill="#74ABED"/>
<path d="M495.201 101.4L478.901 85.0996C478.401 84.5996 477.701 84.5996 477.301 85.0996L461.001 101.4C460.301 102.1 460.801 103.4 461.801 103.4H466.301V117.2C466.301 117.8 466.801 118.4 467.501 118.4H488.701C489.301 118.4 489.901 117.9 489.901 117.2V103.4H494.401C495.401 103.3 495.901 102.1 495.201 101.4Z" fill="#74ABED"/>
<path d="M706.301 428.099H518.101C511.501 428.099 506.101 422.699 506.101 416.099V415.699C506.101 409.099 511.501 403.699 518.101 403.699H706.201C712.801 403.699 718.201 409.099 718.201 415.699V416.099C718.301 422.699 712.901 428.099 706.301 428.099Z" fill="white"/>
<path d="M720.6 457.6H476.6C473.8 457.6 471.5 459.9 471.5 462.7C471.5 465.5 473.8 467.8 476.6 467.8H720.6C723.4 467.8 725.7 465.5 725.7 462.7C725.7 459.9 723.4 457.6 720.6 457.6Z" fill="white"/>
<path d="M720.6 484.4H476.6C473.8 484.4 471.5 486.7 471.5 489.5C471.5 492.3 473.8 494.6 476.6 494.6H720.6C723.4 494.6 725.7 492.3 725.7 489.5C725.7 486.7 723.4 484.4 720.6 484.4Z" fill="white"/>
<path d="M720.6 511.199H476.6C473.8 511.199 471.5 513.499 471.5 516.299C471.5 519.099 473.8 521.399 476.6 521.399H720.6C723.4 521.399 725.7 519.099 725.7 516.299C725.7 513.499 723.4 511.199 720.6 511.199Z" fill="white"/>
<path d="M642 537.9H476.5C473.7 537.9 471.4 540.2 471.4 543C471.4 545.8 473.7 548.1 476.5 548.1H642C644.8 548.1 647.1 545.8 647.1 543C647.2 540.2 644.9 537.9 642 537.9Z" fill="white"/>
<path d="M662.2 290.4H529.3C522.7 290.4 517.3 285 517.3 278.4V145.5C517.3 138.9 522.7 133.5 529.3 133.5H662.2C668.8 133.5 674.2 138.9 674.2 145.5V278.4C674.2 285 668.8 290.4 662.2 290.4Z" fill="#E2ECF9"/>
<path d="M517.6 247.4L516.6 269.5H494.8L501.2 246.4L517.6 247.4Z" fill="#FFC75D"/>
<path d="M516.6 269.5L513.5 342.1C513.1 352 505.5 360.2 495.7 361.4L429.8 369.4L427.1 363.5L411.5 329.9H478L494.8 269.5H516.6Z" fill="#E5A39E"/>
<path d="M501.2 246.5C501.2 246.5 497.4 236.5 499.6 226.4C501.8 216.3 508.9 215.3 514.6 213.4C520.3 211.4 524.4 209.7 529.6 216.4C534.8 223.1 537.7 222.5 533.5 223.8C529.3 225.1 525.9 225.3 523.7 222.6C521.5 219.9 521.2 218.7 521.2 218.7C521.2 218.7 526.1 228.8 523.2 232.2C520.2 235.6 517.3 235.9 517.3 235.9L517.6 247.6L501.2 246.5Z" fill="#FFC75D"/>
<path d="M480.3 334.2C480.7 337.7 481.1 341.3 481.5 344.8C481.6 345.6 482.9 345.6 482.8 344.8C482.4 341.3 482 337.7 481.6 334.2C481.5 333.4 480.2 333.4 480.3 334.2Z" fill="black"/>
<path d="M483.5 332.1C486.7 334.3 490 336.5 493.2 338.8C493.9 339.3 494.6 338.1 493.9 337.7C490.7 335.5 487.4 333.3 484.2 331C483.4 330.5 482.8 331.6 483.5 332.1Z" fill="black"/>
<path d="M406.7 282.2C406.7 282.2 427.9 276.7 419.2 256.5C410.5 236.3 392.2 233.6 380.6 242.7C369 251.9 377.7 264.7 377.7 264.7C377.7 264.7 367.1 258.3 362.3 266.5C357.5 274.8 363.3 279.3 363.3 279.3C363.3 279.3 348.8 274.4 345 283.9C340.5 294.9 353.7 297.7 353.7 297.7C353.7 297.7 347.9 305 350.8 310.5C353.7 316 357.6 317.8 357.6 317.8C357.6 317.8 342.2 320.6 342.2 333.4C342.2 346.2 363.4 342.6 363.4 342.6H391.4L393.3 294.9L406.7 282.2Z" fill="black"/>
<path d="M382.6 308.801L380.7 332.601L404.9 343.801L405.7 310.601L416.2 306.801C421.2 305.001 423.3 299.001 420.5 294.501L401.9 264.801C401.9 264.801 396.1 291.401 387.4 293.201C378.7 295.001 377.8 288.601 377.8 288.601C377.8 288.601 362.4 295.901 368.2 304.201C373.9 312.501 382.6 308.801 382.6 308.801Z" fill="#FFC75D"/>
<path d="M406.7 282.3C407.6 284.7 409.4 286.4 411.7 287.3C411.5 287.1 411.4 286.9 411.2 286.7C411.1 287.8 410.7 288.7 410 289.5C409.5 290.2 410.6 290.8 411.1 290.2C411.9 289.1 412.3 288 412.4 286.7C412.4 286.4 412.2 286.2 411.9 286.1C410 285.4 408.5 283.9 407.8 282C407.7 281.2 406.4 281.6 406.7 282.3Z" fill="black"/>
<path d="M410.9 298.699C408 300.499 404.2 299.899 401.9 297.299C401.4 296.699 400.4 297.599 401 298.199C403.6 301.299 408.1 301.899 411.5 299.799C412.2 299.399 411.6 298.299 410.9 298.699Z" fill="black"/>
<path d="M404.701 309.099C402.601 309.699 400.401 310.399 398.301 310.999C397.501 311.199 397.801 312.499 398.601 312.299C400.701 311.699 402.901 310.999 405.001 310.399C405.901 310.199 405.501 308.899 404.701 309.099Z" fill="black"/>
<path d="M372.7 301.199C372.7 297.999 376 295.499 379.1 296.399C381.7 297.099 383.3 299.599 383.7 302.199C384.1 301.999 384.4 301.799 384.8 301.599C381.6 298.299 376.4 299.599 375.1 303.999C374.9 304.799 376.1 305.199 376.4 304.299C377.4 300.799 381.3 299.899 383.9 302.399C384.4 302.899 385.1 302.399 385 301.799C384.4 298.299 381.7 294.899 377.9 294.799C374.4 294.699 371.4 297.599 371.3 301.099C371.4 302.099 372.7 302.099 372.7 301.199Z" fill="black"/>
<path d="M345 493.2L468.4 491.4L449.1 401.5L450.6 399.9C462.6 387.5 462.5 367.8 450.4 355.6L434.3 339.3C428.4 333.3 420.3 330 411.9 330H382.4C368.5 330 357.2 341 356.8 354.9L345 493.2Z" fill="#FFA79B"/>
<path d="M350.5 428.201L349.4 441.401L388.2 449.501L357.6 425.801L350.5 428.201Z" fill="black"/>
<path d="M444.3 399.9C437.9 394.7 428.1 395.9 420.4 396.5C412.3 397.1 404.3 399.1 398.4 404.9C397.8 405.5 398.7 406.4 399.3 405.8C405 400.2 412.7 398.4 420.4 397.8C427.7 397.2 437.3 396 443.4 400.8C444 401.3 444.9 400.4 444.3 399.9Z" fill="black"/>
<path d="M376.601 738.699L372.001 755.599C363.301 755.599 361.401 759.499 357.501 755.599C356.301 754.399 353.101 753.299 349.101 752.299L349.901 738.699H376.601Z" fill="#FFC75D"/>
<path d="M502.601 738.7L502.101 753.7C493.401 751.8 497.301 762.4 491.501 757.5C490.601 756.7 487.101 756.2 482.001 755.7L479.101 738.6H502.601V738.7Z" fill="#FFC75D"/>
<path d="M505.7 645.2L502.7 738.7H479.2L467.7 671.3C467 667 466.7 662.6 466.8 658.2L467.5 637.3L421.2 556.6L403.8 638.2L376.6 738.8H349.9L353.9 674.5C354.4 667.6 355.7 660.8 357.8 654.2L364.2 634.6C364.2 634.6 350.7 564.8 349.7 541.7C348.7 518.6 352.6 493.4 352.6 493.4L468.3 491.6L503.4 626.1C505.2 632.2 505.9 638.7 505.7 645.2Z" fill="black"/>
<path d="M400 771.999H347.9L349.1 752.299C353.1 753.299 356.3 754.399 357.5 755.599C361.4 759.499 363.3 755.599 372 755.599L401.1 766.099C404.3 767.299 403.4 771.999 400 771.999Z" fill="#687CCD"/>
<path d="M533.2 771.999H484.8L482 755.799C487.2 756.199 490.6 756.799 491.5 757.599C497.3 762.399 493.4 751.899 502.1 753.799L534.3 766.299C537.4 767.299 536.6 771.999 533.2 771.999Z" fill="#687CCD"/>
<path d="M367.7 498.2C365.9 529.5 366.1 560.9 368.6 592.1C369.9 607.9 372.2 623.5 373.9 639.2C375.6 654.5 370.7 670 368.1 685C365.1 701.7 362.5 718.5 360.3 735.4C360.2 736.2 361.5 736.2 361.6 735.4C363.7 719.5 366.1 703.7 368.9 687.9C370.2 680.4 371.6 672.9 373.1 665.4C374.4 658.7 375.9 652.1 375.7 645.2C375.5 637.5 373.9 629.8 373 622.1C372 614.1 371.2 606.1 370.4 598.1C369 582.6 368.2 567.1 367.9 551.6C367.6 533.8 367.9 516 369 498.2C369.1 497.3 367.8 497.3 367.7 498.2Z" fill="white"/>
<path d="M380.801 497.401C383.101 510.101 379.601 523.101 371.101 532.901C370.601 533.501 371.501 534.501 372.001 533.801C380.801 523.601 384.401 510.201 382.001 497.001C381.901 496.201 380.701 496.601 380.801 497.401Z" fill="white"/>
<path d="M423.601 554.2C424.301 549.4 426.001 545 428.801 541C429.301 540.3 428.101 539.6 427.701 540.3C424.901 544.4 423.101 548.9 422.401 553.8C422.201 554.7 423.501 555 423.601 554.2Z" fill="white"/>
<path d="M427.6 548.499C435.1 563.699 442.9 578.799 450.8 593.799C454.5 600.799 458.3 607.799 462.1 614.699C466.2 622.099 471.7 629.699 474.4 637.699C477.1 645.699 476.6 654.999 477.4 663.299C478.1 671.199 479 679.199 479.9 687.099C481.9 703.599 484.4 719.999 487.3 736.299C487.5 737.099 488.7 736.799 488.6 735.999C485.5 718.699 482.9 701.299 480.8 683.799C479.8 675.299 479 666.799 478.2 658.299C477.6 650.999 477.8 642.999 475.1 635.999C472.3 628.899 467.7 622.299 464.1 615.599C460 608.199 455.9 600.699 452 593.199C444 578.199 436.3 563.099 428.8 547.899C428.4 547.099 427.3 547.799 427.6 548.499Z" fill="white"/>
<path d="M420.2 446.1L412.5 459.2L388.2 449.5L398.6 429.4L420.2 446.1Z" fill="#FFC75D"/>
<path d="M369.1 406.5L398.6 429.4L388.2 449.6L345.9 432.6C334.5 428.1 328.7 415.4 332.6 403.8L349.6 353.4C354.3 339.4 367.6 330.1 382.3 330.3L409.6 330.8L369.1 406.5Z" fill="#FFA79B"/>
<path d="M449.6 558.7L389.6 498.7C385.3 494.4 385.3 487.3 389.6 483L449.6 423C453.9 418.7 461 418.7 465.3 423L525.3 483C529.6 487.3 529.6 494.4 525.3 498.7L465.3 558.7C461 563.1 453.9 563.1 449.6 558.7Z" fill="#8BBAE8"/>
<path d="M431.6 456.299L428.2 444.899C427.4 442.099 424.4 440.599 421.6 441.599C418.8 442.599 416.6 444.699 415.4 447.499L409.3 459.799C408.4 461.899 408.6 464.299 409.7 466.199L415 474.599C414.2 476.099 413.5 477.799 413.5 478.899C413.5 481.099 417.2 484.199 417.9 481.999C418.5 479.799 421.7 476.299 421.7 476.299L424.4 472.199C426.2 470.599 427.1 468.199 427 465.799L426.8 462.299C430.2 462.499 432.6 459.399 431.6 456.299Z" fill="#FFC75D"/>
<path d="M423.301 449.3C424.801 453.4 426.201 457.5 427.301 461.7C427.501 462.5 428.801 462.2 428.601 461.4C427.401 457.2 426.101 453.1 424.601 449C424.201 448.1 423.001 448.5 423.301 449.3Z" fill="black"/>
<path d="M417.401 444.399C414.601 448.099 412.301 451.899 410.301 456.099C409.901 456.899 411.101 457.499 411.401 456.799C413.401 452.699 415.801 448.799 418.501 445.099C419.001 444.399 417.901 443.699 417.401 444.399Z" fill="black"/>
<path d="M420.2 456.101C421.9 460.901 423.3 465.701 424.4 470.601C424.6 471.401 425.9 471.101 425.7 470.301C424.5 465.401 423.1 460.601 421.5 455.801C421.2 455.001 419.9 455.301 420.2 456.101Z" fill="black"/>
<path d="M416.1 464.4C418.2 467.9 420 471.5 421.4 475.3C421.7 476.1 423 475.7 422.7 475C421.3 471.1 419.5 467.3 417.3 463.8C416.8 463 415.6 463.7 416.1 464.4Z" fill="black"/>
<path d="M391.2 366.201C387.3 372.101 383.6 378.101 380.2 384.301C377.1 389.901 372.9 396.301 371.2 402.601C369.9 407.201 376.4 410.901 379.3 413.701C384.9 419.101 390.4 424.401 396 429.801C396.6 430.401 397.5 429.501 396.9 428.901C392.4 424.501 387.8 420.201 383.3 415.801C381 413.601 378.8 411.401 376.5 409.301C375.6 408.501 374 407.401 373.4 406.301C371.9 403.301 373.5 400.601 374.7 398.201C379.8 387.401 385.7 377.001 392.3 367.001C392.8 366.101 391.7 365.501 391.2 366.201Z" fill="black"/>
<path d="M377.7 336.501C384.6 340.401 388.8 347.501 389 355.401C389 356.201 390.3 356.201 390.3 355.401C390.1 347.001 385.7 339.501 378.4 335.401C377.6 335.001 376.9 336.101 377.7 336.501Z" fill="black"/>
<path d="M366.301 403.9C363.101 403.9 359.901 403.9 356.701 403.9C355.901 403.9 355.901 405.2 356.701 405.2C359.901 405.2 363.101 405.2 366.301 405.2C367.201 405.2 367.201 403.9 366.301 403.9Z" fill="black"/>
<path d="M367.9 407.801C365.9 409.001 364.5 410.801 363.8 413.101C363.5 413.901 364.8 414.301 365.1 413.401C365.7 411.501 366.9 410.001 368.6 408.901C369.3 408.501 368.6 407.401 367.9 407.801Z" fill="black"/>
<path d="M212.6 728.4L200.2 754.6C190.6 752.7 188.6 758.4 184.8 753.6C183.2 751.6 178.3 751.4 173.2 751.9L181.1 728.4H212.6Z" fill="#FFA79B"/>
<path d="M241 668.501L219.7 728.401L180.4 728.601L219.1 615.801L241 668.501Z" fill="#687CCD"/>
<path d="M230.9 696.901L241 668.501L219.1 615.801L208 648.001L230.9 696.901Z" fill="black"/>
<path d="M226.6 772H166.4L173.2 752C178.3 751.5 183.2 751.6 184.8 753.7C188.7 758.5 190.6 752.7 200.2 754.7L227.9 766C231 767.2 230.1 772 226.6 772Z" fill="#4541FC"/>
<path d="M225.1 655.5C216.8 678.5 208.6 701.5 200.3 724.5C200 725.3 201.3 725.6 201.6 724.8C209.9 701.8 218.1 678.8 226.4 655.8C226.7 655.1 225.4 654.7 225.1 655.5Z" fill="black"/>
<path d="M186.7 718.6C198.4 718.9 210.1 719.3 221.8 719.6C222.6 719.6 222.6 718.3 221.8 718.3C210.1 718 198.4 717.6 186.7 717.3C185.8 717.2 185.8 718.5 186.7 718.6Z" fill="black"/>
<path d="M310 521.502H221.7V525.402H310V521.502Z" fill="black"/>
<path d="M308.888 525.02L333.531 452.912L330.882 452.007L306.238 524.115L308.888 525.02Z" fill="black"/>
<path d="M125.301 431.9L165.201 391.6L201.201 410L186.701 437.1C183.401 443.4 175.501 445.6 169.401 442L158.801 435.7L147.201 451.1L125.301 431.9Z" fill="#FFA79B"/>
<path d="M175.401 407.5C175.401 407.5 201.101 426.8 210.101 415.2C219.101 403.6 183.101 375.3 166.401 380.5C149.701 385.7 142.001 413.9 142.001 413.9L158.701 419C158.701 419 154.801 401 163.801 401C172.801 401 170.201 412.6 170.201 412.6L175.401 407.5Z" fill="black"/>
<path d="M190.801 422.901C190.801 425.101 190.701 427.301 190.701 429.501C190.901 429.301 191.001 429.101 191.201 428.901C189.401 429.301 187.601 429.001 186.001 428.101C185.301 427.701 184.601 428.801 185.301 429.201C187.201 430.301 189.301 430.601 191.501 430.101C191.801 430.001 192.001 429.701 192.001 429.501C192.001 427.301 192.101 425.101 192.101 422.901C192.101 422.101 190.801 422.101 190.801 422.901Z" fill="black"/>
<path d="M178.101 432.301C175.501 430.401 173.401 428.001 171.901 425.201C171.701 424.801 171.101 424.801 170.901 425.101C167.901 428.401 168.001 433.501 171.101 436.701C171.701 437.301 172.601 436.401 172.001 435.801C169.401 433.101 169.301 428.801 171.801 426.101C171.501 426.101 171.101 426.001 170.801 426.001C172.401 429.001 174.701 431.601 177.501 433.601C178.101 433.901 178.801 432.801 178.101 432.301Z" fill="black"/>
<path d="M161.7 406.6C162 404.4 165 404.8 166.3 406C168.6 408.2 166.3 412.4 165.1 414.6C165.5 414.8 165.9 414.9 166.3 415.1C167.1 411.9 165 408.5 161.8 408C161 407.9 160.6 409.1 161.5 409.3C164.1 409.7 165.8 412.3 165.1 414.8C164.9 415.5 165.9 416 166.3 415.3C167.9 412.4 170.4 407 166.6 404.6C164.6 403.3 161 403.5 160.5 406.3C160.3 407.1 161.6 407.5 161.7 406.6Z" fill="black"/>
<path d="M242.701 718.401C256.201 718.101 269.701 718.701 283.101 720.101C283.901 720.201 283.901 718.901 283.101 718.801C269.701 717.401 256.201 716.901 242.701 717.101C241.901 717.101 241.901 718.401 242.701 718.401Z" fill="black"/>
<path d="M292.4 748.8C282.4 748.8 281.2 756.5 275.4 753.6C274 752.9 269.5 752.7 263.3 752.8L254 728.4H288L292.4 748.8Z" fill="#FFA79B"/>
<path d="M287.9 728.4L243.5 728.5L215.2 627.2H92.8C72.6 627.2 55.7 611.8 53.8 591.7L52 571.9H215.3C237.8 571.9 257.2 587.6 261.8 609.6L287.6 727L287.9 728.4Z" fill="#687CCD"/>
<path d="M325.6 772H270.5L263.2 752.9C269.4 752.8 273.9 753 275.3 753.7C281.1 756.6 282.4 748.9 292.3 748.9L326.9 766.1C330 767.5 328.9 772 325.6 772Z" fill="#4541FC"/>
<path d="M92.2998 574.601C96.6998 587.801 111.1 591.201 123.4 592.101C141.9 593.501 160.4 594.801 178.8 597.001C188.4 598.201 198 599.501 207.6 601.001C211.9 601.701 216.1 602.401 220.3 603.101C222.2 603.401 224.3 603.601 226.1 604.201C229.7 605.301 230.9 608.301 231.9 611.601C237.3 629.301 242.5 647.001 247.9 664.701C254 684.901 260 705.101 266.1 725.301C266.3 726.101 267.6 725.801 267.4 725.001C256.7 689.301 245.9 653.701 235.2 618.001C233.6 612.801 233 605.301 227.1 603.301C223.5 602.101 219.4 601.801 215.6 601.201C210.8 600.401 206 599.701 201.1 598.901C183.4 596.301 165.7 594.301 147.9 592.801C137.6 591.901 127.1 591.901 116.9 590.401C107.1 589.001 96.7998 584.701 93.3998 574.501C93.2998 573.401 92.0998 573.801 92.2998 574.601Z" fill="black"/>
<path d="M216.9 614.801C216.9 618.301 216.9 621.901 216.9 625.401C216.9 626.201 218.2 626.201 218.2 625.401C218.2 621.901 218.2 618.301 218.2 614.801C218.2 614.001 216.9 614.001 216.9 614.801Z" fill="black"/>
<path d="M222 625.6C222.6 624 223.3 622.4 223.9 620.8C224.2 620 222.9 619.7 222.6 620.5C222 622.1 221.3 623.7 220.7 625.3C220.4 626 221.7 626.4 222 625.6Z" fill="black"/>
<path d="M52 572.1L53.4 586.9L121.8 572.1H52Z" fill="black"/>
<path d="M69.1004 475.601L51.9004 572.101H172.8L161.3 459.801C160.4 451.201 155.3 443.701 147.7 439.701L137.1 434.101C120.2 425.201 99.4004 428.601 86.1004 442.301C77.3004 451.401 71.4004 463.001 69.1004 475.601Z" fill="#FFC75D"/>
<path d="M126.9 513.602C126.9 513.602 131.1 536.302 156.2 540.802C161.4 541.102 166 541.302 169.7 541.402L161.4 459.802C160.9 455.102 159.1 450.702 156.4 447.002C144.7 440.802 126.2 437.002 113.7 463.902C113.7 463.902 111.2 494.002 115.9 516.102L126.9 513.602Z" fill="black"/>
<path d="M115.5 495.6C112 521.1 107.8 546.5 102.8 571.8C102.6 572.6 103.9 573 104.1 572.1C109.1 546.8 113.3 521.4 116.8 495.9C116.9 495.2 115.6 494.8 115.5 495.6Z" fill="black"/>
<path d="M113.701 463.8L118.901 509L174.201 498.7L162.901 457.1C161.001 450.1 156.301 444.2 149.901 440.8L148.501 440.1C131.501 431.1 111.501 444.8 113.701 463.8Z" fill="#FFC75D"/>
<path d="M279.5 518.899C279.5 518.899 274.4 511.999 271.8 508.199C266.7 500.599 263.2 503.099 257.7 506.099C252.1 509.099 238.4 507.799 238.4 507.799L174.1 498.799L131.7 505.899C133.8 523.299 149.6 535.699 167.1 533.699L238.4 521.999C238.4 521.999 248.7 523.299 253.8 522.899C258.9 522.499 260.2 518.999 263.7 515.999C267.1 512.999 266.7 508.299 267.1 512.099C267.5 515.999 271 518.999 273.1 519.399C275.3 519.799 278.7 521.099 279.5 518.899Z" fill="#FFA79B"/>
<path d="M140.5 437.599C127.9 434.699 112.7 444.099 111.7 457.599C111.6 458.399 113 458.399 113 457.599C113.9 444.999 128.5 436.199 140.1 438.899C141 439.099 141.4 437.799 140.5 437.599Z" fill="black"/>
<path d="M122.901 503.398C138.201 499.498 153.701 496.698 169.401 495.098C170.201 494.998 170.201 493.698 169.401 493.798C153.601 495.498 137.901 498.298 122.501 502.198C121.701 502.298 122.101 503.598 122.901 503.398Z" fill="black"/>
<path d="M43 771.999H124.3C153.6 771.999 174.8 743.899 166.7 715.699L143.2 633.799C142.1 629.999 138.6 627.299 134.6 627.299H100.5C96.8 627.299 93.5 624.999 92.2 621.599L70.2 564.899C66.9 556.399 73.2 547.199 82.3 547.199H148.2" stroke="black" stroke-width="7" stroke-miterlimit="10" stroke-linecap="round"/>
<path d="M181.8 627.3H94.3002C64.9002 627.3 40.1002 602.8 36.7002 570.2L23.7002 446" stroke="#6711C2" stroke-width="15" stroke-miterlimit="10" stroke-linecap="round"/>
<path d="M216.5 772.001H287.4C320.6 772.001 344.6 731.501 335.4 690.901L299 538.601C297.8 533.101 293.8 529.301 289.3 529.301" stroke="black" stroke-width="7" stroke-miterlimit="10" stroke-linecap="round"/>
<path d="M208.3 532.602H329.8" stroke="#6711C2" stroke-width="15" stroke-miterlimit="10" stroke-linecap="round"/>
<path d="M680.7 352.201C680.7 352.201 680.4 345.101 678.1 340.601C673.8 332.001 668.7 331.201 668.7 331.201C665.3 331.201 652.8 327.801 652.8 327.801C652.8 327.801 652.4 332.901 657.1 335.901C661.8 338.901 665.2 336.301 665.2 336.301C665.2 336.301 662.6 340.601 663.5 346.201C664.4 351.801 667.8 351.301 667.8 351.301L668.2 365.001H675.5L761.6 410.001L768 375.301L680.7 352.201Z" fill="#E89087"/>
<path d="M789.301 347.102H803.401C829.401 347.102 849.901 369.302 847.801 395.202L844.301 523.202H738.501L771.601 361.502C773.301 353.102 780.701 347.102 789.301 347.102Z" fill="#6711C2"/>
<path d="M775.301 353.701C773.501 355.901 772.201 358.501 771.601 361.401L755.601 439.601L793.001 387.501C805.601 373.401 793.701 351.501 775.301 353.701Z" fill="black"/>
<path d="M778.701 410.101C779.501 447.001 777.901 484.001 773.901 520.701C773.801 521.501 775.101 521.501 775.201 520.701C779.201 484.001 780.801 447.101 780.001 410.101C780.001 409.201 778.701 409.201 778.701 410.101Z" fill="black"/>
<path d="M775.801 294.301L770.501 319.901C769.301 325.901 773.901 331.601 780.001 331.601H784.801L783.501 349.601L810.501 352.201L804.101 289.201L775.801 294.301Z" fill="#FFA79B"/>
<path d="M768.101 275.101C781.001 263.501 792.501 279.001 792.501 279.001C792.501 279.001 808.701 276.801 815.601 285.401C832.301 306.001 804.001 330.401 804.001 330.401L792.401 321.401C792.401 321.401 805.301 317.501 801.401 306.001C797.501 294.401 788.501 308.601 788.501 308.601C788.501 308.601 783.401 291.901 775.601 294.501C767.801 297.101 754.801 287.001 768.101 275.101Z" fill="black"/>
<path d="M774.801 304.602C774.901 307.302 773.201 309.802 770.601 310.702C769.801 311.002 770.101 312.202 770.901 312.002C774.001 310.902 776.201 308.002 776.101 304.702C776.101 303.802 774.801 303.802 774.801 304.602Z" fill="black"/>
<path d="M773.301 320.702C776.001 321.002 778.601 320.501 781.101 319.401C780.801 319.301 780.501 319.101 780.101 319.001C780.801 321.101 780.001 323.402 778.101 324.602C777.401 325.002 778.001 326.202 778.801 325.702C781.201 324.202 782.301 321.302 781.401 318.602C781.301 318.202 780.801 318.002 780.401 318.202C778.101 319.202 775.701 319.501 773.301 319.301C772.401 319.301 772.401 320.602 773.301 320.702Z" fill="black"/>
<path d="M798.001 383.4L738.601 442.1L715.301 409L772.501 352.3C775.901 348.9 780.501 347 785.301 347C804.501 347.1 813.001 371.4 798.001 383.4Z" fill="#6711C2"/>
<path d="M784.801 353.4C794.401 357.8 799.301 369 795.901 379C795.601 379.8 796.901 380.1 797.201 379.3C800.701 368.7 795.601 356.8 785.5 352.2C784.7 351.9 784.001 353.1 784.801 353.4Z" fill="black"/>
<path d="M724.101 405C728.001 415 733.901 424 741.501 431.5C742.101 432.1 743.001 431.2 742.401 430.6C734.901 423.2 729.101 414.5 725.301 404.6C725.101 403.8 723.801 404.2 724.101 405Z" fill="black"/>
<path d="M715.301 408.999L709.001 415.2L648.601 393.299C648.601 393.299 649.501 383.4 643.501 380.9C637.501 378.3 630.201 375.799 627.201 372.799C624.201 369.799 624.201 379.199 627.601 380.099C631.001 380.999 634.001 382.699 634.001 382.699C634.001 382.699 625.401 386.1 621.101 384.4C616.801 382.7 611.701 378.4 608.201 378.4C604.701 378.4 598.801 379.699 600.501 380.499C602.201 381.399 607.401 383.099 609.101 385.199C609.901 386.199 611.401 386.799 612.901 387.199C613.301 387.299 613.201 387.9 612.801 387.9C610.401 387.9 607.001 387.9 604.801 387.4C600.901 386.5 597.901 386.499 596.701 388.299C595.401 389.999 601.401 391.299 601.401 391.299C601.401 391.299 602.701 394.299 604.401 395.999C606.101 397.699 614.301 399.399 617.301 401.099C620.301 402.799 636.601 404.999 636.601 404.999L704.201 439.999C712.401 444.299 722.301 443.499 729.801 437.999L733.601 435.2L715.301 408.999Z" fill="#FFA79B"/>
<path d="M613.601 388.4C614.701 388.6 615.901 388.7 617.001 388.9C617.801 389 618.201 387.7 617.301 387.6C616.201 387.4 615.001 387.3 613.901 387.1C613.201 387.1 612.801 388.3 613.601 388.4Z" fill="black"/>
<path d="M603.201 392.6C606.801 394.3 610.601 395.3 614.601 395.4C615.401 395.4 615.401 394.1 614.601 394.1C610.801 394 607.201 393.1 603.801 391.5C603.101 391.1 602.501 392.2 603.201 392.6Z" fill="black"/>
<path d="M674.301 755.902C687.201 757.502 680.401 762.302 691.001 760.402C701.601 758.502 701.601 758.502 701.601 758.502L702.401 758.402L700.001 772.002H643.601C641.101 772.002 640.501 768.502 642.801 767.702L674.301 755.902Z" fill="black"/>
<path d="M880.001 772.002H825.701C823.301 772.002 822.601 768.602 824.801 767.702L851.701 756.602C863.301 754.702 863.901 763.702 868.401 759.802C870.201 758.202 872.201 756.402 873.801 754.902L880.001 772.002Z" fill="black"/>
<path d="M854.002 699.302H819.302L796.902 659.702C791.502 650.202 787.902 639.802 786.302 629.002L778.602 577.002L724.402 632.402L712.702 699.302H678.102L682.202 637.702C682.902 627.502 685.802 617.502 690.802 608.502L738.502 523.102H837.502C837.502 523.102 840.002 542.402 839.402 554.902C838.802 567.502 832.302 638.802 832.302 638.802L854.002 699.302Z" fill="#4541FC"/>
<path d="M708.001 726.301L702.401 758.401L701.601 758.501C701.601 758.501 701.601 758.501 691.001 760.401C680.401 762.301 687.101 757.501 674.301 755.901L676.301 726.301H708.001Z" fill="#FFC75D"/>
<path d="M873.802 754.801C872.102 756.401 870.202 758.101 868.402 759.701C863.902 763.601 863.302 754.601 851.702 756.501L834.602 726.301H863.702L873.802 754.801Z" fill="#FFC75D"/>
<path d="M712.701 699.301L708.001 726.301H676.201L678.101 699.301H712.701Z" fill="#FFA79B"/>
<path d="M863.701 726.301H834.601L819.301 699.301H854.001L863.701 726.301Z" fill="#FFA79B"/>
<path d="M768.801 526.001C750.001 553.001 731.201 580.001 712.401 607.001C708.501 612.601 704.101 618.201 701.501 624.601C699.101 630.601 698.801 637.101 698.501 643.501C697.701 660.001 696.901 676.401 696.001 692.901C696.001 693.701 697.301 693.701 697.301 692.901C698.101 677.301 698.901 661.701 699.601 646.101C700.001 638.001 700.101 629.901 703.801 622.501C706.901 616.201 711.501 610.501 715.501 604.801C733.601 578.801 751.701 552.701 769.901 526.701C770.501 526.001 769.301 525.301 768.801 526.001Z" fill="black"/>
<path d="M759.601 525.301C757.201 529.901 756.001 534.801 755.901 539.901C755.901 540.701 757.201 540.701 757.201 539.901C757.301 535.001 758.401 530.301 760.701 526.001C761.101 525.201 760.001 524.601 759.601 525.301Z" fill="black"/>
<path d="M779.901 574.801C784.301 569.701 788.502 564.001 793.302 559.301C796.902 555.801 799.301 556.901 803.401 557.501C805.001 557.801 806.501 557.801 808.101 557.201C808.901 556.901 808.502 555.601 807.802 555.901C803.202 557.501 798.602 553.301 794.302 556.501C791.402 558.601 789.201 562.201 786.901 564.801C784.301 567.801 781.701 570.801 779.101 573.801C778.501 574.501 779.401 575.401 779.901 574.801Z" fill="black"/>
<path d="M792.302 560.502C787.702 608.402 801.602 657.302 830.802 695.602C831.302 696.302 832.402 695.602 831.902 694.902C802.802 656.802 789.002 608.202 793.602 560.502C793.702 559.702 792.402 559.702 792.302 560.502Z" fill="black"/>
<path d="M683.301 685.901C694.001 685.901 704.701 685.901 715.401 685.901C716.201 685.901 716.201 684.601 715.401 684.601C704.701 684.601 694.001 684.601 683.301 684.601C682.401 684.501 682.401 685.901 683.301 685.901Z" fill="black"/>
<path d="M814.401 686.001C825.101 685.401 835.801 684.901 846.501 684.301C847.301 684.301 847.301 682.901 846.501 683.001C835.801 683.601 825.101 684.101 814.401 684.701C813.601 684.701 813.601 686.001 814.401 686.001Z" fill="black"/>
<path d="M786.101 536.702C793.801 536.202 801.501 535.602 809.201 535.102C810.001 535.002 810.001 533.702 809.201 533.802C801.501 534.302 793.801 534.902 786.101 535.402C785.301 535.402 785.301 536.702 786.101 536.702Z" fill="black"/>
<path d="M828.501 536.702C831.101 536.702 833.601 536.702 836.201 536.702C837.001 536.702 837.001 535.402 836.201 535.402C833.601 535.402 831.101 535.402 828.501 535.402C827.701 535.402 827.701 536.702 828.501 536.702Z" fill="black"/>
<path d="M772.001 523.201L838.601 532.701C838.101 527.201 837.601 523.201 837.601 523.201H772.001Z" fill="black"/>
<path d="M550.301 391.602H653.301C669.001 391.602 681.801 378.802 681.801 363.102C681.801 347.402 669.001 334.602 653.301 334.602H550.301C534.601 334.602 521.801 347.402 521.801 363.102C521.801 378.902 534.601 391.602 550.301 391.602Z" fill="#4541FC"/>
<path d="M528.101 364.601C527.301 364.601 526.601 363.901 526.601 363.101C526.601 362.801 526.601 362.501 526.601 362.201C526.601 361.401 527.301 360.701 528.201 360.801C529.001 360.801 529.701 361.501 529.601 362.401C529.601 362.701 529.601 362.901 529.601 363.201C529.601 364.001 528.901 364.601 528.101 364.601Z" fill="white"/>
<path d="M528.801 358.801C528.701 358.801 528.501 358.801 528.401 358.801C527.601 358.601 527.101 357.801 527.301 357.001C530.101 346.201 539.801 338.701 551.001 338.701C551.801 338.701 552.501 339.401 552.501 340.201C552.501 341.001 551.801 341.701 551.001 341.701C541.201 341.701 532.701 348.301 530.201 357.701C530.101 358.401 529.501 358.801 528.801 358.801Z" fill="white"/>
<path d="M552.101 376.602H651.501C659.001 376.602 665.001 370.602 665.001 363.102C665.001 355.602 659.001 349.602 651.501 349.602H552.101C544.601 349.602 538.601 355.602 538.601 363.102C538.601 370.602 544.701 376.602 552.101 376.602Z" fill="#69B4E8"/>
<path d="M797 43.2996C807.549 43.2996 816.1 34.7482 816.1 24.1996C816.1 13.651 807.549 5.09961 797 5.09961C786.452 5.09961 777.9 13.651 777.9 24.1996C777.9 34.7482 786.452 43.2996 797 43.2996Z" stroke="#DCE4F7" stroke-width="4" stroke-miterlimit="10" stroke-linecap="round" stroke-linejoin="round"/>
<path d="M358.1 97.3992C368.649 97.3992 377.2 88.8479 377.2 78.2992C377.2 67.7506 368.649 59.1992 358.1 59.1992C347.551 59.1992 339 67.7506 339 78.2992C339 88.8479 347.551 97.3992 358.1 97.3992Z" stroke="#DCE4F7" stroke-width="4" stroke-miterlimit="10" stroke-linecap="round" stroke-linejoin="round"/>
<path d="M828.6 93.1004C836.387 93.1004 842.7 86.7876 842.7 79.0004C842.7 71.2132 836.387 64.9004 828.6 64.9004C820.813 64.9004 814.5 71.2132 814.5 79.0004C814.5 86.7876 820.813 93.1004 828.6 93.1004Z" stroke="#DCE4F7" stroke-width="4" stroke-miterlimit="10" stroke-linecap="round" stroke-linejoin="round"/>
<path d="M244.701 63.4988C252.488 63.4988 258.801 57.186 258.801 49.3988C258.801 41.6116 252.488 35.2988 244.701 35.2988C236.913 35.2988 230.601 41.6116 230.601 49.3988C230.601 57.186 236.913 63.4988 244.701 63.4988Z" stroke="#DCE4F7" stroke-width="4" stroke-miterlimit="10" stroke-linecap="round" stroke-linejoin="round"/>
<path d="M49.3002 235.8C57.0874 235.8 63.4002 229.487 63.4002 221.7C63.4002 213.912 57.0874 207.6 49.3002 207.6C41.513 207.6 35.2002 213.912 35.2002 221.7C35.2002 229.487 41.513 235.8 49.3002 235.8Z" stroke="#DCE4F7" stroke-width="4" stroke-miterlimit="10" stroke-linecap="round" stroke-linejoin="round"/>
<path d="M315.5 480.8C267.2 480.8 228.1 441.6 228.2 393.4" stroke="#687CCD" stroke-width="3" stroke-miterlimit="10"/>
<path d="M71.1999 89.5991C76.7999 92.0991 82.3999 94.6991 87.9999 97.1991C90.8999 98.4991 93.4999 94.1991 90.4999 92.8991C84.8999 90.3991 79.2999 87.7991 73.6999 85.2991C70.8999 83.8991 68.2999 88.2991 71.1999 89.5991Z" fill="#DCE4F7"/>
<path d="M86.4001 64.4994C90.3001 68.2994 94.1002 72.1994 98.0002 75.9994C100.3 78.2994 103.8 74.6994 101.5 72.4994C97.6002 68.6994 93.8001 64.7994 89.9001 60.9994C87.6001 58.6994 84.1001 62.2994 86.4001 64.4994Z" fill="#DCE4F7"/>
<path d="M108.8 47.4997C110.5 50.8997 112.3 54.2997 114 57.6997C115.5 60.5997 119.8 57.9997 118.3 55.1997C116.6 51.7997 114.8 48.3997 113.1 44.9997C111.7 42.0997 107.4 44.6997 108.8 47.4997Z" fill="#DCE4F7"/>
<path d="M834.2 198.7C840.2 196.6 846.2 194.5 852.2 192.4C855.2 191.3 853.9 186.5 850.9 187.6C844.9 189.7 838.9 191.8 832.9 193.9C829.9 195 831.2 199.8 834.2 198.7Z" fill="#DCE4F7"/>
<path d="M836.3 219.699C842.7 219.199 849.1 218.599 855.6 218.099C858.8 217.799 858.8 212.799 855.6 213.099C849.2 213.599 842.8 214.199 836.3 214.699C833.1 214.999 833 219.999 836.3 219.699Z" fill="#DCE4F7"/>
<path d="M835.2 248.599C841.7 252.199 848.3 255.899 854.8 259.499C857.6 261.099 860.1 256.799 857.3 255.199C850.8 251.599 844.2 247.899 837.7 244.299C834.9 242.799 832.3 247.099 835.2 248.599Z" fill="#DCE4F7"/>
<path d="M27.6002 351.999C34.0002 352.599 40.4002 353.099 46.9002 353.699C50.1002 353.999 50.1002 348.999 46.9002 348.699C40.5002 348.099 34.1002 347.599 27.6002 346.999C24.4002 346.699 24.4002 351.699 27.6002 351.999Z" fill="#DCE4F7"/>
<path d="M29.4006 378.699C34.6006 377.199 39.8006 375.599 45.0006 374.099C48.1006 373.199 46.8006 368.399 43.7006 369.299C38.5006 370.799 33.3006 372.399 28.1006 373.899C25.0006 374.799 26.3006 379.599 29.4006 378.699Z" fill="#DCE4F7"/>
<path d="M39.5998 404.199C43.7998 400.799 48.2998 397.799 52.9998 395.199C55.7998 393.699 53.2998 389.399 50.4998 390.899C45.3998 393.699 40.5998 396.999 36.0998 400.699C33.5998 402.699 37.1998 406.199 39.5998 404.199Z" fill="#DCE4F7"/>
<path d="M835.001 348.099C841.201 348.299 846.101 353.199 847.001 359.199C847.401 362.399 852.301 360.999 851.801 357.899C850.601 349.599 843.301 343.399 835.001 343.099C831.801 342.999 831.801 347.999 835.001 348.099Z" fill="#DCE4F7"/>
<path d="M852.2 345.301C856.2 349.201 858.6 353.901 859.6 359.301C860.2 362.501 865 361.101 864.4 358.001C863.3 351.801 860.2 346.201 855.7 341.801C853.4 339.501 849.9 343.001 852.2 345.301Z" fill="#DCE4F7"/>
<path d="M319.801 406.899C317.801 415.899 321.101 424.699 328.401 430.299C331.001 432.299 333.501 427.899 330.901 425.999C325.501 421.899 323.101 414.899 324.601 408.299C325.301 405.099 320.501 403.699 319.801 406.899Z" fill="#DCE4F7"/>
<path d="M305.301 416.5C304.701 423.5 309.501 430 316.201 431.8C319.301 432.6 320.601 427.8 317.501 427C312.801 425.7 309.901 421.3 310.301 416.5C310.601 413.3 305.601 413.3 305.301 416.5Z" fill="#DCE4F7"/>
<path d="M257.8 577.999C263.8 582.399 267.4 589.099 267.8 596.499C268 599.699 273 599.699 272.8 596.499C272.2 587.199 267.8 579.099 260.3 573.699C257.7 571.699 255.2 576.099 257.8 577.999Z" fill="#DCE4F7"/>
<path d="M272.2 578.499C276.1 584.199 278.6 590.399 279.8 597.099C280.4 600.299 285.2 598.899 284.6 595.799C283.3 588.699 280.6 581.999 276.5 575.999C274.7 573.299 270.4 575.799 272.2 578.499Z" fill="#DCE4F7"/>
<path d="M279.5 262.2C279.5 184.8 342.3 122.1 419.7 122.1" stroke="#687CCD" stroke-width="3" stroke-miterlimit="10"/>
</svg>
