<svg width="3051" height="2223" viewBox="0 0 3051 2223" fill="none" xmlns="http://www.w3.org/2000/svg">
<path d="M2810.3 2067.94H265.421C258.937 2067.94 253.681 2073.2 253.681 2079.68V2079.69C253.681 2086.18 258.937 2091.43 265.421 2091.43H2810.3C2816.78 2091.43 2822.04 2086.18 2822.04 2079.69V2079.68C2822.04 2073.2 2816.78 2067.94 2810.3 2067.94Z" fill="#1E3B8C"/>
<path d="M968.57 1947.91C968.57 1947.91 462.49 1945.82 342.93 1374.91C223.37 804.003 746.79 672.484 1009.08 646.094C1271.37 619.704 1593.84 173.013 2208.08 238.963C2822.32 304.913 2960.5 869.963 2868.37 1247.73C2776.24 1625.5 2174.82 1990.18 1609.82 1978.67C1044.82 1967.16 968.57 1947.91 968.57 1947.91Z" fill="#D7E7FF"/>
<path d="M14 1293.79C14 1293.79 223.55 1024.69 642.78 988.403C1062.01 952.113 1634.97 690.063 1888.33 445.403C2141.69 200.743 3037.11 402.333 3037.11 402.333" stroke="white" stroke-width="27" stroke-linecap="round" stroke-linejoin="round"/>
<path d="M145.28 1516.6C145.28 1516.6 382.86 1431.19 767.34 1436.19C1006.87 1439.31 1291.69 1391.83 1546.52 1294.77C1722.35 1227.93 1866.43 1141.2 1974.52 1052.43C2249.8 827.643 2780.35 801.983 3009.74 826.363" stroke="white" stroke-width="27" stroke-linecap="round" stroke-linejoin="round"/>
<path d="M276.57 1739.4C276.57 1739.4 1007.16 2015.63 1640.72 1853.29C2274.28 1690.95 2348.99 1183.1 2982.41 1250.43" stroke="white" stroke-width="27" stroke-linecap="round" stroke-linejoin="round"/>
<path opacity="0.58" d="M1917.09 508.373V938.283C1917.09 955.729 1924.02 972.46 1936.36 984.797C1948.69 997.133 1965.42 1004.06 1982.87 1004.06H2792.97C2801.61 1004.06 2810.16 1002.36 2818.14 999.056C2826.12 995.75 2833.38 990.905 2839.48 984.797C2845.59 978.688 2850.44 971.437 2853.74 963.456C2857.05 955.475 2858.75 946.921 2858.75 938.283V508.373H1917.09Z" fill="#697BE8"/>
<path d="M2737.49 725.983L2820.3 704.143C2799.21 617.993 2721.5 554.073 2628.86 554.073V639.673C2654.05 639.674 2678.51 648.206 2698.23 663.878C2717.96 679.551 2731.79 701.441 2737.49 725.983Z" fill="#FD8F92"/>
<path d="M2517.38 751.153C2517.38 721.594 2529.12 693.245 2550.02 672.339C2570.92 651.434 2599.26 639.684 2628.82 639.673V554.073C2519.98 554.073 2431.74 642.313 2431.74 751.153C2431.68 797.35 2447.9 842.09 2477.57 877.503L2541.73 820.733C2525.92 800.991 2517.33 776.443 2517.38 751.153V751.153Z" fill="white"/>
<path d="M2820.3 704.144L2737.49 725.984C2739.4 734.271 2740.35 742.749 2740.34 751.254C2740.29 812.864 2689.52 863.144 2627.92 862.624C2611.35 862.501 2595.01 858.677 2580.1 851.429C2565.2 844.181 2552.1 833.694 2541.77 820.734L2477.61 877.504C2506.19 911.644 2545.48 935.107 2589.09 944.073C2632.7 953.039 2678.06 946.98 2717.78 926.882C2757.51 906.785 2789.27 873.833 2807.88 833.389C2826.5 792.945 2830.87 747.392 2820.3 704.144Z" fill="#FCD6D6"/>
<path d="M2858.75 455.143C2858.75 437.697 2851.82 420.966 2839.48 408.63C2827.15 396.294 2810.42 389.363 2792.97 389.363H1982.87C1965.42 389.363 1948.69 396.294 1936.36 408.63C1924.02 420.966 1917.09 437.697 1917.09 455.143V508.373H2858.75V455.143Z" fill="#3726DB"/>
<path d="M2556.09 470.594C2568.99 470.594 2579.44 460.139 2579.44 447.244C2579.44 434.348 2568.99 423.894 2556.09 423.894C2543.19 423.894 2532.74 434.348 2532.74 447.244C2532.74 460.139 2543.19 470.594 2556.09 470.594Z" fill="white"/>
<path d="M2664.22 470.594C2677.12 470.594 2687.57 460.139 2687.57 447.244C2687.57 434.348 2677.12 423.894 2664.22 423.894C2651.32 423.894 2640.87 434.348 2640.87 447.244C2640.87 460.139 2651.32 470.594 2664.22 470.594Z" fill="white"/>
<path d="M2772.35 470.594C2785.25 470.594 2795.7 460.139 2795.7 447.244C2795.7 434.348 2785.25 423.894 2772.35 423.894C2759.45 423.894 2749 434.348 2749 447.244C2749 460.139 2759.45 470.594 2772.35 470.594Z" fill="white"/>
<path d="M2364.17 582.263H2027.39C2014.27 582.263 2003.64 592.896 2003.64 606.013V606.023C2003.64 619.139 2014.27 629.773 2027.39 629.773H2364.17C2377.29 629.773 2387.92 619.139 2387.92 606.023V606.013C2387.92 592.896 2377.29 582.263 2364.17 582.263Z" fill="#FFE3E3"/>
<path d="M2364.17 680.383H2027.39C2014.27 680.383 2003.64 691.016 2003.64 704.133V704.143C2003.64 717.26 2014.27 727.893 2027.39 727.893H2364.17C2377.29 727.893 2387.92 717.26 2387.92 704.143V704.133C2387.92 691.016 2377.29 680.383 2364.17 680.383Z" fill="#FFE3E3"/>
<path d="M2364.17 778.503H2027.39C2014.27 778.503 2003.64 789.136 2003.64 802.253V802.263C2003.64 815.38 2014.27 826.013 2027.39 826.013H2364.17C2377.29 826.013 2387.92 815.38 2387.92 802.263V802.253C2387.92 789.136 2377.29 778.503 2364.17 778.503Z" fill="#FFE3E3"/>
<path d="M2364.17 876.623H2027.39C2014.27 876.623 2003.64 887.256 2003.64 900.373V900.383C2003.64 913.5 2014.27 924.133 2027.39 924.133H2364.17C2377.29 924.133 2387.92 913.5 2387.92 900.383V900.373C2387.92 887.256 2377.29 876.623 2364.17 876.623Z" fill="#FFE3E3"/>
<path d="M2534.37 650.003C2534.77 650.003 2535.15 649.845 2535.43 649.564C2535.71 649.282 2535.87 648.901 2535.87 648.503C2535.87 648.105 2535.71 647.724 2535.43 647.442C2535.15 647.161 2534.77 647.003 2534.37 647.003C2533.97 647.003 2533.59 647.161 2533.31 647.442C2533.03 647.724 2532.87 648.105 2532.87 648.503C2532.87 648.901 2533.03 649.282 2533.31 649.564C2533.59 649.845 2533.97 650.003 2534.37 650.003V650.003Z" fill="#505FD1"/>
<path d="M800.16 2091.11C800.16 2091.11 868.64 1513.97 365.16 1245.28C365.13 1245.28 334.92 1816.24 800.16 2091.11Z" fill="#A4B2F7"/>
<path d="M803.3 2105.75C802.54 2105.75 801.797 2105.52 801.171 2105.09C800.544 2104.66 800.063 2104.05 799.79 2103.34C711.4 1873.08 619.27 1689.74 557.55 1576.49C490.67 1453.77 444.09 1384.62 443.63 1383.94C443.07 1383.12 442.862 1382.1 443.05 1381.12C443.239 1380.14 443.809 1379.28 444.635 1378.72C445.461 1378.16 446.476 1377.95 447.455 1378.14C448.435 1378.33 449.3 1378.9 449.86 1379.72C450.32 1380.41 497.05 1449.78 564.09 1572.78C625.93 1686.25 718.25 1869.94 806.8 2100.64C807.019 2101.21 807.096 2101.82 807.025 2102.43C806.954 2103.04 806.737 2103.61 806.393 2104.12C806.048 2104.62 805.587 2105.03 805.048 2105.32C804.509 2105.6 803.909 2105.75 803.3 2105.75V2105.75Z" fill="white"/>
<path d="M781.131 2088.02C781.131 2088.02 752.281 2063.15 724.661 1984.76C696.021 1903.45 663.131 1812.06 545.841 1666.5C428.551 1520.94 296.611 1418.95 217.541 1459.18C138.471 1499.41 298.541 1541.18 268.451 1600.32C238.361 1659.46 231.691 1717.98 331.241 1777.32C430.791 1836.66 325.401 1891.93 407.311 1951.46C489.221 2010.99 510.751 1973.09 605.311 2011.46C699.871 2049.83 781.131 2088.02 781.131 2088.02Z" fill="#8491EF"/>
<g opacity="0.69">
<path opacity="0.69" d="M754.75 2079.55C617.13 1812.19 496.99 1669.55 420.43 1596.94C337.96 1518.74 287.69 1503.28 287.19 1503.13L289.59 1495.02C291.7 1495.65 342.32 1511.21 426.25 1590.81C475.31 1637.33 525.65 1696.26 575.87 1765.97C638.57 1852.97 701.28 1957.21 762.27 2075.68L754.75 2079.55Z" fill="#3147AF"/>
</g>
<path d="M1273.43 215.517L1052.64 305.218L1084.06 382.577L1304.86 292.877L1273.43 215.517Z" fill="#CC1944"/>
<path d="M1366.72 28.4474L861.252 233.8C822.58 249.511 803.967 293.597 819.678 332.269C835.389 370.941 879.475 389.555 918.147 373.844L1423.62 168.492C1462.29 152.781 1480.9 108.694 1465.19 70.0222C1449.48 31.3501 1405.39 12.7364 1366.72 28.4474Z" fill="#E96565"/>
<path d="M1456.7 1703.96C1850.92 1703.96 2170.5 1384.38 2170.5 990.163C2170.5 595.942 1850.92 276.363 1456.7 276.363C1062.48 276.363 742.9 595.942 742.9 990.163C742.9 1384.38 1062.48 1703.96 1456.7 1703.96Z" fill="url(#paint0_linear_56_244)"/>
<path d="M1456.7 1583.17C1784.21 1583.17 2049.71 1317.67 2049.71 990.163C2049.71 662.653 1784.21 397.153 1456.7 397.153C1129.19 397.153 863.69 662.653 863.69 990.163C863.69 1317.67 1129.19 1583.17 1456.7 1583.17Z" fill="url(#paint1_linear_56_244)"/>
<path d="M1452.07 1529.04C1759.79 1529.04 2009.24 1279.59 2009.24 971.873C2009.24 664.157 1759.79 414.703 1452.07 414.703C1144.35 414.703 894.9 664.157 894.9 971.873C894.9 1279.59 1144.35 1529.04 1452.07 1529.04Z" fill="#FFE3E3"/>
<path opacity="0.37" d="M1035.82 1365.13C1035.82 1365.13 1148.22 1236.58 1186.74 1229.02C1225.26 1221.46 1477.74 1282.28 1549.24 1247.37C1620.74 1212.46 1581.15 1113.02 1491.04 1073.55C1400.93 1034.08 1103.19 906.762 1103.19 906.762L1041.19 791.352L1457.19 1020.35L1729.43 607.982L1744.83 607.792L1745.83 616.593L1666.52 763.172C1666.52 763.172 1667.35 980.172 1679.82 1004.02C1692.29 1027.87 1818.67 902.892 1815.34 809.022C1812.01 715.152 1789.57 700.222 1787.08 654.502C1784.59 608.782 1864.08 559.062 1864.08 559.062L1971.68 629.693L2079.68 879.912L2086.94 1261.7L1706.15 1511.91L1388.82 1668.2L1078.41 1595.55L1035.82 1365.13Z" fill="#A8A5C4"/>
<g opacity="0.43">
<path opacity="0.43" d="M1461.82 1315.69C1382.46 1315.7 1305.56 1288.18 1244.22 1237.84C1182.87 1187.5 1140.88 1117.45 1125.4 1039.62C1109.91 961.785 1121.9 880.993 1159.3 811.007C1196.71 741.021 1257.23 686.17 1330.55 655.802C1403.86 625.434 1485.44 621.427 1561.38 644.464C1637.32 667.501 1702.92 716.157 1747 782.141C1791.09 848.124 1810.93 927.353 1803.15 1006.33C1795.37 1085.3 1760.45 1159.13 1704.33 1215.24C1672.56 1247.19 1634.76 1272.52 1593.14 1289.76C1551.51 1307 1506.88 1315.82 1461.82 1315.69V1315.69ZM1461.82 657.803C1288.17 657.803 1146.9 799.083 1146.9 972.733C1146.9 1146.38 1288.17 1287.65 1461.82 1287.65C1635.47 1287.65 1776.82 1146.38 1776.82 972.733C1776.82 799.083 1635.49 657.803 1461.82 657.803V657.803Z" fill="white"/>
</g>
<path opacity="0.31" d="M1357.09 327.833L742.9 1541.7L883.39 1609.21L1523.85 342.093L1357.09 327.833Z" fill="white"/>
<path opacity="0.31" d="M1654.5 307.543L1040.3 1521.41L1180.8 1588.92L1821.25 321.803L1654.5 307.543Z" fill="white"/>
<path d="M1032.07 781.493C1032.07 781.493 1086.29 838.643 1106.22 879.053C1106.22 879.053 1368.75 982.483 1463.22 1011.05L1476.01 984.833C1395.3 927.963 1154.57 779.833 1154.57 779.833C1110.48 789.043 1032.07 781.493 1032.07 781.493Z" fill="#BC87F4"/>
<path d="M1057.94 833.763C1057.94 833.763 1282.99 934.303 1355.94 954.573C1428.89 974.843 1449.03 956.573 1449.03 956.573L1484.03 974.813L1427.41 1023.43L1081.91 899.743L1057.94 833.763Z" fill="#9F54F0"/>
<path d="M1748.97 485.373C1748.97 485.373 1689.31 536.813 1647.97 554.793C1647.97 554.793 1486.42 907.563 1453.37 1000.59L1478.95 1014.59C1539.58 936.683 1744.75 607.813 1744.75 607.813C1737.7 563.333 1748.97 485.373 1748.97 485.373Z" fill="#BC87F4"/>
<path d="M1447.1 932.133C1447.1 932.133 1516.92 907.663 1554.35 854.403C1591.78 801.143 1748.97 530.493 1748.97 530.493L1791.16 619.263L1536.36 1002.69L1484.53 1007.69L1434.88 956.943L1447.1 932.133Z" fill="#9F54F0"/>
<path d="M1471.93 1043.84C1494.66 1043.84 1513.08 1025.42 1513.08 1002.69C1513.08 979.966 1494.66 961.543 1471.93 961.543C1449.2 961.543 1430.78 979.966 1430.78 1002.69C1430.78 1025.42 1449.2 1043.84 1471.93 1043.84Z" fill="white"/>
<path opacity="0.38" d="M1430.82 979.644C1430.82 979.644 1440.72 1014.9 1476.08 1014.64C1511.44 1014.38 1513.36 983.644 1513.36 983.644L1530.64 1023.49L1476.08 1055.49L1433.71 1053.49L1415.95 1000.75L1430.82 979.644Z" fill="#FFE6ED"/>
<path d="M1610.88 1101.72L1612.15 1142.72C1612.15 1142.72 1625.88 1148.3 1643.15 1142.15C1660.42 1136 1724.08 1069.62 1724.08 1069.62L1682.88 1020.37L1610.88 1101.72Z" fill="#E88B1C"/>
<path d="M1831.45 890.343C1831.45 890.343 1818.33 884.553 1800.06 895.753C1781.79 906.953 1673.97 1007.6 1673.97 1007.6C1673.97 1007.6 1680.42 1067.14 1730.73 1078.76L1831.45 890.343Z" fill="#FFBBD4"/>
<path d="M879.06 1583.17C879.06 1583.17 843.55 1629.88 830.91 1635.46L838.97 1671.18L881.39 1696.06L934.51 1633.76L879.06 1583.17Z" fill="#FCAE41"/>
<path d="M853.66 1663.1C865.97 1677.16 880.66 1681.43 888.25 1688.02C895.84 1694.61 886.15 1706.79 868.39 1728.54C850.63 1750.29 834.04 1782.19 811.25 1764.69C788.46 1747.19 683.37 1660.31 667.07 1632.64C650.77 1604.97 678.8 1586.02 706.21 1600.64C733.62 1615.26 822.31 1636.17 830.79 1632.75C839.27 1629.33 839.08 1646.45 853.66 1663.1Z" fill="#3D19D1"/>
<path d="M662.131 1595.69C662.131 1595.69 787.891 1727.29 852.421 1768.45L826.9 1783.64L651.9 1647.57C651.9 1647.57 640.9 1608.93 641.79 1608.05C642.68 1607.17 662.131 1595.69 662.131 1595.69Z" fill="#001B8C"/>
<path d="M1548.74 1333.28C1548.74 1333.28 1230.59 1238.61 1177.33 1266.98C1124.07 1295.35 857.74 1583.17 857.74 1583.17C857.74 1583.17 880.24 1665.32 931.61 1668.17C931.61 1668.17 1188.84 1411.92 1240.67 1407.6C1292.5 1403.28 1459.48 1475.26 1548.74 1482.46C1638 1489.66 1667.47 1454.65 1667.47 1454.65L1548.74 1333.28Z" fill="#0B1577"/>
<path d="M871.21 1658.76C871.21 1658.76 1186.73 1420.07 1209.8 1392.03C1232.87 1363.99 1249.71 1326.95 1249.71 1326.95L1567.1 1358.37L1719.23 1425.09L1724.37 1464.94L1604.52 1529.23L1247.82 1443.8L931.05 1707.57L871.21 1658.76Z" fill="#000F56"/>
<path d="M1242.09 1965.36C1242.09 1965.36 1225.18 2021.54 1215.29 2031.19L1235.29 2061.83L1283.74 2070.3L1311.74 1993.3L1242.09 1965.36Z" fill="#FCAE41"/>
<path d="M1246.26 2049.12C1262.72 2057.98 1277.99 2056.84 1287.39 2060.36C1296.79 2063.88 1292 2078.68 1282.97 2105.26C1273.94 2131.84 1269.58 2167.55 1242.1 2159.13C1214.62 2150.71 1085.82 2106.11 1060.82 2085.91C1035.82 2065.71 1055.49 2038.14 1086.27 2042.2C1117.05 2046.26 1207.46 2034.85 1214.21 2028.67C1220.96 2022.49 1226.82 2038.63 1246.26 2049.12Z" fill="#3D19D1"/>
<path d="M1043.26 2053.01C1043.26 2053.01 1207.12 2132.27 1281.98 2148.25L1263.39 2171.41L1051.82 2105.21C1051.82 2105.21 1028.01 2072.86 1028.52 2071.73C1029.03 2070.6 1043.26 2053.01 1043.26 2053.01Z" fill="#001B8C"/>
<path d="M1622.39 1428.76C1622.39 1428.76 1377.06 1593.34 1352.82 1632.21C1328.58 1671.08 1213.82 2009.38 1213.82 2009.38C1213.82 2009.38 1252.17 2051.12 1315.51 2036.73C1315.51 2036.73 1441.08 1732.33 1468.27 1703.86C1495.46 1675.39 1588.57 1635.86 1707.08 1596.22C1825.59 1556.58 1856.82 1511.91 1856.82 1511.91L1622.39 1428.76Z" fill="#0B1577"/>
<path d="M1425.35 1540.91C1425.35 1540.91 1500.66 1530.52 1537.63 1554.21C1574.6 1577.9 1485.63 1646.5 1460.27 1662.71C1434.91 1678.92 1411.21 1734.63 1387.1 1801.56C1362.99 1868.49 1295.1 2050.32 1270.7 2049.74L1407.89 2053.9L1487.7 1724.65L1781.2 1589.33C1781.2 1589.33 1855.92 1550.89 1856.81 1549.22C1857.7 1547.55 1893.44 1501.83 1893.44 1501.83L1841.06 1475.23L1658.98 1418.69L1519.15 1451.18L1425.35 1540.91Z" fill="#000F56"/>
<path d="M1939.21 891.323L1943.21 894.003C1943.21 894.003 2002.88 898.893 2039.02 918.493C2117.22 960.923 2078.55 1077.49 2068.88 1111.4C2059.21 1145.31 2016.3 1249.4 1965.35 1342.04C1939.4 1389.21 1913.76 1446.04 1859.02 1521.12C1859.02 1521.12 1603.02 1515.06 1517.11 1323.99C1517.11 1323.99 1593.27 1284.74 1650.51 1208.86C1718.82 1118.3 1754.9 1004.09 1776.15 962.063C1797.4 920.033 1811.02 886.433 1832.78 887.593C1854.54 888.753 1884.44 888.203 1884.44 888.203L1939.21 891.323Z" fill="white"/>
<path opacity="0.63" d="M2019.51 955.913C2019.51 955.913 1951.84 1097.3 1920.07 1168.15C1888.3 1239 1723.98 1418.01 1656.07 1426.54C1588.16 1435.07 1577.07 1416.04 1577.07 1416.04L1639.46 1537.97L1802.05 1569.24L1918.82 1506.1L2012.82 1309.23L2030.42 1007.07L2019.51 955.913Z" fill="#FFC5D6"/>
<path d="M1719.45 1484.99L1719.23 1470.88C1719.29 1470.16 1719.1 1469.43 1718.7 1468.82C1718.29 1468.22 1717.69 1467.77 1717 1467.54L1462.42 1381.27C1461.87 1381.09 1461.27 1381.05 1460.7 1381.17L1273.3 1420.97C1272.88 1421.06 1272.47 1421.24 1272.12 1421.48C1271.76 1421.73 1271.46 1422.05 1271.23 1422.42C1270.99 1422.79 1270.84 1423.2 1270.77 1423.62C1270.7 1424.05 1270.72 1424.49 1270.82 1424.91L1271.04 1438.29C1270.88 1439.09 1271.02 1439.92 1271.45 1440.62C1271.87 1441.32 1272.54 1441.82 1273.33 1442.04L1471.72 1503.04L1471.99 1503.13L1526.83 1524.81C1527.41 1525.04 1528.05 1525.1 1528.66 1524.98L1716.86 1488.64C1717.67 1488.5 1718.39 1488.05 1718.88 1487.38C1719.37 1486.72 1719.59 1485.9 1719.49 1485.08L1719.45 1484.99Z" fill="#C4334C"/>
<path d="M1471.71 1488.35L1526.55 1510.03C1527.13 1510.26 1527.77 1510.32 1528.38 1510.2L1716.57 1473.91C1717.28 1473.78 1717.93 1473.41 1718.41 1472.86C1718.89 1472.32 1719.17 1471.63 1719.22 1470.91C1719.27 1470.19 1719.08 1469.47 1718.67 1468.87C1718.27 1468.26 1717.68 1467.81 1716.99 1467.58L1492.23 1392.25C1491.67 1392.07 1491.08 1392.03 1490.5 1392.15L1303.11 1431.91C1302.4 1432.07 1301.76 1432.45 1301.29 1433.01C1300.82 1433.57 1300.55 1434.26 1300.52 1434.99C1300.49 1435.72 1300.71 1436.44 1301.13 1437.03C1301.55 1437.62 1302.16 1438.05 1302.86 1438.26L1471.43 1488.26C1471.53 1488.28 1471.62 1488.31 1471.71 1488.35V1488.35Z" fill="#C9415E"/>
<path d="M1537.35 1493.75L1493.91 1276.35C1493.4 1273.79 1492.15 1271.44 1490.33 1269.57C1488.5 1267.7 1486.18 1266.4 1483.63 1265.83L1245.63 1212.24C1243.86 1211.84 1242.03 1211.79 1240.25 1212.12C1238.47 1212.44 1236.77 1213.12 1235.26 1214.12V1214.12C1234.88 1214.38 1234.51 1214.64 1234.15 1214.93L1225.23 1221.46C1223.38 1222.27 1221.74 1223.48 1220.41 1224.99V1224.99C1218.98 1226.6 1217.96 1228.54 1217.44 1230.63C1216.92 1232.71 1216.91 1234.9 1217.41 1236.99L1263.52 1430.12C1264.06 1432.36 1265.15 1434.42 1266.71 1436.12C1268.26 1437.81 1270.23 1439.08 1272.41 1439.8L1507.82 1517.67C1509.63 1518.28 1511.54 1518.5 1513.44 1518.31C1515.34 1518.11 1517.17 1517.51 1518.82 1516.55V1516.55C1519.53 1516.13 1520.2 1515.64 1520.82 1515.1L1530 1508.56C1531.33 1507.87 1532.56 1507 1533.65 1505.96V1505.96C1535.24 1504.4 1536.41 1502.46 1537.05 1500.33C1537.7 1498.2 1537.8 1495.93 1537.35 1493.75V1493.75Z" fill="#F2707C"/>
<path d="M1217.47 1237L1263.58 1430.13C1264.12 1432.37 1265.21 1434.43 1266.77 1436.13C1268.33 1437.82 1270.29 1439.09 1272.47 1439.81L1507.82 1517.67C1510.06 1518.42 1512.46 1518.56 1514.78 1518.08C1517.09 1517.61 1519.24 1516.53 1521.01 1514.97C1522.78 1513.4 1524.11 1511.4 1524.86 1509.16C1525.61 1506.92 1525.77 1504.52 1525.3 1502.2L1481.82 1284.8C1481.31 1282.24 1480.06 1279.88 1478.24 1278.02C1476.42 1276.15 1474.09 1274.85 1471.54 1274.27L1233.54 1220.69C1231.31 1220.2 1228.98 1220.28 1226.79 1220.93C1224.59 1221.57 1222.6 1222.77 1220.99 1224.4C1219.39 1226.03 1218.22 1228.04 1217.6 1230.25C1216.99 1232.45 1216.94 1234.78 1217.47 1237V1237Z" fill="#F49298"/>
<path opacity="0.15" d="M1478.9 1259.14C1478.9 1259.14 1451.61 1392.67 1236.59 1447.51L1348.76 1513.2L1555.28 1554.83L1588.77 1467.2C1588.77 1467.2 1517.45 1289.05 1518.18 1285.93C1518.91 1282.81 1491.52 1256.08 1491.52 1256.08L1478.9 1259.14Z" fill="#B20D60"/>
<path d="M1373.41 1388.8C1389 1384.36 1396.89 1364.12 1391.05 1343.58C1385.2 1323.05 1367.83 1309.99 1352.24 1314.43C1336.66 1318.87 1328.76 1339.11 1334.61 1359.65C1340.46 1380.18 1357.83 1393.23 1373.41 1388.8Z" fill="white"/>
<path d="M1976.72 1141.99C1976.72 1141.99 1934.49 1272.58 1917.88 1288.37C1901.27 1304.16 1723.42 1418.37 1723.42 1418.37C1723.42 1418.37 1669.42 1422.81 1637.09 1456.37C1604.76 1489.93 1626.09 1524.37 1667.25 1507.47C1708.41 1490.57 1744.89 1469.47 1749.68 1453.59C1749.68 1453.59 1846.39 1404.59 1888.24 1381.71C1930.09 1358.83 1974.75 1339.17 1981.69 1326.92C1988.63 1314.67 2047.82 1157.5 2047.82 1157.5L1976.72 1141.99Z" fill="#FFB966"/>
<path d="M2028.58 1156.67C2028.58 1156.67 1988.58 1302.67 1974.65 1314.19C1960.72 1325.71 1746.26 1448.6 1746.26 1448.6C1746.26 1448.6 1735.75 1465.34 1721.51 1470.97C1707.27 1476.6 1633.41 1517.88 1633.41 1517.88L1699.56 1506.18L1771.02 1455.48L1996.3 1336.58L2058.3 1153.12L2028.59 1156.67" fill="#E88B1C"/>
<path d="M1989.55 1022.61C1999.71 983.953 2023.29 945.313 2038.34 939.613C2053.39 933.913 2071.86 934.223 2085.34 965.683C2098.82 997.143 2073.73 1120.91 2059.82 1167.79C2059.82 1167.79 2010.14 1189.1 1964.16 1146.93C1964.15 1146.91 1979.75 1059.91 1989.55 1022.61Z" fill="white"/>
<path opacity="0.63" d="M2060.28 930.123C2060.28 930.123 2075.65 958.243 2068.39 1001.12C2061.13 1044 2025.33 1192.91 2025.33 1192.91L2082.87 1188.77L2114.44 963.323L2060.28 930.123Z" fill="#FFC5D6"/>
<path d="M1855.09 709.173C1855.09 709.173 1808.89 706.113 1805.09 659.173C1801.29 612.233 1836.29 589.633 1860.6 582.483C1883.79 575.673 1912.29 584.923 1911.89 595.123C1911.89 595.123 1942.14 586.203 1994.36 603.123C2046.58 620.043 2066.28 658.663 2062.01 709.523C2057.74 760.383 1982.37 860.873 1954.23 851.753L1941.52 849.913L1939.36 817.333L1948.12 784.543L1932.43 738.403L1855.09 709.173Z" fill="url(#paint2_linear_56_244)"/>
<path opacity="0.56" d="M1796.52 632.833C1796.52 632.833 1805.43 677.323 1861.83 663.243C1918.23 649.163 1928 649.433 1956.89 674.243C1985.78 699.053 1989.36 696.933 1997.42 691.493C2005.48 686.053 1975.2 764.553 2020.86 765.943C2066.52 767.333 2073.7 741.843 2073.7 741.843C2073.7 741.843 2018.3 849.953 2017.27 850.073C2016.24 850.193 1954.5 878.393 1954.5 878.393L1918.76 842.223L1938.95 739.163C1938.95 739.163 1830.08 732.013 1828.58 731.623C1827.08 731.233 1778.76 668.873 1778.76 668.873L1796.52 632.833Z" fill="#101F51"/>
<path d="M1839.16 689.803C1839.16 689.803 1808.95 826.803 1840.6 842.313C1872.25 857.823 1896.92 840.003 1897.6 846.173C1898.28 852.343 1884.37 888.173 1884.37 888.173C1884.37 888.173 1908.03 918.174 1943.14 893.974L1954.2 851.714C1954.2 851.714 1946 837.713 1949.28 823.793C1952.56 809.873 1960.19 803.793 1973.45 801.233C1986.71 798.673 1993.26 789.893 1993.39 776.233C1993.52 762.573 1977.55 753.944 1965.44 761.974C1965.44 761.974 1966.74 735.643 1974.66 719.493C1974.66 719.493 1954.31 721.553 1940.36 707.773C1926.41 693.993 1922.82 683.073 1906.93 678.503C1891.04 673.933 1886.25 685.433 1878.31 688.023C1869.89 690.783 1839.16 689.803 1839.16 689.803Z" fill="#FFB966"/>
<path d="M1829.82 700.773C1829.82 700.773 1859.51 707.973 1877.28 703.863C1895.05 699.753 1909.21 692.923 1919.28 705.483C1929.35 718.043 1952.02 729.023 1959.19 726.483C1959.19 726.483 1947.81 760.613 1957.72 766.773C1967.63 772.933 1988.72 758.543 1988.72 758.543L1989.25 706.893L1928.87 671.063L1869.12 663.463L1843.96 680.463L1829.82 700.773Z" fill="#EA8B1B"/>
<path d="M1889.66 852.083L1896.27 844.872C1896.27 844.872 1931.93 834.282 1940.06 827.982C1940.06 827.982 1907.15 869.112 1888.44 871.852L1889.66 852.083Z" fill="#EA8B1B"/>
<path d="M1685.76 725.913C1703.52 724.973 1715.03 749.913 1697.28 782.053C1675.34 821.783 1657.1 847.843 1656.22 852.313C1656.22 852.313 1683.1 1136.98 1635.46 1147.31C1594.1 1156.31 1593.57 1094.57 1591.92 1059.69C1589.52 1008.82 1613.65 849.633 1613.65 849.633C1613.65 849.633 1600.42 819.923 1615.65 794.483C1639.24 755.283 1668.59 726.823 1685.76 725.913Z" fill="#FFB966"/>
<path d="M1704.43 725.913C1704.43 725.913 1692.51 768.223 1671.73 800.913C1650.95 833.603 1648.95 844.973 1648.95 844.973C1648.95 844.973 1670.72 1119.55 1621.41 1151.97L1640.06 1161.33L1667.47 1133.89C1667.47 1133.89 1693.69 984.003 1693.69 983.803C1693.69 983.603 1664.38 852.323 1664.38 852.323L1689.32 815.253L1715.51 768.483L1704.43 725.913Z" fill="#F4A753"/>
<path d="M1028.76 669.714C1028.76 652.822 1022.05 636.622 1010.11 624.678C998.162 612.734 981.962 606.023 965.071 606.023H344.821C327.929 606.023 311.729 612.734 299.785 624.678C287.841 636.622 281.131 652.822 281.131 669.714V733.913H1028.76V669.714Z" fill="#3726DB"/>
<path opacity="0.39" d="M281.131 733.913V1307.82C281.134 1324.71 287.844 1340.91 299.788 1352.86C311.732 1364.8 327.93 1371.51 344.821 1371.51H965.071C981.962 1371.51 998.16 1364.8 1010.1 1352.86C1022.05 1340.91 1028.76 1324.71 1028.76 1307.82V733.913H281.131Z" fill="#697BE8"/>
<path d="M773.45 691.423C785.302 691.423 794.91 681.815 794.91 669.963C794.91 658.111 785.302 648.503 773.45 648.503C761.598 648.503 751.99 658.111 751.99 669.963C751.99 681.815 761.598 691.423 773.45 691.423Z" fill="white"/>
<path d="M858.891 691.423C870.743 691.423 880.351 681.815 880.351 669.963C880.351 658.111 870.743 648.503 858.891 648.503C847.039 648.503 837.431 658.111 837.431 669.963C837.431 681.815 847.039 691.423 858.891 691.423Z" fill="white"/>
<path d="M944.32 691.423C956.172 691.423 965.78 681.815 965.78 669.963C965.78 658.111 956.172 648.503 944.32 648.503C932.468 648.503 922.86 658.111 922.86 669.963C922.86 681.815 932.468 691.423 944.32 691.423Z" fill="white"/>
<path d="M504.331 778.163H366.981C341.57 778.163 320.971 798.762 320.971 824.173V984.333C320.971 1009.74 341.57 1030.34 366.981 1030.34H504.331C529.741 1030.34 550.341 1009.74 550.341 984.333V824.173C550.341 798.762 529.741 778.163 504.331 778.163Z" fill="white"/>
<path d="M446.51 878.403H421.3C413.701 878.403 407.54 884.564 407.54 892.163V972.113C407.54 979.713 413.701 985.873 421.3 985.873H446.51C454.109 985.873 460.27 979.713 460.27 972.113V892.163C460.27 884.564 454.109 878.403 446.51 878.403Z" fill="url(#paint3_linear_56_244)"/>
<path d="M433.9 863.193C447.37 863.193 458.29 852.273 458.29 838.803C458.29 825.333 447.37 814.413 433.9 814.413C420.43 814.413 409.51 825.333 409.51 838.803C409.51 852.273 420.43 863.193 433.9 863.193Z" fill="url(#paint4_linear_56_244)"/>
<path d="M974.55 832.763H609.03C602.176 832.763 596.62 838.319 596.62 845.173C596.62 852.027 602.176 857.583 609.03 857.583H974.55C981.404 857.583 986.96 852.027 986.96 845.173C986.96 838.319 981.404 832.763 974.55 832.763Z" fill="white"/>
<path d="M974.55 916.603H609.03C602.176 916.603 596.62 922.159 596.62 929.013C596.62 935.866 602.176 941.423 609.03 941.423H974.55C981.404 941.423 986.96 935.866 986.96 929.013C986.96 922.159 981.404 916.603 974.55 916.603Z" fill="white"/>
<path d="M974.55 1000.43H609.03C602.176 1000.43 596.62 1005.99 596.62 1012.84C596.62 1019.7 602.176 1025.25 609.03 1025.25H974.55C981.404 1025.25 986.96 1019.7 986.96 1012.84C986.96 1005.99 981.404 1000.43 974.55 1000.43Z" fill="white"/>
<path opacity="0.77" d="M934.161 1075.94H367.281C341.704 1075.94 320.971 1096.68 320.971 1122.25V1258.72C320.971 1284.3 341.704 1305.03 367.281 1305.03H934.161C959.737 1305.03 980.471 1284.3 980.471 1258.72V1122.25C980.471 1096.68 959.737 1075.94 934.161 1075.94Z" stroke="white" stroke-width="8" stroke-miterlimit="10"/>
<path opacity="0.72" d="M384.361 1217.28H359.601V1277.45H384.361V1217.28Z" fill="white"/>
<path opacity="0.72" d="M464 1239.14H439.24V1277.45H464V1239.14Z" fill="white"/>
<path opacity="0.72" d="M543.641 1214.61H518.881V1277.46H543.641V1214.61Z" fill="white"/>
<path opacity="0.72" d="M623.281 1180.58H598.521V1277.46H623.281V1180.58Z" fill="white"/>
<path opacity="0.72" d="M702.91 1145.9H678.15V1277.46H702.91V1145.9Z" fill="white"/>
<path opacity="0.72" d="M782.55 1166.87H757.79V1277.46H782.55V1166.87Z" fill="white"/>
<path opacity="0.72" d="M862.191 1140.1H837.431V1277.46H862.191V1140.1Z" fill="white"/>
<path opacity="0.72" d="M941.83 1103.51H917.07V1277.45H941.83V1103.51Z" fill="white"/>
<path fill-rule="evenodd" clip-rule="evenodd" d="M1829.32 1886.41C1829.89 1886.7 1830.33 1887.19 1830.58 1887.78C1830.83 1888.37 1830.85 1889.02 1830.66 1889.63C1829.07 1899 1827.52 1908.38 1826.14 1917.77C1826.11 1918.45 1825.85 1919.09 1825.4 1919.59C1824.94 1920.09 1824.33 1920.42 1823.66 1920.51C1809.78 1924.57 1795.91 1928.66 1782.05 1932.77L1778.35 1933.87C1780.83 1957.76 1783.29 1981.55 1785.78 2005.52L1813.23 2007.74C1819.83 2008.27 1826.42 2008.86 1833.02 2009.3C1833.7 2009.28 1834.36 2009.49 1834.89 2009.91C1835.43 2010.33 1835.79 2010.92 1835.93 2011.58C1839.15 2020.34 1842.48 2029.05 1845.93 2037.71C1846.31 2038.38 1846.44 2039.15 1846.3 2039.9C1846.16 2040.65 1845.75 2041.32 1845.16 2041.8C1834.95 2052.41 1824.86 2063.14 1814.65 2073.8C1813.18 2075.33 1812.87 2076.3 1814.25 2078.18C1827.46 2096.24 1840.61 2114.35 1853.69 2132.5L1854.99 2134.25C1857.53 2133.06 1860.05 2131.89 1862.55 2130.7C1874.18 2125.18 1885.84 2119.7 1897.41 2114.08C1899.26 2113.19 1900.26 2113.57 1901.74 2114.8C1908.74 2120.65 1915.93 2126.29 1922.96 2132.11C1923.77 2132.79 1924.64 2134.28 1924.43 2135.11C1921 2149.94 1917.43 2164.74 1913.83 2179.54L1980.28 2209.26C1982.57 2205.93 1984.79 2202.71 1987.01 2199.51C1993.32 2190.38 1999.68 2181.29 2005.9 2172.11C2006.9 2170.58 2007.9 2170.41 2009.61 2170.7C2018.69 2172.27 2027.79 2173.79 2036.92 2175.08C2037.73 2175.09 2038.5 2175.38 2039.11 2175.91C2039.72 2176.44 2040.12 2177.17 2040.24 2177.96C2044.32 2192.03 2048.49 2206.07 2052.64 2220.11C2052.9 2221 2053.2 2221.87 2053.53 2222.92L2125.03 2215.51C2125.15 2214.51 2125.3 2213.51 2125.38 2212.51C2126.56 2197.93 2127.78 2183.34 2128.88 2168.75C2129.03 2166.83 2129.58 2165.92 2131.52 2165.22C2140.12 2162.13 2148.65 2158.84 2157.13 2155.45C2158.94 2154.73 2160 2154.77 2161.46 2156.16C2172.13 2166.44 2182.91 2176.61 2193.64 2186.83C2194.64 2187.83 2195.42 2188.73 2197.11 2187.5C2215.78 2173.86 2234.49 2160.28 2253.25 2146.74C2253.43 2146.55 2253.6 2146.35 2253.74 2146.13C2252.24 2142.95 2250.74 2139.67 2249.16 2136.4C2244 2125.53 2238.87 2114.64 2233.62 2103.82C2232.8 2102.12 2232.99 2101.14 2234.2 2099.69C2240.12 2092.62 2245.93 2085.46 2251.62 2078.2C2251.99 2077.58 2252.57 2077.11 2253.25 2076.87C2253.93 2076.63 2254.67 2076.63 2255.35 2076.88C2269.93 2080.46 2284.54 2083.93 2299.14 2087.42C2299.86 2087.59 2300.6 2087.69 2301.33 2087.82L2330.59 2022.41L2301.23 2001.91C2298.01 1999.67 2294.85 1997.37 2291.56 1995.25C2290.99 1994.97 2290.54 1994.48 2290.29 1993.9C2290.04 1993.31 2290.01 1992.65 2290.2 1992.04C2291.79 1982.67 2293.35 1973.3 2294.73 1963.91C2294.75 1963.24 2295.01 1962.59 2295.45 1962.09C2295.9 1961.58 2296.51 1961.25 2297.18 1961.15C2311.05 1957.1 2324.91 1953.01 2338.77 1948.89L2342.52 1947.79C2340.05 1923.95 2337.58 1900.17 2335.09 1876.15L2316.09 1874.59C2306.71 1873.83 2297.34 1873.04 2287.95 1872.35C2287.27 1872.41 2286.6 1872.22 2286.05 1871.82C2285.5 1871.42 2285.11 1870.84 2284.95 1870.17C2281.68 1861.25 2278.27 1852.38 2274.74 1843.54C2274.06 1841.85 2274.6 1841.03 2275.63 1839.96C2285.79 1829.31 2295.9 1818.6 2306.11 1807.96C2307.65 1806.37 2308.01 1805.37 2306.54 1803.36C2293.47 1785.55 2280.54 1767.63 2267.6 1749.74C2267.06 1749 2266.51 1748.27 2265.85 1747.39C2258.26 1750.99 2250.77 1754.53 2243.29 1758.09C2236.55 1761.29 2229.79 1764.45 2223.1 1767.73C2221.6 1768.47 2220.71 1768.22 2219.45 1767.18C2212.29 1761.24 2205.06 1755.37 2197.75 1749.59C2197.13 1749.22 2196.67 1748.63 2196.43 1747.95C2196.19 1747.27 2196.21 1746.52 2196.46 1745.84C2200.03 1731.27 2203.46 1716.67 2206.99 1702.08C2207.16 1701.36 2207.26 1700.62 2207.39 1699.88L2141.97 1670.63L2119.91 1702.27C2118.26 1704.64 2116.52 1706.96 2115.01 1709.42C2114.08 1710.93 2113.11 1711.26 2111.36 1710.95C2102.28 1709.37 2093.18 1707.84 2084.06 1706.55C2083.22 1706.55 2082.4 1706.25 2081.76 1705.7C2081.12 1705.15 2080.69 1704.39 2080.56 1703.55C2076.43 1689.22 2072.17 1674.92 2067.95 1660.61C2067.8 1660.07 2067.61 1659.55 2067.34 1658.74L1995.75 1666.17C1995.31 1671.47 1994.88 1676.65 1994.46 1681.82C1993.61 1692.31 1992.7 1702.82 1991.96 1713.31C1991.83 1715.14 1991.1 1715.78 1989.49 1716.37C1980.83 1719.56 1972.19 1722.81 1963.64 1726.26C1962.94 1726.65 1962.12 1726.78 1961.33 1726.63C1960.55 1726.47 1959.84 1726.04 1959.34 1725.41C1948.79 1715.28 1938.14 1705.25 1927.6 1695.11C1926 1693.57 1924.99 1693.22 1922.99 1694.69C1905.1 1707.81 1887.11 1720.78 1869.14 1733.8C1868.48 1734.28 1867.83 1734.8 1867.04 1735.38C1870.63 1742.97 1874.18 1750.46 1877.73 1757.94C1880.89 1764.6 1883.98 1771.28 1887.26 1777.88C1888.12 1779.61 1887.81 1780.57 1886.63 1781.99C1880.72 1789.07 1874.92 1796.24 1869.22 1803.48C1868.85 1804.1 1868.27 1804.57 1867.58 1804.81C1866.9 1805.04 1866.16 1805.03 1865.48 1804.77C1850.91 1801.19 1836.31 1797.77 1821.72 1794.24C1820.99 1794.06 1820.25 1793.97 1819.52 1793.84L1790.27 1859.25L1819.63 1879.73C1822.82 1881.99 1826.03 1884.29 1829.32 1886.41Z" fill="#4D86F7"/>
<path fill-rule="evenodd" clip-rule="evenodd" d="M2127.22 1791.75C2209.54 1828.58 2246.38 1925.39 2209.44 2007.75C2172.68 2089.75 2075.91 2126.66 1993.79 2089.94C1911.41 2053.1 1874.49 1956.34 1911.37 1873.94C1948.16 1791.81 2044.95 1754.91 2127.22 1791.75Z" fill="#4D86F7"/>
<path d="M1983.35 2168.72C2130.27 2168.72 2249.37 2049.62 2249.37 1902.7C2249.37 1755.78 2130.27 1636.68 1983.35 1636.68C1836.43 1636.68 1717.33 1755.78 1717.33 1902.7C1717.33 2049.62 1836.43 2168.72 1983.35 2168.72Z" fill="#8FAAF7"/>
<path fill-rule="evenodd" clip-rule="evenodd" d="M2425.08 1507.35C2424.68 1507.48 2424.25 1507.46 2423.86 1507.3C2423.48 1507.14 2423.16 1506.85 2422.97 1506.47C2419.36 1501.39 2415.73 1496.32 2411.97 1491.33C2411.67 1491.01 2411.5 1490.59 2411.48 1490.14C2411.46 1489.7 2411.59 1489.27 2411.86 1488.91C2416.41 1480.59 2420.95 1472.26 2425.47 1463.91C2425.84 1463.21 2426.22 1462.52 2426.67 1461.68L2390.04 1431.91L2376.28 1443.61C2372.97 1446.42 2369.64 1449.21 2366.38 1452.07C2366.08 1452.39 2365.67 1452.6 2365.23 1452.65C2364.79 1452.71 2364.34 1452.6 2363.97 1452.36C2358.42 1449.79 2352.83 1447.29 2347.22 1444.87C2346.74 1444.74 2346.32 1444.44 2346.04 1444.03C2345.75 1443.62 2345.63 1443.12 2345.68 1442.62C2345.49 1432.96 2345.2 1423.31 2345.01 1413.62C2345.01 1412.23 2344.68 1411.62 2343.17 1411.4C2328.67 1409.16 2314.17 1406.82 2299.69 1404.5L2298.27 1404.29C2297.65 1406.02 2297.02 1407.73 2296.41 1409.45C2293.57 1417.45 2290.71 1425.34 2287.95 1433.32C2287.51 1434.59 2286.87 1434.88 2285.61 1435C2279.61 1435.54 2273.7 1436.25 2267.74 1436.81C2267.36 1436.85 2266.98 1436.81 2266.61 1436.68C2266.25 1436.55 2265.92 1436.35 2265.65 1436.08C2260.36 1427.61 2255.17 1419.08 2249.96 1410.56L2205.37 1427.56C2205.85 1430.17 2206.31 1432.69 2206.77 1435.21C2208.07 1442.36 2209.34 1449.53 2210.71 1456.68C2210.84 1457.14 2210.81 1457.63 2210.61 1458.06C2210.42 1458.49 2210.08 1458.84 2209.65 1459.04C2204.7 1462.53 2199.78 1466.04 2194.95 1469.68C2194.57 1470.05 2194.08 1470.28 2193.55 1470.31C2193.02 1470.35 2192.5 1470.2 2192.07 1469.89C2183.66 1465.25 2175.21 1460.68 2166.77 1456.09C2166.24 1455.8 2165.7 1455.53 2165.06 1455.2L2135.34 1491.91C2135.76 1492.45 2136.15 1492.97 2136.57 1493.46C2142.78 1500.78 2148.98 1508.11 2155.24 1515.38C2155.64 1515.73 2155.9 1516.22 2155.98 1516.74C2156.05 1517.27 2155.94 1517.8 2155.65 1518.25C2153.1 1523.67 2150.65 1529.15 2148.3 1534.65C2148.17 1535.16 2147.87 1535.61 2147.44 1535.92C2147.02 1536.23 2146.49 1536.37 2145.97 1536.33C2136.25 1536.51 2126.53 1536.79 2116.82 1537.03C2115.87 1537.03 2115.11 1536.97 2114.9 1538.33C2112.56 1553.31 2110.18 1568.29 2107.77 1583.27C2107.77 1583.44 2107.79 1583.62 2107.83 1583.78C2109.99 1584.56 2112.23 1585.37 2114.46 1586.16C2121.89 1588.81 2129.32 1591.48 2136.78 1594.07C2137.27 1594.18 2137.7 1594.46 2138 1594.86C2138.3 1595.26 2138.45 1595.75 2138.42 1596.25C2138.96 1602.25 2139.59 1608.27 2140.31 1614.3C2140.43 1614.76 2140.39 1615.25 2140.18 1615.68C2139.98 1616.11 2139.63 1616.45 2139.19 1616.64C2130.77 1621.74 2122.39 1626.91 2114 1632.06C2113.58 1632.31 2113.2 1632.61 2112.8 1632.89L2129.56 1676.79L2152.67 1672.67C2155.19 1672.22 2157.73 1671.82 2160.24 1671.28C2160.64 1671.15 2161.07 1671.16 2161.46 1671.32C2161.85 1671.48 2162.17 1671.77 2162.36 1672.14C2165.96 1677.22 2169.59 1682.28 2173.3 1687.28C2173.61 1687.61 2173.79 1688.02 2173.81 1688.47C2173.84 1688.91 2173.71 1689.35 2173.44 1689.7C2168.89 1698.02 2164.36 1706.35 2159.84 1714.7C2159.46 1715.39 2159.08 1716.09 2158.62 1716.95L2195.28 1746.73C2198.51 1744 2201.66 1741.32 2204.81 1738.64C2209.52 1734.64 2214.23 1730.64 2218.91 1726.64C2219.2 1726.3 2219.6 1726.08 2220.04 1726.01C2220.48 1725.95 2220.92 1726.04 2221.3 1726.27C2226.95 1728.89 2232.64 1731.43 2238.38 1733.88C2238.8 1734.02 2239.16 1734.31 2239.39 1734.69C2239.61 1735.07 2239.7 1735.52 2239.63 1735.95C2239.86 1745.61 2240.13 1755.26 2240.32 1764.95C2240.32 1766.4 2240.64 1767.03 2242.25 1767.28C2256.57 1769.48 2270.87 1771.8 2285.18 1774.09L2287.08 1774.37L2292.58 1758.95C2294.22 1754.34 2295.89 1749.74 2297.47 1745.11C2297.57 1744.68 2297.83 1744.3 2298.18 1744.04C2298.54 1743.78 2298.98 1743.65 2299.42 1743.68C2305.5 1743.12 2311.57 1742.48 2317.64 1741.77C2318.1 1741.66 2318.59 1741.71 2319.02 1741.91C2319.44 1742.12 2319.78 1742.48 2319.97 1742.91C2325.08 1751.33 2330.22 1759.72 2335.39 1768.09C2335.64 1768.5 2335.94 1768.89 2336.22 1769.29L2380.12 1752.52L2375.68 1727.61C2375.35 1725.75 2375.08 1723.87 2374.68 1722.03C2374.53 1721.58 2374.55 1721.08 2374.73 1720.64C2374.92 1720.2 2375.25 1719.84 2375.68 1719.62C2380.63 1716.15 2385.55 1712.62 2390.38 1709C2390.78 1708.62 2391.29 1708.39 2391.84 1708.35C2392.39 1708.31 2392.94 1708.47 2393.38 1708.79C2401.94 1713.52 2410.55 1718.18 2419.15 1722.86L2420.29 1723.44L2450.05 1686.8L2443.39 1678.94C2438.92 1673.68 2434.47 1668.39 2429.95 1663.18C2429.61 1662.86 2429.39 1662.42 2429.34 1661.95C2429.29 1661.48 2429.41 1661.01 2429.67 1660.61C2432.21 1655.12 2434.67 1649.61 2437.07 1644.04C2437.22 1643.54 2437.54 1643.1 2437.97 1642.81C2438.41 1642.51 2438.94 1642.38 2439.46 1642.44C2449.05 1642.25 2458.64 1641.95 2468.23 1641.77C2469.69 1641.77 2470.32 1641.43 2470.56 1639.83C2472.78 1625.45 2475.11 1611.09 2477.4 1596.72C2477.48 1596.19 2477.55 1595.65 2477.64 1595.01L2462.22 1589.51C2457.67 1587.88 2453.13 1586.22 2448.55 1584.68C2448.06 1584.57 2447.64 1584.28 2447.34 1583.88C2447.05 1583.48 2446.9 1582.98 2446.94 1582.48C2446.4 1576.48 2445.77 1570.48 2445.05 1564.48C2444.93 1564.02 2444.98 1563.54 2445.19 1563.11C2445.4 1562.68 2445.75 1562.34 2446.19 1562.15C2454.6 1557.05 2462.98 1551.89 2471.37 1546.74C2471.78 1546.48 2472.17 1546.18 2472.57 1545.9L2455.8 1502L2432.69 1506.12C2430.13 1506.41 2427.59 1506.81 2425.08 1507.35Z" fill="#4D86F7"/>
<path fill-rule="evenodd" clip-rule="evenodd" d="M2330.82 1689.4C2317.66 1694.41 2303.65 1696.78 2289.58 1696.37C2275.5 1695.96 2261.65 1692.78 2248.8 1687.02C2235.96 1681.25 2224.38 1673.02 2214.72 1662.77C2205.06 1652.53 2197.51 1640.49 2192.5 1627.33C2171.5 1572.24 2199.28 1510.27 2254.39 1489.21C2267.54 1484.19 2281.54 1481.81 2295.6 1482.21C2309.67 1482.6 2323.52 1485.76 2336.36 1491.51C2349.2 1497.25 2360.79 1505.47 2370.46 1515.7C2380.12 1525.92 2387.68 1537.95 2392.7 1551.09C2397.72 1564.24 2400.1 1578.24 2399.71 1592.31C2399.31 1606.37 2396.15 1620.22 2390.41 1633.06C2384.66 1645.91 2376.44 1657.49 2366.22 1667.16C2355.99 1676.83 2343.97 1684.38 2330.82 1689.4V1689.4Z" fill="#4D86F7"/>
<path d="M2269.77 1736.73C2360.17 1736.73 2433.46 1663.45 2433.46 1573.04C2433.46 1482.64 2360.17 1409.35 2269.77 1409.35C2179.37 1409.35 2106.08 1482.64 2106.08 1573.04C2106.08 1663.45 2179.37 1736.73 2269.77 1736.73Z" fill="#90AAF4"/>
<path d="M668.591 1783.24V1790.32C668.591 1816.63 668.921 1842.95 668.391 1869.25C668.211 1877.88 665.871 1886.47 664.321 1895.05C664.041 1896.63 662.811 1898.05 661.571 1900.37C658.961 1897.91 656.661 1895.94 654.571 1893.75C641.021 1879.46 624.671 1873.39 605.291 1877.97C594.695 1880.5 585.256 1886.51 578.49 1895.05C571.723 1903.59 568.022 1914.15 567.981 1925.04C567.791 1947.95 582.441 1967.5 604.401 1973.28C621.861 1977.88 637.151 1973.28 650.571 1961.66C652.221 1960.23 653.571 1958.46 655.231 1957.03C657.171 1955.35 659.291 1953.86 661.331 1952.29C662.751 1954.78 664.871 1957.11 665.451 1959.77C666.861 1966.17 668.321 1972.71 668.391 1979.2C668.691 2008.64 668.521 2038.08 668.521 2067.94H383.521V1783.25H388.821C414.971 1783.25 441.131 1783.32 467.281 1783.2C479.201 1783.14 491.051 1782.2 502.211 1777.45C504.794 1776.35 507.197 1774.86 509.341 1773.04C516.691 1766.77 517.721 1758.26 511.931 1750.52C509.358 1747.38 506.561 1744.42 503.561 1741.68C486.801 1724.97 488.991 1699.42 508.221 1687.6C522.121 1679.05 540.861 1681.82 551.411 1693.98C562.551 1706.84 562.691 1725.05 551.551 1738.24C548.551 1741.82 544.811 1744.8 541.771 1748.36C533.071 1758.58 534.901 1770.12 547.041 1775.85C554.202 1779.32 561.955 1781.4 569.891 1781.98C590.341 1783.1 610.891 1782.98 631.361 1783.21C643.521 1783.36 655.721 1783.24 668.591 1783.24Z" fill="#F46E7E"/>
<path d="M630.821 2083.18C637.371 2065.82 643.921 2049.1 650.001 2032.18C655.651 2016.47 661.201 2000.7 666.001 1984.71C667.553 1978.82 667.893 1972.68 667.001 1966.65C665.241 1953.01 654.771 1947.44 642.001 1952.53C636.501 1954.72 631.141 1957.47 625.441 1958.89C607.951 1963.25 591.101 1952.55 586.021 1934.34C581.471 1918.02 591.611 1899.4 607.881 1894.21C626.151 1888.37 643.271 1896.73 650.881 1915.12C652.157 1918.48 653.73 1921.72 655.581 1924.79C661.341 1933.79 671.521 1935.94 679.811 1929.23C684.681 1925.29 689.461 1920.34 692.161 1914.81C699.071 1900.67 705.081 1886.07 710.911 1871.45C718.071 1853.45 724.681 1835.28 731.721 1816.69C733.981 1817.48 736.001 1818.14 737.981 1818.89C764.121 1828.83 790.331 1838.58 816.331 1848.89C822.641 1851.39 828.331 1855.59 834.091 1859.26C835.821 1860.35 837.001 1862.32 839.091 1864.61C835.351 1866.3 832.441 1867.61 829.511 1868.93C810.991 1877.13 799.361 1890.93 797.811 1911.35C796.341 1930.68 804.481 1946.11 820.811 1956.68C829.527 1962.21 839.771 1964.84 850.074 1964.19C860.377 1963.54 870.209 1959.65 878.161 1953.06C894.901 1939.06 900.551 1917.16 892.561 1897.06C891.241 1893.72 889.561 1890.51 888.111 1887.23C886.191 1883.02 886.901 1881.3 891.441 1881.82C899.441 1882.73 907.781 1883.48 915.291 1886.18C942.351 1895.86 969.121 1906.32 995.991 1916.5C996.701 1916.77 997.361 1917.17 998.341 1917.66C964.761 2006.44 931.168 2095.23 897.561 2184.03L630.821 2083.18Z" fill="#F7C4C4"/>
<defs>
<linearGradient id="paint0_linear_56_244" x1="742.9" y1="990.163" x2="2170.5" y2="990.163" gradientUnits="userSpaceOnUse">
<stop stop-color="#FF9497"/>
<stop offset="1" stop-color="#E86464"/>
</linearGradient>
<linearGradient id="paint1_linear_56_244" x1="425.44" y1="223.483" x2="1962.91" y2="1366.5" gradientUnits="userSpaceOnUse">
<stop stop-color="#FF9497"/>
<stop offset="1" stop-color="#C62D37"/>
</linearGradient>
<linearGradient id="paint2_linear_56_244" x1="1804.8" y1="716.213" x2="2062.57" y2="716.213" gradientUnits="userSpaceOnUse">
<stop stop-color="#605FE1"/>
<stop offset="1" stop-color="#3449BC"/>
</linearGradient>
<linearGradient id="paint3_linear_56_244" x1="63826.9" y1="148030" x2="66607.4" y2="148030" gradientUnits="userSpaceOnUse">
<stop stop-color="#FF9497"/>
<stop offset="1" stop-color="#E86464"/>
</linearGradient>
<linearGradient id="paint4_linear_56_244" x1="59174.3" y1="63052.4" x2="61554.3" y2="63052.4" gradientUnits="userSpaceOnUse">
<stop stop-color="#FF9497"/>
<stop offset="1" stop-color="#E86464"/>
</linearGradient>
</defs>
</svg>
