<svg width="1645" height="1448" viewBox="0 0 1645 1448" fill="none" xmlns="http://www.w3.org/2000/svg">
<path d="M807.181 698.692C840.14 639.826 818.775 569.824 803.575 505.458C788.724 442.648 780.413 378.47 778.775 313.949C778.009 283.387 779.275 251.094 797.307 225.075C814.95 199.612 845.835 184.199 875.749 170.563C992.992 117.119 1132.04 73.729 1253.73 118.607C1338.38 149.822 1400.98 224.026 1411.07 305.092C1421.16 386.158 1378.31 470.759 1303.39 517.706C1261.92 543.693 1211.79 558.837 1175.39 590.276C1115.53 641.982 1109.62 735.343 1162.59 792.704C1201.78 835.156 1263.05 854.848 1316.2 882.796C1397.58 925.587 1463.47 991.307 1502.03 1068.12C1524.31 1112.51 1536.47 1167.3 1505.94 1207.61C1455.81 1273.83 1338.31 1249.55 1265.65 1202.71C1193 1155.88 1122.1 1090.53 1032.49 1094.13C977.647 1096.33 929.29 1124.79 881.722 1149.18C790.605 1195.7 693.742 1229.97 593.648 1251.11C516.701 1267.45 435.727 1276.14 358.715 1260.05C281.703 1243.96 208.959 1199.65 179.164 1134.41C139.37 1047.29 187.633 941.533 273.293 886.485C415.997 794.779 715.276 862.834 807.181 698.692Z" fill="#9FC9E6"/>
<path d="M643.055 447.5C637.936 509.445 612.729 572.5 560.482 613.668C493.093 666.768 395.694 674.168 305.72 675.835C229.22 677.251 173.236 674.178 121.099 651.951C70.861 630.533 57.945 608.86 54.268 601.971C32.774 561.692 49.768 507.043 86.192 481.543C99.892 471.952 127.613 468.155 182.492 460.955C242.74 453.049 267.563 453.812 309.346 440.043C354.239 425.249 362.681 412.143 365.275 407.424C375.998 387.909 364.241 370.713 353.916 337.17C345.18 308.787 324.053 240.153 353.703 187.67C359.595 177.241 379.469 146.252 417.397 134.145C493.658 109.802 576.523 182.99 582.314 188.238C675.608 272.782 646.467 406.216 643.055 447.5Z" fill="#9FC9E6"/>
<path d="M1377.27 1056.24H193.504V1447.67H1377.27V1056.24Z" fill="#20557A"/>
<path d="M1395.93 1056.24H174.843C160.306 1056.24 148.522 1068.02 148.522 1082.56C148.522 1097.1 160.306 1108.88 174.843 1108.88H1395.93C1410.47 1108.88 1422.26 1097.1 1422.26 1082.56C1422.26 1068.02 1410.47 1056.24 1395.93 1056.24Z" fill="#2C74A6"/>
<path d="M1113.81 827.224L1053.57 852.679L1051.35 853.593L949.147 896.773V1056.87H599.413L594.45 931.559L594.359 929.203L593.078 896.773L575.808 889.454L573.208 888.334L536.981 872.988H536.958L531.446 870.633L516.603 864.343L510.657 861.828L467.757 843.646L465.035 842.479L430.066 827.659L426.636 826.196L426.887 825.715L460.908 758.27L463.286 753.558L486.82 706.926L487.872 704.826L503.562 673.726L504.682 671.526L511.818 657.37C514.127 652.795 516.627 648.35 519.318 644.036C519.706 643.373 520.118 642.755 520.531 642.115C539.631 612.223 567.666 588.415 601.031 573.615C601.923 573.226 602.815 572.815 603.731 572.449C609.984 569.78 616.374 567.443 622.874 565.449C658.09 554.564 694.244 546.984 730.867 542.808C764.051 538.988 797.549 538.735 830.787 542.053C857.023 544.712 882.908 550.108 908.021 558.153C934.469 566.634 958.664 580.971 978.805 600.097C979.468 600.715 980.132 601.355 980.772 601.997C988.579 609.656 995.675 618.007 1001.97 626.949C1002.43 627.612 1002.89 628.249 1003.32 628.916C1007.91 635.636 1012.03 642.667 1015.65 649.957L1020.89 659.402L1022.05 661.529L1052.42 716.372L1057.68 725.886L1087.81 780.249L1088.97 782.376L1106.1 813.32L1107.27 815.42L1113.81 827.224Z" fill="#FCB913"/>
<path d="M980.777 601.996C978.135 602.701 975.411 603.047 972.677 603.025C958.453 603.025 951.317 594.701 944.41 586.625C937.549 578.598 931.076 571.005 917.903 571.005C904.73 571.005 898.235 578.598 891.374 586.625C884.467 594.699 877.331 603.025 863.106 603.025C848.881 603.025 841.744 594.701 834.837 586.625C827.976 578.598 821.482 571.005 808.331 571.005C795.158 571.005 788.662 578.598 781.801 586.625C774.894 594.699 767.758 603.025 753.534 603.025C739.31 603.025 732.173 594.701 725.265 586.625C718.382 578.598 711.909 571.005 698.736 571.005C685.563 571.005 679.068 578.598 672.207 586.625C665.3 594.699 658.164 603.025 643.939 603.025C629.714 603.025 622.577 594.701 615.67 586.625C611.257 581.48 607.002 576.494 601.034 573.612C601.926 573.223 602.818 572.812 603.734 572.446C609.268 575.625 613.384 580.428 617.41 585.139C624.294 593.166 630.766 600.739 643.94 600.739C657.114 600.739 663.608 593.169 670.469 585.139C677.377 577.066 684.512 568.718 698.737 568.718C712.962 568.718 720.098 577.066 727.005 585.139C733.866 593.166 740.361 600.739 753.535 600.739C766.709 600.739 773.18 593.169 780.065 585.139C786.948 577.066 794.106 568.718 808.332 568.718C822.532 568.718 829.67 577.066 836.577 585.139C843.438 593.166 849.933 600.739 863.107 600.739C876.281 600.739 882.752 593.169 889.636 585.139C896.543 577.066 903.679 568.718 917.904 568.718C932.129 568.718 939.265 577.066 946.148 585.139C953.033 593.166 959.506 600.739 972.678 600.739C974.739 600.759 976.796 600.545 978.808 600.099C979.473 600.716 980.137 601.356 980.777 601.996Z" fill="white"/>
<path d="M1003.33 628.915C1002.53 629.807 1001.75 630.721 1000.95 631.636C994.064 639.71 986.906 648.036 972.68 648.036C958.454 648.036 951.32 639.712 944.413 631.636C937.552 623.609 931.079 616.016 917.906 616.016C904.733 616.016 898.238 623.609 891.377 631.636C884.47 639.71 877.334 648.036 863.109 648.036C848.884 648.036 841.747 639.712 834.84 631.636C827.979 623.609 821.485 616.016 808.334 616.016C795.161 616.016 788.665 623.609 781.804 631.636C774.897 639.71 767.761 648.036 753.537 648.036C739.313 648.036 732.176 639.712 725.268 631.636C718.385 623.609 711.912 616.016 698.739 616.016C685.566 616.016 679.071 623.609 672.21 631.636C665.303 639.71 658.167 648.036 643.942 648.036C629.717 648.036 622.58 639.712 615.673 631.636C608.812 623.609 602.318 616.016 589.145 616.016C575.994 616.016 569.498 623.609 562.637 631.636C555.73 639.71 548.594 648.036 534.37 648.036C529.077 648.143 523.862 646.756 519.321 644.036C519.709 643.373 520.121 642.755 520.534 642.115C524.718 644.591 529.509 645.85 534.37 645.751C547.542 645.751 554.015 638.181 560.9 630.151C567.783 622.078 574.919 613.73 589.145 613.73C603.371 613.73 610.505 622.078 617.412 630.151C624.296 638.178 630.768 645.751 643.942 645.751C657.116 645.751 663.61 638.181 670.471 630.151C677.379 622.078 684.514 613.73 698.739 613.73C712.964 613.73 720.1 622.078 727.007 630.151C733.868 638.178 740.363 645.751 753.537 645.751C766.711 645.751 773.182 638.181 780.067 630.151C786.95 622.078 794.108 613.73 808.334 613.73C822.534 613.73 829.672 622.078 836.579 630.151C843.44 638.178 849.935 645.751 863.109 645.751C876.283 645.751 882.754 638.181 889.638 630.151C896.545 622.078 903.681 613.73 917.906 613.73C932.131 613.73 939.267 622.078 946.15 630.151C953.035 638.178 959.508 645.751 972.68 645.751C985.852 645.751 992.349 638.181 999.21 630.151C1000.12 629.076 1001.04 628.001 1001.98 626.951C1002.43 627.611 1002.89 628.252 1003.33 628.915Z" fill="white"/>
<path d="M1022.06 661.528C1012.38 663.266 1006.83 669.807 1000.95 676.645C994.064 684.696 986.906 693.045 972.68 693.045C958.454 693.045 951.32 684.698 944.413 676.645C937.552 668.618 931.079 661.025 917.906 661.025C904.733 661.025 898.238 668.618 891.377 676.645C884.47 684.696 877.334 693.045 863.109 693.045C848.884 693.045 841.747 684.698 834.84 676.645C827.979 668.618 821.485 661.025 808.334 661.025C795.161 661.025 788.665 668.618 781.804 676.645C774.897 684.696 767.761 693.045 753.537 693.045C739.313 693.045 732.176 684.698 725.268 676.645C718.385 668.618 711.912 661.025 698.739 661.025C685.566 661.025 679.071 668.618 672.21 676.645C665.303 684.696 658.167 693.045 643.942 693.045C629.717 693.045 622.58 684.698 615.673 676.645C608.812 668.618 602.318 661.025 589.145 661.025C575.994 661.025 569.498 668.618 562.637 676.645C555.73 684.696 548.594 693.045 534.37 693.045C520.146 693.045 513.009 684.698 506.102 676.645C505.256 675.662 504.409 674.678 503.564 673.718L504.684 671.518C505.759 672.708 506.784 673.943 507.84 675.155C514.701 683.182 521.197 690.755 534.37 690.755C547.543 690.755 554.015 683.185 560.9 675.155C567.783 667.081 574.919 658.734 589.145 658.734C603.371 658.734 610.505 667.081 617.412 675.155C624.296 683.182 630.768 690.755 643.942 690.755C657.116 690.755 663.61 683.185 670.471 675.155C677.379 667.081 684.514 658.734 698.739 658.734C712.964 658.734 720.1 667.081 727.007 675.155C733.868 683.182 740.363 690.755 753.537 690.755C766.711 690.755 773.182 683.185 780.067 675.155C786.95 667.081 794.108 658.734 808.334 658.734C822.534 658.734 829.672 667.081 836.579 675.155C843.44 683.182 849.935 690.755 863.109 690.755C876.283 690.755 882.754 683.185 889.638 675.155C896.545 667.081 903.681 658.734 917.906 658.734C932.131 658.734 939.267 667.081 946.15 675.155C953.035 683.182 959.508 690.755 972.68 690.755C985.852 690.755 992.349 683.185 999.21 675.155C1004.95 668.431 1010.87 661.524 1020.89 659.397L1022.06 661.528Z" fill="white"/>
<path d="M1057.69 725.885C1056.43 724.485 1055.22 723.072 1054.01 721.654C1047.15 713.627 1040.65 706.034 1027.48 706.034C1014.3 706.034 1007.83 713.627 1000.95 721.654C994.064 729.727 986.906 738.054 972.68 738.054C958.454 738.054 951.32 729.729 944.413 721.654C937.552 713.627 931.079 706.034 917.906 706.034C904.733 706.034 898.238 713.627 891.377 721.654C884.47 729.727 877.334 738.054 863.109 738.054C848.884 738.054 841.747 729.729 834.84 721.654C827.979 713.627 821.485 706.034 808.334 706.034C795.161 706.034 788.665 713.627 781.804 721.654C774.897 729.727 767.761 738.054 753.537 738.054C739.313 738.054 732.176 729.729 725.268 721.654C718.385 713.627 711.912 706.034 698.739 706.034C685.566 706.034 679.071 713.627 672.21 721.654C665.303 729.727 658.167 738.054 643.942 738.054C629.717 738.054 622.58 729.729 615.673 721.654C608.812 713.627 602.318 706.034 589.145 706.034C575.994 706.034 569.498 713.627 562.637 721.654C555.73 729.727 548.594 738.054 534.37 738.054C520.146 738.054 513.009 729.729 506.102 721.654C500.636 715.254 495.402 709.121 486.822 706.926L487.874 704.826C496.862 707.341 502.42 713.836 507.84 720.172C514.701 728.199 521.197 735.772 534.37 735.772C547.543 735.772 554.015 728.202 560.9 720.172C567.783 712.098 574.919 703.751 589.145 703.751C603.371 703.751 610.505 712.098 617.412 720.172C624.296 728.199 630.768 735.772 643.942 735.772C657.116 735.772 663.61 728.202 670.471 720.172C677.379 712.098 684.514 703.751 698.739 703.751C712.964 703.751 720.1 712.098 727.007 720.172C733.868 728.199 740.363 735.772 753.537 735.772C766.711 735.772 773.182 728.202 780.067 720.172C786.95 712.098 794.108 703.751 808.334 703.751C822.534 703.751 829.672 712.098 836.579 720.172C843.44 728.199 849.935 735.772 863.109 735.772C876.283 735.772 882.754 728.202 889.638 720.172C896.545 712.098 903.681 703.751 917.906 703.751C932.131 703.751 939.267 712.098 946.15 720.172C953.035 728.199 959.508 735.772 972.68 735.772C985.852 735.772 992.349 728.202 999.21 720.172C1006.12 712.098 1013.25 703.751 1027.48 703.751C1039.46 703.751 1046.44 709.674 1052.43 716.375L1057.69 725.885Z" fill="white"/>
<path d="M1088.98 782.375C1086.77 782.837 1084.53 783.067 1082.28 783.061C1068.05 783.061 1060.92 774.713 1054.01 766.661C1047.15 758.633 1040.65 751.041 1027.48 751.041C1014.31 751.041 1007.83 758.633 1000.95 766.661C994.065 774.711 986.907 783.061 972.681 783.061C958.455 783.061 951.321 774.713 944.414 766.661C937.553 758.633 931.08 751.041 917.907 751.041C904.734 751.041 898.239 758.633 891.378 766.661C884.471 774.711 877.335 783.061 863.11 783.061C848.885 783.061 841.748 774.713 834.841 766.661C827.98 758.633 821.486 751.041 808.335 751.041C795.162 751.041 788.666 758.633 781.805 766.661C774.898 774.711 767.762 783.061 753.538 783.061C739.314 783.061 732.177 774.713 725.269 766.661C718.386 758.633 711.913 751.041 698.74 751.041C685.567 751.041 679.072 758.633 672.211 766.661C665.304 774.711 658.168 783.061 643.943 783.061C629.718 783.061 622.581 774.713 615.674 766.661C608.813 758.633 602.319 751.041 589.146 751.041C575.995 751.041 569.499 758.633 562.638 766.661C555.731 774.711 548.595 783.061 534.371 783.061C520.147 783.061 513.01 774.713 506.103 766.661C499.242 758.633 492.746 751.041 479.573 751.041C472.646 750.914 465.946 753.509 460.911 758.268L463.289 753.556C468.092 750.315 473.78 748.639 479.573 748.756C493.798 748.756 500.934 757.103 507.841 765.177C514.702 773.204 521.198 780.777 534.371 780.777C547.544 780.777 554.016 773.207 560.901 765.177C567.784 757.103 574.92 748.756 589.146 748.756C603.372 748.756 610.506 757.103 617.413 765.177C624.297 773.204 630.769 780.777 643.943 780.777C657.117 780.777 663.611 773.207 670.472 765.177C677.38 757.103 684.515 748.756 698.74 748.756C712.965 748.756 720.101 757.103 727.008 765.177C733.869 773.204 740.364 780.777 753.538 780.777C766.712 780.777 773.183 773.207 780.068 765.177C786.951 757.103 794.109 748.756 808.335 748.756C822.535 748.756 829.673 757.103 836.58 765.177C843.441 773.204 849.936 780.777 863.11 780.777C876.284 780.777 882.755 773.207 889.639 765.177C896.546 757.103 903.682 748.756 917.907 748.756C932.132 748.756 939.268 757.103 946.151 765.177C953.036 773.204 959.509 780.777 972.681 780.777C985.853 780.777 992.35 773.207 999.211 765.177C1006.12 757.103 1013.25 748.756 1027.48 748.756C1041.7 748.756 1048.86 757.103 1055.75 765.177C1062.63 773.204 1069.1 780.777 1082.28 780.777C1084.13 780.785 1085.99 780.609 1087.81 780.251L1088.98 782.375Z" fill="white"/>
<path d="M1107.27 815.423C1101.26 822.123 1094.28 828.07 1082.27 828.07C1068.05 828.07 1060.91 819.745 1054.01 811.67C1047.14 803.643 1040.65 796.05 1027.48 796.05C1014.3 796.05 1007.83 803.643 1000.95 811.67C994.062 819.743 986.904 828.07 972.678 828.07C958.452 828.07 951.318 819.745 944.411 811.67C937.55 803.643 931.077 796.05 917.904 796.05C904.731 796.05 898.236 803.643 891.375 811.67C884.468 819.743 877.332 828.07 863.107 828.07C848.882 828.07 841.745 819.745 834.838 811.67C827.977 803.643 821.483 796.05 808.332 796.05C795.159 796.05 788.663 803.643 781.802 811.67C774.895 819.743 767.759 828.07 753.535 828.07C739.311 828.07 732.174 819.745 725.266 811.67C718.383 803.643 711.91 796.05 698.737 796.05C685.564 796.05 679.069 803.643 672.208 811.67C665.301 819.743 658.165 828.07 643.94 828.07C629.715 828.07 622.578 819.745 615.671 811.67C608.81 803.643 602.316 796.05 589.143 796.05C575.992 796.05 569.496 803.643 562.635 811.67C555.728 819.743 548.592 828.07 534.368 828.07C520.144 828.07 513.007 819.745 506.1 811.67C499.239 803.643 492.743 796.05 479.57 796.05C466.397 796.05 459.902 803.643 453.04 811.67C447.048 818.67 440.874 825.87 430.056 827.656L426.626 826.193L426.877 825.712C438.655 824.958 444.807 817.776 451.303 810.183C458.21 802.11 465.344 793.762 479.57 793.762C493.796 793.762 500.931 802.11 507.838 810.183C514.699 818.211 521.195 825.783 534.368 825.783C547.541 825.783 554.013 818.213 560.898 810.183C567.781 802.11 574.917 793.762 589.143 793.762C603.369 793.762 610.503 802.11 617.41 810.183C624.294 818.211 630.766 825.783 643.94 825.783C657.114 825.783 663.608 818.213 670.469 810.183C677.377 802.11 684.512 793.762 698.737 793.762C712.962 793.762 720.098 802.11 727.005 810.183C733.866 818.211 740.361 825.783 753.535 825.783C766.709 825.783 773.18 818.213 780.065 810.183C786.948 802.11 794.106 793.762 808.332 793.762C822.532 793.762 829.67 802.11 836.577 810.183C843.438 818.211 849.933 825.783 863.107 825.783C876.281 825.783 882.752 818.213 889.636 810.183C896.543 802.11 903.679 793.762 917.904 793.762C932.129 793.762 939.265 802.11 946.148 810.183C953.033 818.211 959.506 825.783 972.678 825.783C985.85 825.783 992.347 818.213 999.208 810.183C1006.12 802.11 1013.25 793.762 1027.48 793.762C1041.7 793.762 1048.86 802.11 1055.74 810.183C1062.63 818.211 1069.1 825.783 1082.27 825.783C1093.71 825.783 1100.11 820.088 1106.1 813.319L1107.27 815.423Z" fill="white"/>
<path d="M1053.57 852.679L1051.35 853.593C1045.34 846.801 1038.94 841.06 1027.48 841.06C1014.31 841.06 1007.83 848.653 1000.95 856.681C994.064 864.731 986.906 873.081 972.68 873.081C958.454 873.081 951.32 864.733 944.413 856.681C937.552 848.653 931.079 841.06 917.906 841.06C904.733 841.06 898.238 848.653 891.377 856.681C884.47 864.731 877.334 873.081 863.109 873.081C848.884 873.081 841.747 864.733 834.84 856.681C827.979 848.653 821.485 841.06 808.334 841.06C795.161 841.06 788.665 848.653 781.804 856.681C774.897 864.731 767.761 873.081 753.537 873.081C739.313 873.081 732.176 864.733 725.268 856.681C718.385 848.653 711.912 841.06 698.739 841.06C685.566 841.06 679.071 848.653 672.21 856.681C665.303 864.731 658.167 873.081 643.942 873.081C629.717 873.081 622.58 864.733 615.673 856.681C608.812 848.653 602.318 841.06 589.145 841.06C575.994 841.06 569.498 848.653 562.637 856.681C556.166 864.228 549.487 872.027 536.977 872.987H536.954C536.131 873.056 535.262 873.079 534.37 873.079C523.209 873.079 516.394 867.933 510.653 861.827C509.075 860.157 507.589 858.419 506.102 856.681C499.241 848.653 492.745 841.06 479.572 841.06C475.484 840.991 471.435 841.876 467.749 843.645L465.027 842.478C469.457 839.964 474.48 838.685 479.572 838.773C493.797 838.773 500.933 847.121 507.84 855.194C510.487 858.493 513.418 861.554 516.599 864.342C520.747 867.972 525.949 870.176 531.442 870.632C532.414 870.744 533.392 870.797 534.37 870.792C547.542 870.792 554.015 863.222 560.9 855.192C567.783 847.119 574.919 838.771 589.145 838.771C603.371 838.771 610.505 847.119 617.412 855.192C624.296 863.22 630.768 870.792 643.942 870.792C657.116 870.792 663.61 863.222 670.471 855.192C677.379 847.119 684.514 838.771 698.739 838.771C712.964 838.771 720.1 847.119 727.007 855.192C733.868 863.22 740.363 870.792 753.537 870.792C766.711 870.792 773.182 863.222 780.067 855.192C786.95 847.119 794.108 838.771 808.334 838.771C822.534 838.771 829.672 847.119 836.579 855.192C843.44 863.22 849.935 870.792 863.109 870.792C876.283 870.792 882.754 863.222 889.638 855.192C896.545 847.119 903.681 838.771 917.906 838.771C932.131 838.771 939.267 847.119 946.15 855.192C953.035 863.22 959.508 870.792 972.68 870.792C985.852 870.792 992.349 863.222 999.21 855.192C1006.12 847.119 1013.25 838.771 1027.48 838.771C1040.22 838.773 1047.28 845.474 1053.57 852.679Z" fill="white"/>
<path d="M949.147 903.634V907.019C947.501 905.28 945.947 903.474 944.413 901.69C937.552 893.662 931.079 886.069 917.906 886.069C904.733 886.069 898.238 893.662 891.377 901.69C884.47 909.74 877.334 918.09 863.109 918.09C848.884 918.09 841.747 909.742 834.84 901.69C827.979 893.662 821.485 886.069 808.334 886.069C795.161 886.069 788.665 893.662 781.804 901.69C774.897 909.74 767.761 918.09 753.537 918.09C739.313 918.09 732.176 909.742 725.268 901.69C718.385 893.662 711.912 886.069 698.739 886.069C685.566 886.069 679.071 893.662 672.21 901.69C665.303 909.74 658.167 918.09 643.942 918.09C629.717 918.09 622.58 909.742 615.673 901.69C608.812 893.662 602.318 886.069 589.145 886.069C584.477 885.976 579.87 887.145 575.811 889.454L573.208 888.334C577.949 885.261 583.5 883.676 589.149 883.783C603.373 883.783 610.509 892.131 617.416 900.204C624.3 908.232 630.772 915.804 643.946 915.804C657.12 915.804 663.614 908.234 670.475 900.204C677.383 892.131 684.518 883.783 698.743 883.783C712.968 883.783 720.104 892.131 727.011 900.204C733.872 908.232 740.367 915.804 753.541 915.804C766.715 915.804 773.186 908.234 780.071 900.204C786.954 892.131 794.112 883.783 808.338 883.783C822.538 883.783 829.676 892.131 836.583 900.204C843.444 908.232 849.939 915.804 863.113 915.804C876.287 915.804 882.758 908.234 889.642 900.204C896.549 892.131 903.685 883.783 917.91 883.783C932.135 883.783 939.271 892.131 946.154 900.204C947.158 901.37 948.14 902.513 949.147 903.634Z" fill="white"/>
<path d="M949.147 948.643V952.027C947.501 950.289 945.947 948.483 944.413 946.699C937.552 938.671 931.079 931.078 917.906 931.078C904.733 931.078 898.238 938.671 891.377 946.699C884.47 954.749 877.334 963.099 863.109 963.099C848.884 963.099 841.747 954.751 834.84 946.699C827.979 938.671 821.485 931.078 808.334 931.078C795.161 931.078 788.665 938.671 781.804 946.699C774.897 954.749 767.761 963.099 753.537 963.099C739.313 963.099 732.176 954.751 725.268 946.699C718.385 938.671 711.912 931.078 698.739 931.078C685.566 931.078 679.071 938.671 672.21 946.699C665.303 954.749 658.167 963.099 643.942 963.099C629.717 963.099 622.58 954.751 615.673 946.699C609.796 939.838 604.194 933.274 594.45 931.559L594.359 929.203C605.222 930.964 611.398 938.191 617.412 945.212C624.296 953.24 630.768 960.812 643.942 960.812C657.116 960.812 663.61 953.242 670.471 945.212C677.379 937.139 684.514 928.791 698.739 928.791C712.964 928.791 720.1 937.139 727.007 945.212C733.868 953.24 740.363 960.812 753.537 960.812C766.711 960.812 773.182 953.242 780.067 945.212C786.95 937.139 794.108 928.791 808.334 928.791C822.534 928.791 829.672 937.139 836.579 945.212C843.44 953.24 849.935 960.812 863.109 960.812C876.283 960.812 882.754 953.242 889.638 945.212C896.545 937.139 903.681 928.791 917.906 928.791C932.131 928.791 939.267 937.139 946.15 945.212C947.158 946.379 948.14 947.522 949.147 948.643Z" fill="white"/>
<path d="M593.078 896.773L415.211 822.072L434.272 783.061L593.078 855.926V896.773Z" fill="#DD9B0A"/>
<path d="M949.147 896.773L1127.41 821.32L1105.24 781.117L949.735 848.749L949.147 896.773Z" fill="#DD9B0A"/>
<path d="M773.058 609.72C772.004 609.52 770.95 609.302 769.94 609.039C764.001 607.581 758.422 604.929 753.541 601.245C748.66 597.561 744.58 592.922 741.55 587.61C736.876 579.529 734.778 570.215 735.535 560.91L739.926 505.624H819.979L820.703 511.924L826.214 559.108C829.771 589.476 803.094 615.428 773.058 609.72Z" fill="#F59060"/>
<path d="M820.708 511.926V511.948C820.708 511.948 788.344 561.348 746.474 528.898C746.474 528.898 739.931 554.126 741.555 587.61C736.881 579.529 734.783 570.215 735.54 560.91L739.931 505.624H819.984L820.708 511.926Z" fill="#090909"/>
<path d="M854.263 415.771C849.94 458.24 835.269 523.004 786.197 530.86C782.062 531.512 777.838 531.337 773.771 530.345C756.564 526.171 715.051 506.253 710.687 411.204C709.981 397.019 712.999 382.896 719.441 370.238C725.883 357.58 735.524 346.828 747.408 339.05C765.68 327.132 789.726 321.35 817.158 339.036C829.834 347.143 840.014 358.608 846.564 372.155C853.115 385.702 855.78 400.8 854.263 415.771V415.771Z" fill="#F59060"/>
<path d="M779.046 475.577C779.969 475.563 780.884 475.409 781.761 475.121C782.195 474.985 782.558 474.682 782.769 474.279C782.98 473.876 783.022 473.406 782.886 472.972C782.75 472.538 782.447 472.175 782.044 471.964C781.641 471.753 781.171 471.711 780.737 471.847C778.48 472.554 777.816 471.834 777.597 471.598C774.14 467.87 779.397 449.051 784.234 436.878C784.394 436.457 784.382 435.99 784.201 435.578C784.019 435.165 783.683 434.841 783.265 434.675C782.846 434.508 782.379 434.513 781.964 434.688C781.549 434.863 781.22 435.195 781.047 435.611C778.967 440.842 768.906 467.272 775.082 473.93C775.587 474.471 776.202 474.898 776.886 475.182C777.569 475.466 778.306 475.601 779.046 475.577V475.577Z" fill="#090909"/>
<path d="M820.327 470.718C828.627 470.169 835.108 465.978 834.802 461.358C834.497 456.738 827.52 453.438 819.22 453.987C810.92 454.536 804.439 458.726 804.744 463.346C805.05 467.966 812.026 471.266 820.327 470.718Z" fill="#FC6D6D"/>
<path d="M832.143 421.178C829.587 419.91 826.911 418.902 824.153 418.171C821.331 417.403 818.431 416.958 815.508 416.843C812.466 416.762 809.431 417.183 806.526 418.089C803.648 419.05 800.981 420.552 798.667 422.514C798.4 422.712 798.18 422.965 798.021 423.257C797.863 423.549 797.77 423.872 797.749 424.204C797.729 424.535 797.781 424.867 797.902 425.177C798.023 425.486 798.21 425.765 798.45 425.995C798.972 426.487 799.652 426.778 800.369 426.813C801.086 426.849 801.792 426.627 802.36 426.189C802.395 426.161 802.429 426.133 802.46 426.104L802.654 425.931C804.308 424.337 806.25 423.073 808.376 422.206C810.66 421.344 813.07 420.863 815.51 420.783C818.076 420.735 820.64 420.975 823.153 421.499C825.679 422.009 828.149 422.765 830.528 423.755L830.612 423.79C831.001 423.963 831.44 423.988 831.846 423.861C832.253 423.734 832.599 423.463 832.82 423.099C832.907 422.929 832.959 422.744 832.972 422.553C832.985 422.363 832.959 422.172 832.896 421.992C832.833 421.812 832.733 421.647 832.604 421.507C832.474 421.367 832.317 421.255 832.143 421.178V421.178Z" fill="#090909"/>
<path d="M817.193 440.968C817.476 437.472 815.842 434.486 813.543 434.3C811.245 434.113 809.151 436.797 808.868 440.294C808.585 443.79 810.219 446.776 812.517 446.962C814.816 447.148 816.91 444.465 817.193 440.968Z" fill="#090909"/>
<path d="M761.816 462.811C762.124 458.192 755.646 453.999 747.348 453.446C739.049 452.894 732.073 456.19 731.765 460.809C731.457 465.428 737.935 469.62 746.234 470.173C754.532 470.726 761.509 467.43 761.816 462.811Z" fill="#FC6D6D"/>
<path d="M734.527 421.178C737.083 419.909 739.76 418.902 742.518 418.171C745.34 417.403 748.24 416.958 751.163 416.843C754.205 416.762 757.24 417.183 760.145 418.089C763.022 419.05 765.69 420.552 768.004 422.514C768.271 422.712 768.491 422.966 768.649 423.258C768.808 423.549 768.9 423.873 768.921 424.204C768.942 424.536 768.889 424.868 768.768 425.177C768.647 425.486 768.46 425.765 768.22 425.995C767.698 426.487 767.018 426.778 766.301 426.813C765.584 426.849 764.878 426.627 764.31 426.189C764.275 426.161 764.242 426.133 764.21 426.104L764.016 425.931C762.362 424.337 760.421 423.073 758.294 422.206C756.01 421.344 753.6 420.863 751.16 420.783C748.594 420.735 746.031 420.975 743.518 421.499C740.992 422.009 738.522 422.765 736.143 423.755L736.059 423.79C735.67 423.963 735.231 423.988 734.824 423.861C734.418 423.734 734.072 423.463 733.851 423.099C733.764 422.929 733.712 422.744 733.699 422.553C733.686 422.363 733.711 422.172 733.775 421.992C733.838 421.813 733.937 421.648 734.067 421.507C734.196 421.367 734.353 421.255 734.527 421.178V421.178Z" fill="#090909"/>
<path d="M754.144 446.973C756.442 446.787 758.076 443.801 757.793 440.305C757.51 436.808 755.417 434.124 753.118 434.311C750.819 434.497 749.185 437.483 749.468 440.979C749.752 444.476 751.845 447.159 754.144 446.973Z" fill="#090909"/>
<path d="M714.771 416.934C711.901 416.934 709.068 417.579 706.481 418.821C703.894 420.063 701.62 421.87 699.825 424.109C698.03 426.349 696.762 428.962 696.113 431.758C695.464 434.553 695.451 437.458 696.076 440.259L699.476 455.525C700.424 459.777 702.793 463.579 706.193 466.304C709.593 469.028 713.819 470.512 718.176 470.511H723.076C723.076 470.511 731.523 433.021 714.771 416.934Z" fill="#F59060"/>
<path d="M851.546 416.934C854.416 416.934 857.249 417.578 859.837 418.82C862.424 420.061 864.7 421.869 866.495 424.108C868.29 426.347 869.559 428.961 870.208 431.757C870.858 434.552 870.871 437.458 870.246 440.259L866.846 455.525C865.898 459.777 863.528 463.579 860.129 466.304C856.729 469.028 852.502 470.512 848.146 470.511H843.246C843.246 470.511 834.794 433.021 851.546 416.934Z" fill="#F59060"/>
<path d="M781.152 501.646C794.359 501.646 804.776 492.275 805.307 491.789L802.992 489.258C802.847 489.389 788.401 502.34 773.129 496.813L771.961 500.039C774.907 501.107 778.018 501.651 781.152 501.646V501.646Z" fill="#090909"/>
<path d="M711.03 417.299L716.611 448.323C716.611 448.323 726.844 423.975 726.844 396.451C769.213 406.351 803.457 404.651 825.699 401.627C849.199 398.427 863.929 396.214 875.299 384.343C901.699 356.768 891.477 296.382 868.827 287.507C853.703 281.581 841.68 302.007 798.65 318.966C777.598 327.205 755.438 332.27 732.897 333.995C728.625 334.142 724.458 335.352 720.771 337.514C703.908 347.689 700.208 379.759 711.03 417.299Z" fill="#090909"/>
<path d="M857.32 393.834L849.192 448.323C849.192 448.323 838.708 422.211 839.408 396.098C840.108 369.985 857.32 393.834 857.32 393.834Z" fill="#090909"/>
<path d="M708.999 458.595L711.815 456.636C703.604 444.836 703.484 438.657 704.83 435.548C706.409 431.902 710.475 431.266 710.647 431.241L710.175 427.841C709.927 427.874 704.075 428.73 701.703 434.135C699.208 439.825 701.661 448.053 708.999 458.595Z" fill="#090909"/>
<path d="M857.318 458.595C864.657 448.053 867.111 439.825 864.618 434.137C862.245 428.737 856.394 427.876 856.146 427.843L855.675 431.243C855.847 431.268 859.912 431.904 861.491 435.55C862.837 438.659 862.718 444.841 854.507 456.638L857.318 458.595Z" fill="#090909"/>
<path d="M1104.41 831.183L1139.72 942.783C1158.18 1001.14 1112.05 1059.86 1047.75 1059.86H734.167L745.66 991.088C748.943 971.442 769.5 958.843 789.76 964.058L856.195 981.158L947.138 962.505L949.738 896.791L1104.41 831.183Z" fill="#F59060"/>
<path d="M1054.26 933.166L946.725 960.896L947.559 964.129L1055.09 936.399L1054.26 933.166Z" fill="#090909"/>
<path d="M949.735 896.79L1108.55 844.247L1104.41 831.183L949.735 896.79Z" fill="#090909"/>
<path d="M438.408 831.183L403.096 942.783C384.631 1001.14 430.761 1059.86 495.07 1059.86H808.651L797.158 991.088C793.874 971.442 773.318 958.843 753.058 964.058L686.623 981.158L595.678 962.504L593.078 896.79L438.408 831.183Z" fill="#F59060"/>
<path d="M488.555 933.17L487.721 936.403L595.26 964.117L596.093 960.883L488.555 933.17Z" fill="#090909"/>
<path d="M593.083 896.79L434.272 844.247L438.406 831.183L593.083 896.79Z" fill="#090909"/>
<path d="M594.753 699.406H591.413V896.79H594.753V699.406Z" fill="#090909"/>
<path d="M951.405 699.406H948.065V896.79H951.405V699.406Z" fill="#090909"/>
<path d="M810.32 1059.86H806.981C806.981 1004.3 794.888 981.635 784.742 972.408C777.096 965.455 770.449 965.996 770.382 966.008L770.066 962.685C770.4 962.654 778.266 962.007 786.989 969.941C797.633 979.618 810.32 1003.08 810.32 1059.86Z" fill="#090909"/>
<path d="M751.308 470.034C736.652 470.034 724.729 456.845 724.729 440.634C724.729 424.423 736.651 411.234 751.308 411.234C765.965 411.234 777.886 424.423 777.886 440.634C777.886 456.845 765.963 470.034 751.308 470.034ZM751.308 416.492C739.553 416.492 729.989 427.321 729.989 440.633C729.989 453.945 739.553 464.773 751.308 464.773C763.063 464.773 772.626 453.944 772.626 440.633C772.626 427.322 763.062 416.495 751.308 416.495V416.492Z" fill="#20557A"/>
<path d="M815.363 470.034C800.708 470.034 788.785 456.845 788.785 440.634C788.785 424.423 800.708 411.234 815.363 411.234C830.018 411.234 841.943 424.423 841.943 440.634C841.943 456.845 830.02 470.034 815.363 470.034ZM815.363 416.492C803.609 416.492 794.045 427.321 794.045 440.633C794.045 453.945 803.609 464.773 815.363 464.773C827.117 464.773 836.683 453.944 836.683 440.633C836.683 427.322 827.119 416.495 815.363 416.495V416.492Z" fill="#20557A"/>
<path d="M790.639 440.92C782.168 437.979 776.591 440.666 776.358 440.781L773.958 436.1C774.266 435.939 781.644 432.227 792.358 435.951L790.639 440.92Z" fill="#20557A"/>
<path d="M852.613 413.72L835.509 427.491L838.808 431.589L855.913 417.818L852.613 413.72Z" fill="#20557A"/>
<path d="M712.462 414.69L709.557 419.078L728.047 431.316L730.951 426.928L712.462 414.69Z" fill="#20557A"/>
<path d="M738.611 522.184L714.482 544.781L758.067 630.882L778.045 610.513L738.611 522.184Z" fill="#DD9B0A"/>
<path d="M821.901 522.184L778.045 610.513L799.973 630.882L846.317 543.976L821.901 522.184Z" fill="#DD9B0A"/>
<path d="M776.316 610.504L773.176 962.648L776.682 962.68L779.823 610.536L776.316 610.504Z" fill="#090909"/>
<path d="M593.382 475.982H194.356C175.735 475.982 160.587 463.47 160.587 448.091V27.891C160.587 12.512 175.735 0 194.356 0H593.382C612.003 0 627.151 12.512 627.151 27.891V448.091C627.151 463.47 612.008 475.982 593.382 475.982ZM194.356 6.662C179.408 6.662 167.247 16.186 167.247 27.892V448.092C167.247 459.798 179.408 469.322 194.356 469.322H593.382C608.33 469.322 620.491 459.798 620.491 448.092V27.892C620.491 16.186 608.33 6.662 593.382 6.662H194.356Z" fill="#BC87F4"/>
<path d="M571.218 80.4941V500.694C571.218 514.255 557.576 525.254 540.779 525.254H141.753C124.938 525.254 111.314 514.254 111.314 500.694V80.4941C111.314 66.9331 124.938 55.9341 141.753 55.9341H540.779C557.576 55.9341 571.218 66.9341 571.218 80.4941Z" fill="#090909"/>
<path d="M571.218 80.5841V128.634H111.318V80.5671C111.318 74.0348 113.913 67.77 118.532 63.1506C123.15 58.5312 129.415 55.9354 135.947 55.9341H546.568C553.106 55.9341 559.375 58.5311 563.998 63.1539C568.621 67.7767 571.218 74.0465 571.218 80.5841V80.5841Z" fill="#BC87F4"/>
<path d="M147.342 99.9251C152.219 99.9251 156.172 95.9718 156.172 91.0951C156.172 86.2185 152.219 82.2651 147.342 82.2651C142.465 82.2651 138.512 86.2185 138.512 91.0951C138.512 95.9718 142.465 99.9251 147.342 99.9251Z" fill="#FF4655"/>
<path d="M172.141 99.9251C177.018 99.9251 180.971 95.9718 180.971 91.0951C180.971 86.2185 177.018 82.2651 172.141 82.2651C167.264 82.2651 163.311 86.2185 163.311 91.0951C163.311 95.9718 167.264 99.9251 172.141 99.9251Z" fill="#6595F7"/>
<path d="M196.939 99.9251C201.816 99.9251 205.769 95.9718 205.769 91.0951C205.769 86.2185 201.816 82.2651 196.939 82.2651C192.062 82.2651 188.109 86.2185 188.109 91.0951C188.109 95.9718 192.062 99.9251 196.939 99.9251Z" fill="#090909"/>
<path d="M263.354 218.873H198.425V229.552H263.354V218.873Z" fill="#FF4655"/>
<path d="M317.119 218.873H276.875V229.552H317.119V218.873Z" fill="#BC87F4"/>
<path d="M372.737 218.873H332.493V229.552H372.737V218.873Z" fill="white"/>
<path d="M434.092 218.873H386.291V229.552H434.092V218.873Z" fill="#BC87F4"/>
<path d="M473.675 218.873H444.047V229.552H473.675V218.873Z" fill="white"/>
<path d="M434.092 384.964H386.291V395.643H434.092V384.964Z" fill="#20557A"/>
<path d="M473.675 384.964H444.047V395.643H473.675V384.964Z" fill="#FF4655"/>
<path d="M370.61 260.396H322.809V271.075H370.61V260.396Z" fill="#BC87F4"/>
<path d="M410.192 260.396H380.564V271.075H410.192V260.396Z" fill="white"/>
<path d="M514.621 218.873H484.993V229.552H514.621V218.873Z" fill="#FF4655"/>
<path d="M540.922 177.152H198.425V188.228H540.922V177.152Z" fill="#FF4655"/>
<path d="M399.656 198.383H198.425V209.459H399.656V198.383Z" fill="#20557A"/>
<path d="M263.354 301.919H198.425V312.598H263.354V301.919Z" fill="#20557A"/>
<path d="M317.119 301.919H276.875V312.598H317.119V301.919Z" fill="white"/>
<path d="M372.737 301.919H332.493V312.598H372.737V301.919Z" fill="#BC87F4"/>
<path d="M357.363 364.474H317.119V375.153H357.363V364.474Z" fill="#FF4655"/>
<path d="M412.981 364.474H372.737V375.153H412.981V364.474Z" fill="white"/>
<path d="M310.222 260.198H198.425V271.274H310.222V260.198Z" fill="#FF4655"/>
<path d="M464.648 281.428H198.425V292.504H464.648V281.428Z" fill="#20557A"/>
<path d="M263.354 384.964H198.425V395.643H263.354V384.964Z" fill="#20557A"/>
<path d="M317.119 384.964H276.875V395.643H317.119V384.964Z" fill="white"/>
<path d="M372.737 384.964H332.493V395.643H372.737V384.964Z" fill="white"/>
<path d="M470.19 343.243H198.425V354.319H470.19V343.243Z" fill="#BC87F4"/>
<path d="M306.84 364.474H198.425V375.55H306.84V364.474Z" fill="#20557A"/>
<path d="M263.354 468.01H198.425V478.689H263.354V468.01Z" fill="#20557A"/>
<path d="M183.433 177.35H143.189V188.029H183.433V177.35Z" fill="#FF4655"/>
<path d="M183.433 260.396H143.189V271.075H183.433V260.396Z" fill="#FF4655"/>
<path d="M183.433 343.442H143.189V354.121H183.433V343.442Z" fill="#BC87F4"/>
<path d="M183.433 426.487H143.189V437.166H183.433V426.487Z" fill="white"/>
<path d="M372.737 468.01H332.493V478.689H372.737V468.01Z" fill="#FF4655"/>
<path d="M317.119 468.01H276.875V478.689H317.119V468.01Z" fill="#BC87F4"/>
<path d="M540.922 426.289H198.425V437.365H540.922V426.289Z" fill="white"/>
<path d="M399.656 447.52H198.425V458.596H399.656V447.52Z" fill="#BC87F4"/>
<path d="M206.137 549.887H63.364C46.5646 549.868 30.4588 543.186 18.5799 531.307C6.70098 519.428 0.0190593 503.322 3.35434e-06 486.522C-0.00537617 469.833 6.46 453.791 18.037 441.769C29.354 429.941 44.506 423.157 59.607 423.157H110.951C111.834 423.157 112.681 423.508 113.306 424.133C113.93 424.757 114.281 425.604 114.281 426.487C114.281 427.37 113.93 428.217 113.306 428.842C112.681 429.466 111.834 429.817 110.951 429.817H59.608C31.403 429.817 6.661 456.317 6.661 486.522C6.67794 501.555 12.6569 515.968 23.2864 526.598C33.9159 537.229 48.328 543.209 63.361 543.227H206.137C207.02 543.227 207.867 543.578 208.492 544.203C209.116 544.827 209.467 545.674 209.467 546.557C209.467 547.44 209.116 548.287 208.492 548.912C207.867 549.536 207.02 549.887 206.137 549.887V549.887Z" fill="#BC87F4"/>
<path d="M266.024 554.229C270.261 554.229 273.696 550.794 273.696 546.557C273.696 542.32 270.261 538.885 266.024 538.885C261.787 538.885 258.352 542.32 258.352 546.557C258.352 550.794 261.787 554.229 266.024 554.229Z" fill="#BC87F4"/>
<path d="M244.079 554.229C248.316 554.229 251.751 550.794 251.751 546.557C251.751 542.32 248.316 538.885 244.079 538.885C239.842 538.885 236.407 542.32 236.407 546.557C236.407 550.794 239.842 554.229 244.079 554.229Z" fill="#BC87F4"/>
<path d="M222.135 554.229C226.372 554.229 229.807 550.794 229.807 546.557C229.807 542.32 226.372 538.885 222.135 538.885C217.898 538.885 214.463 542.32 214.463 546.557C214.463 550.794 217.898 554.229 222.135 554.229Z" fill="#BC87F4"/>
<path d="M1481.9 589.109H1030.06C1025.28 589.104 1020.7 587.202 1017.31 583.822C1013.93 580.441 1012.03 575.857 1012.03 571.076V243.441C1012.03 238.66 1013.93 234.076 1017.31 230.696C1020.7 227.315 1025.28 225.413 1030.06 225.408H1481.9C1486.68 225.413 1491.26 227.315 1494.64 230.696C1498.03 234.076 1499.93 238.66 1499.93 243.441V571.076C1499.93 575.857 1498.03 580.441 1494.64 583.822C1491.26 587.202 1486.68 589.104 1481.9 589.109V589.109ZM1030.06 232.068C1027.04 232.072 1024.15 233.271 1022.02 235.403C1019.89 237.535 1018.69 240.426 1018.69 243.441V571.076C1018.69 574.091 1019.89 576.982 1022.02 579.114C1024.15 581.246 1027.04 582.446 1030.06 582.449H1481.9C1484.91 582.446 1487.81 581.246 1489.94 579.114C1492.07 576.982 1493.27 574.091 1493.27 571.076V243.441C1493.27 240.426 1492.07 237.535 1489.94 235.403C1487.81 233.271 1484.91 232.072 1481.9 232.068H1030.06Z" fill="#BC87F4"/>
<path d="M1529.91 276.744V604.379C1529.91 608.277 1528.36 612.015 1525.6 614.771C1522.84 617.528 1519.11 619.077 1515.21 619.079H1063.36C1059.47 619.077 1055.73 617.527 1052.97 614.771C1050.21 612.015 1048.67 608.277 1048.66 604.379V276.744C1048.66 272.846 1050.21 269.108 1052.97 266.352C1055.73 263.595 1059.46 262.046 1063.36 262.044H1515.2C1519.1 262.044 1522.84 263.593 1525.6 266.349C1528.36 269.106 1529.91 272.845 1529.91 276.744V276.744Z" fill="#6595F7"/>
<path d="M1194.37 334.966H1098.4C1082.24 334.966 1069.14 348.066 1069.14 364.225V426.254C1069.14 442.414 1082.24 455.513 1098.4 455.513H1194.37C1210.53 455.513 1223.63 442.414 1223.63 426.254V364.225C1223.63 348.066 1210.53 334.966 1194.37 334.966Z" fill="white"/>
<path d="M1087.44 399.834V391.734L1127.08 370.874V379.749L1107.56 389.375L1095.23 395.535V396.029L1107.56 402.189L1127.08 411.815V420.69L1087.44 399.834Z" fill="black"/>
<path d="M1155.98 353.134H1161.47L1136.8 437.344H1131.31L1155.98 353.134Z" fill="black"/>
<path d="M1165.69 412.373L1185.21 402.747L1197.54 396.587V396.093L1185.21 389.934L1165.69 380.308V371.434L1205.33 392.294V400.394L1165.69 421.255L1165.69 412.373Z" fill="black"/>
<path d="M1529.91 276.744V317.707H1048.66V276.744C1048.66 272.846 1050.21 269.108 1052.97 266.352C1055.72 263.595 1059.46 262.046 1063.36 262.044H1515.2C1519.1 262.043 1522.84 263.591 1525.6 266.348C1528.36 269.105 1529.91 272.844 1529.91 276.744V276.744Z" fill="#20557A"/>
<path d="M1077.44 297.638C1082.02 297.638 1085.73 293.924 1085.73 289.342C1085.73 284.761 1082.02 281.046 1077.44 281.046C1072.86 281.046 1069.14 284.761 1069.14 289.342C1069.14 293.924 1072.86 297.638 1077.44 297.638Z" fill="white"/>
<path d="M1106.34 297.638C1110.92 297.638 1114.64 293.924 1114.64 289.342C1114.64 284.761 1110.92 281.046 1106.34 281.046C1101.76 281.046 1098.04 284.761 1098.04 289.342C1098.04 293.924 1101.76 297.638 1106.34 297.638Z" fill="white"/>
<path d="M1135.24 297.638C1139.82 297.638 1143.54 293.924 1143.54 289.342C1143.54 284.761 1139.82 281.046 1135.24 281.046C1130.66 281.046 1126.95 284.761 1126.95 289.342C1126.95 293.924 1130.66 297.638 1135.24 297.638Z" fill="white"/>
<path d="M1334.05 334.966H1251V352.093H1334.05V334.966Z" fill="white"/>
<path d="M1402.82 334.966H1351.34V352.093H1402.82V334.966Z" fill="#FF4655"/>
<path d="M1473.96 334.966H1422.48V352.093H1473.96V334.966Z" fill="#20557A"/>
<path d="M1334.05 423.434H1251V440.561H1334.05V423.434Z" fill="#20557A"/>
<path d="M1402.82 423.434H1351.34V440.561H1402.82V423.434Z" fill="#20557A"/>
<path d="M1473.96 423.434H1422.48V440.561H1473.96V423.434Z" fill="#FF4655"/>
<path d="M1152.19 522.628H1069.14V539.755H1152.19V522.628Z" fill="#20557A"/>
<path d="M1220.96 522.628H1169.49V539.755H1220.96V522.628Z" fill="white"/>
<path d="M1292.1 522.628H1240.63V539.755H1292.1V522.628Z" fill="white"/>
<path d="M1507.23 566.092H1069.14V577.168H1507.23V566.092Z" fill="#20557A"/>
<path d="M1326.53 587.323H1069.14V598.399H1326.53V587.323Z" fill="white"/>
<path d="M1507.23 467.38H1069.14V478.456H1507.23V467.38Z" fill="white"/>
<path d="M1326.53 488.611H1069.14V499.687H1326.53V488.611Z" fill="#20557A"/>
<path d="M1508.39 370.942H1251V382.018H1508.39V370.942Z" fill="#20557A"/>
<path d="M1402.23 392.173H1251V403.249H1402.23V392.173Z" fill="white"/>
<path d="M1581.25 606.934H1438.48C1437.61 606.919 1436.77 606.561 1436.16 605.938C1435.55 605.316 1435.21 604.477 1435.21 603.604C1435.21 602.73 1435.55 601.892 1436.16 601.269C1436.77 600.646 1437.61 600.288 1438.48 600.273H1581.25C1596.29 600.273 1610.71 594.299 1621.35 583.665C1631.98 573.031 1637.96 558.608 1637.96 543.569C1637.96 528.53 1631.98 514.107 1621.35 503.472C1610.71 492.838 1596.29 486.864 1581.25 486.864H1529.91C1529.02 486.864 1528.18 486.513 1527.55 485.889C1526.93 485.264 1526.58 484.417 1526.58 483.534C1526.58 482.651 1526.93 481.804 1527.55 481.179C1528.18 480.555 1529.02 480.204 1529.91 480.204H1581.25C1598.06 480.204 1614.18 486.88 1626.06 498.763C1637.94 510.647 1644.62 526.764 1644.62 543.569C1644.62 560.375 1637.94 576.492 1626.06 588.375C1614.18 600.258 1598.06 606.934 1581.25 606.934H1581.25Z" fill="#BC87F4"/>
<path d="M1378.59 611.275C1382.83 611.275 1386.26 607.84 1386.26 603.603C1386.26 599.366 1382.83 595.931 1378.59 595.931C1374.36 595.931 1370.92 599.366 1370.92 603.603C1370.92 607.84 1374.36 611.275 1378.59 611.275Z" fill="#BC87F4"/>
<path d="M1400.54 611.275C1404.77 611.275 1408.21 607.84 1408.21 603.603C1408.21 599.366 1404.77 595.931 1400.54 595.931C1396.3 595.931 1392.86 599.366 1392.86 603.603C1392.86 607.84 1396.3 611.275 1400.54 611.275Z" fill="#BC87F4"/>
<path d="M1422.48 611.275C1426.72 611.275 1430.15 607.84 1430.15 603.603C1430.15 599.366 1426.72 595.931 1422.48 595.931C1418.24 595.931 1414.81 599.366 1414.81 603.603C1414.81 607.84 1418.24 611.275 1422.48 611.275Z" fill="#BC87F4"/>
<path d="M1037.56 1056.24H1334.31C1345.31 1056.24 1355.87 1051.87 1363.65 1044.08C1371.43 1036.3 1375.8 1025.75 1375.8 1014.74C1375.8 1003.74 1371.43 993.186 1363.65 985.404C1355.87 977.623 1345.31 973.251 1334.31 973.251H1037.56V1056.24Z" fill="#FF4655"/>
<path d="M1333.31 1045.39H1037.56V984.101H1333.31C1341.4 984.101 1349.16 987.317 1354.89 993.041C1360.61 998.765 1363.83 1006.53 1363.83 1014.62V1014.87C1363.83 1018.87 1363.04 1022.84 1361.51 1026.55C1359.97 1030.25 1357.72 1033.61 1354.89 1036.45C1352.05 1039.28 1348.69 1041.53 1344.99 1043.07C1341.28 1044.6 1337.31 1045.39 1333.31 1045.39V1045.39Z" fill="white"/>
<path d="M1358.76 995.965H1037.56V1000.02H1358.76V995.965Z" fill="#090909"/>
<path d="M1356.34 1032.86H1037.56V1036.91H1356.34V1032.86Z" fill="#090909"/>
<path d="M1363.83 1012.72H1037.56V1016.77H1363.83V1012.72Z" fill="#090909"/>
<path d="M1306.19 973.251H1074.82V908.544H1306.19C1314.77 908.544 1323 911.953 1329.07 918.02C1335.14 924.088 1338.55 932.317 1338.55 940.898V940.898C1338.55 949.479 1335.14 957.708 1329.07 963.776C1323 969.843 1314.77 973.252 1306.19 973.252V973.251Z" fill="#6595F7"/>
<path d="M1305.41 964.79H1074.82V917.004H1305.41C1311.72 917.004 1317.78 919.512 1322.24 923.975C1326.7 928.438 1329.21 934.492 1329.21 940.804V940.994C1329.21 947.306 1326.7 953.358 1322.24 957.821C1317.78 962.283 1311.72 964.79 1305.41 964.79V964.79Z" fill="white"/>
<path d="M1325.26 925.808H1074.82V929.86H1325.26V925.808Z" fill="#090909"/>
<path d="M1323.37 954.573H1074.82V958.625H1323.37V954.573Z" fill="#090909"/>
<path d="M1329.21 938.871H1074.82V942.923H1329.21V938.871Z" fill="#090909"/>
<path d="M923.702 1059.86H618.366C614.167 1059.86 610.117 1058.31 606.996 1055.5C603.875 1052.69 601.905 1048.82 601.466 1044.65L579.318 834.059C579.069 831.691 579.321 829.297 580.056 827.032C580.792 824.767 581.996 822.683 583.59 820.913C585.183 819.144 587.131 817.729 589.306 816.761C591.482 815.792 593.837 815.292 596.218 815.293H945.85C948.231 815.292 950.586 815.792 952.762 816.761C954.937 817.729 956.885 819.144 958.479 820.913C960.072 822.683 961.276 824.767 962.012 827.032C962.748 829.297 962.999 831.691 962.75 834.059L940.602 1044.65C940.163 1048.82 938.193 1052.69 935.072 1055.5C931.951 1058.31 927.901 1059.86 923.702 1059.86V1059.86Z" fill="#6595F7"/>
<path d="M771.409 980.103C793.927 980.103 812.181 961.849 812.181 939.331C812.181 916.813 793.927 898.559 771.409 898.559C748.891 898.559 730.637 916.813 730.637 939.331C730.637 961.849 748.891 980.103 771.409 980.103Z" fill="white"/>
<path d="M315.777 657.733H304.729V810.896H315.777V657.733Z" fill="#080808"/>
<path d="M292.591 606.173C292.591 606.173 309.939 559.71 327.961 606.173C327.961 606.173 309.572 639.592 292.591 606.173Z" fill="#FF4655"/>
<path d="M285.808 602.262C284.459 601.517 282.94 601.133 281.399 601.149C279.858 601.164 278.347 601.578 277.013 602.351C275.679 603.123 274.568 604.227 273.788 605.556C273.007 606.885 272.583 608.393 272.558 609.934C272.366 623.222 274.935 636.405 280.104 648.647C283.962 657.679 294.585 682.547 310.198 682.592C325.811 682.637 336.589 657.771 340.356 649.071C345.653 636.691 348.257 623.326 347.993 609.863C347.981 608.354 347.583 606.873 346.837 605.561C346.091 604.249 345.022 603.149 343.731 602.367C342.439 601.586 340.97 601.147 339.461 601.094C337.953 601.041 336.456 601.374 335.113 602.063C327.55 606.164 319.089 608.329 310.486 608.363C301.882 608.398 293.404 606.303 285.808 602.263V602.262Z" fill="#FF4655"/>
<path d="M370.26 1006.41L353.301 1054.36C353.173 1054.88 352.884 1055.33 352.477 1055.67C352.069 1056.01 351.564 1056.21 351.036 1056.24H269.443C268.888 1056.23 268.356 1056.01 267.951 1055.63C267.588 1055.28 267.322 1054.84 267.178 1054.36L250.219 1006.3C234.419 961.554 234.419 910.345 250.163 865.543L250.219 865.433C261.677 832.269 264.863 796.809 259.499 762.133V762.078C259.224 760.089 260.384 758.321 261.929 758.321H358.439C359.985 758.321 361.201 760.089 360.869 762.078C360.482 764.678 360.152 767.271 359.82 769.867C358.872 778.194 358.392 786.567 358.384 794.947C358.347 818.963 362.362 842.813 370.26 865.492C386.059 911.137 386.059 960.767 370.26 1006.41V1006.41Z" fill="#BC87F4"/>
<path d="M310.276 985.317C327.165 985.317 340.857 960.496 340.857 929.877C340.857 899.258 327.165 874.437 310.276 874.437C293.387 874.437 279.695 899.258 279.695 929.877C279.695 960.496 293.387 985.317 310.276 985.317Z" fill="white"/>
</svg>
