<svg width="1520" height="1715" viewBox="0 0 1520 1715" fill="none" xmlns="http://www.w3.org/2000/svg">
<path d="M531.139 15.3402C531.139 15.3402 595.721 -35.3799 795.517 108.888C995.313 253.157 1057.47 276.2 1252.99 351.468C1448.52 426.735 1472.88 679.444 1472.17 746.384" stroke="#F7EDE2" stroke-width="10" stroke-linecap="round" stroke-linejoin="round"/>
<path d="M127.775 1414.44L108.186 1408.37C108.186 1408.37 -64.9261 1058.59 26.8108 599.332C118.548 140.075 377.665 -72.5752 624.205 22.1024C870.746 116.78 880.268 341.826 1268.26 417.529C1656.25 493.232 1494.75 1277.69 1438.61 1418.58L127.775 1414.44Z" fill="#9FC9E6"/>
<path d="M1412 74.2236H883.752V1424.84H1412V74.2236Z" fill="#E1D3D0"/>
<path d="M1392.85 106.515H902.901V336.786H1392.85V106.515Z" fill="#FFFEBC"/>
<path opacity="0.55" d="M889.818 255.946C889.818 255.946 1043.14 319.049 1209.96 257.94C1376.77 196.831 1396.22 91.2539 1396.22 91.2539L1408.07 361.244H877.146L889.818 255.946Z" fill="#FFFD77"/>
<path d="M1392.85 371.659H902.901V601.931H1392.85V371.659Z" fill="#FFFEBC"/>
<path opacity="0.55" d="M889.523 534.578C889.523 534.578 962.372 572.881 1133.33 560.928C1304.29 548.974 1397.64 361.973 1397.64 361.973L1401.44 614.063L880.65 621.37L889.523 534.578Z" fill="#FFFD77"/>
<path d="M942.881 139.558H908.526V338.152H942.881V139.558Z" fill="#D8E6EF"/>
<path d="M938.38 200.551H912.475V305.617H938.38V200.551Z" fill="#8FB5CC"/>
<path d="M925.709 184.733C931.076 184.733 935.426 177.892 935.426 169.453C935.426 161.013 931.076 154.172 925.709 154.172C920.343 154.172 915.993 161.013 915.993 169.453C915.993 177.892 920.343 184.733 925.709 184.733Z" fill="#8FB5CC"/>
<path d="M925.705 179.636C929.282 179.636 932.181 175.076 932.181 169.451C932.181 163.826 929.282 159.267 925.705 159.267C922.128 159.267 919.229 163.826 919.229 169.451C919.229 175.076 922.128 179.636 925.705 179.636Z" fill="#5595B5"/>
<path d="M981.875 139.558H947.521V338.152H981.875V139.558Z" fill="#D8E6EF"/>
<path d="M977.36 200.551H951.455V305.617H977.36V200.551Z" fill="#8FB5CC"/>
<path d="M964.69 184.733C970.056 184.733 974.406 177.892 974.406 169.453C974.406 161.013 970.056 154.172 964.69 154.172C959.323 154.172 954.973 161.013 954.973 169.453C954.973 177.892 959.323 184.733 964.69 184.733Z" fill="#8FB5CC"/>
<path d="M964.685 179.636C968.262 179.636 971.162 175.076 971.162 169.451C971.162 163.826 968.262 159.267 964.685 159.267C961.109 159.267 958.209 163.826 958.209 169.451C958.209 175.076 961.109 179.636 964.685 179.636Z" fill="#5595B5"/>
<path d="M1020.87 139.558H986.516V338.152H1020.87V139.558Z" fill="#D8E6EF"/>
<path d="M1016.37 200.551H990.464V305.617H1016.37V200.551Z" fill="#8FB5CC"/>
<path d="M1003.7 184.733C1009.07 184.733 1013.42 177.892 1013.42 169.453C1013.42 161.013 1009.07 154.172 1003.7 154.172C998.333 154.172 993.982 161.013 993.982 169.453C993.982 177.892 998.333 184.733 1003.7 184.733Z" fill="#8FB5CC"/>
<path d="M1003.69 179.636C1007.27 179.636 1010.17 175.076 1010.17 169.451C1010.17 163.826 1007.27 159.267 1003.69 159.267C1000.12 159.267 997.218 163.826 997.218 169.451C997.218 175.076 1000.12 179.636 1003.69 179.636Z" fill="#5595B5"/>
<path d="M1059.85 139.558H1025.5V338.152H1059.85V139.558Z" fill="#D8E6EF"/>
<path d="M1055.36 200.551H1029.46V305.617H1055.36V200.551Z" fill="#8FB5CC"/>
<path d="M1042.69 184.733C1048.06 184.733 1052.41 177.892 1052.41 169.453C1052.41 161.013 1048.06 154.172 1042.69 154.172C1037.33 154.172 1032.98 161.013 1032.98 169.453C1032.98 177.892 1037.33 184.733 1042.69 184.733Z" fill="#8FB5CC"/>
<path d="M1042.69 179.636C1046.27 179.636 1049.17 175.076 1049.17 169.451C1049.17 163.826 1046.27 159.267 1042.69 159.267C1039.11 159.267 1036.21 163.826 1036.21 169.451C1036.21 175.076 1039.11 179.636 1042.69 179.636Z" fill="#5595B5"/>
<path d="M1098.84 139.558H1064.49V338.152H1098.84V139.558Z" fill="#D8E6EF"/>
<path d="M1094.34 200.551H1068.44V305.617H1094.34V200.551Z" fill="#8FB5CC"/>
<path d="M1081.67 184.733C1087.04 184.733 1091.39 177.892 1091.39 169.453C1091.39 161.013 1087.04 154.172 1081.67 154.172C1076.31 154.172 1071.96 161.013 1071.96 169.453C1071.96 177.892 1076.31 184.733 1081.67 184.733Z" fill="#8FB5CC"/>
<path d="M1081.67 179.636C1085.24 179.636 1088.14 175.076 1088.14 169.451C1088.14 163.826 1085.24 159.267 1081.67 159.267C1078.09 159.267 1075.19 163.826 1075.19 169.451C1075.19 175.076 1078.09 179.636 1081.67 179.636Z" fill="#5595B5"/>
<path d="M1137.84 139.558H1103.48V338.152H1137.84V139.558Z" fill="#D8E6EF"/>
<path d="M1133.32 200.551H1107.42V305.617H1133.32V200.551Z" fill="#8FB5CC"/>
<path d="M1120.65 184.733C1126.02 184.733 1130.37 177.892 1130.37 169.453C1130.37 161.013 1126.02 154.172 1120.65 154.172C1115.29 154.172 1110.94 161.013 1110.94 169.453C1110.94 177.892 1115.29 184.733 1120.65 184.733Z" fill="#8FB5CC"/>
<path d="M1120.65 179.636C1124.22 179.636 1127.12 175.076 1127.12 169.451C1127.12 163.826 1124.22 159.267 1120.65 159.267C1117.07 159.267 1114.17 163.826 1114.17 169.451C1114.17 175.076 1117.07 179.636 1120.65 179.636Z" fill="#5595B5"/>
<path d="M942.881 399.846H908.526V598.44H942.881V399.846Z" fill="#D8E6EF"/>
<path d="M938.38 460.84H912.475V565.906H938.38V460.84Z" fill="#8FB5CC"/>
<path d="M925.709 445.022C931.076 445.022 935.426 438.181 935.426 429.742C935.426 421.302 931.076 414.461 925.709 414.461C920.343 414.461 915.993 421.302 915.993 429.742C915.993 438.181 920.343 445.022 925.709 445.022Z" fill="#8FB5CC"/>
<path d="M925.705 439.925C929.282 439.925 932.181 435.365 932.181 429.741C932.181 424.116 929.282 419.556 925.705 419.556C922.128 419.556 919.229 424.116 919.229 429.741C919.229 435.365 922.128 439.925 925.705 439.925Z" fill="#5595B5"/>
<path d="M981.875 399.846H947.521V598.44H981.875V399.846Z" fill="#D8E6EF"/>
<path d="M977.36 460.84H951.455V565.906H977.36V460.84Z" fill="#8FB5CC"/>
<path d="M964.69 445.022C970.056 445.022 974.406 438.181 974.406 429.742C974.406 421.302 970.056 414.461 964.69 414.461C959.323 414.461 954.973 421.302 954.973 429.742C954.973 438.181 959.323 445.022 964.69 445.022Z" fill="#8FB5CC"/>
<path d="M964.685 439.925C968.262 439.925 971.162 435.365 971.162 429.741C971.162 424.116 968.262 419.556 964.685 419.556C961.109 419.556 958.209 424.116 958.209 429.741C958.209 435.365 961.109 439.925 964.685 439.925Z" fill="#5595B5"/>
<path d="M1020.87 399.846H986.516V598.44H1020.87V399.846Z" fill="#D8E6EF"/>
<path d="M1016.37 460.84H990.464V565.906H1016.37V460.84Z" fill="#8FB5CC"/>
<path d="M1003.7 445.022C1009.07 445.022 1013.42 438.181 1013.42 429.742C1013.42 421.302 1009.07 414.461 1003.7 414.461C998.333 414.461 993.982 421.302 993.982 429.742C993.982 438.181 998.333 445.022 1003.7 445.022Z" fill="#8FB5CC"/>
<path d="M1003.69 439.925C1007.27 439.925 1010.17 435.365 1010.17 429.741C1010.17 424.116 1007.27 419.556 1003.69 419.556C1000.12 419.556 997.218 424.116 997.218 429.741C997.218 435.365 1000.12 439.925 1003.69 439.925Z" fill="#5595B5"/>
<path d="M1059.85 399.846H1025.5V598.44H1059.85V399.846Z" fill="#D8E6EF"/>
<path d="M1055.36 460.84H1029.46V565.906H1055.36V460.84Z" fill="#8FB5CC"/>
<path d="M1042.69 445.022C1048.06 445.022 1052.41 438.181 1052.41 429.742C1052.41 421.302 1048.06 414.461 1042.69 414.461C1037.33 414.461 1032.98 421.302 1032.98 429.742C1032.98 438.181 1037.33 445.022 1042.69 445.022Z" fill="#8FB5CC"/>
<path d="M1042.69 439.925C1046.27 439.925 1049.17 435.365 1049.17 429.741C1049.17 424.116 1046.27 419.556 1042.69 419.556C1039.11 419.556 1036.21 424.116 1036.21 429.741C1036.21 435.365 1039.11 439.925 1042.69 439.925Z" fill="#5595B5"/>
<path d="M1098.84 399.846H1064.49V598.44H1098.84V399.846Z" fill="#D8E6EF"/>
<path d="M1094.34 460.84H1068.44V565.906H1094.34V460.84Z" fill="#8FB5CC"/>
<path d="M1081.67 445.022C1087.04 445.022 1091.39 438.181 1091.39 429.742C1091.39 421.302 1087.04 414.461 1081.67 414.461C1076.31 414.461 1071.96 421.302 1071.96 429.742C1071.96 438.181 1076.31 445.022 1081.67 445.022Z" fill="#8FB5CC"/>
<path d="M1081.67 439.925C1085.24 439.925 1088.14 435.365 1088.14 429.741C1088.14 424.116 1085.24 419.556 1081.67 419.556C1078.09 419.556 1075.19 424.116 1075.19 429.741C1075.19 435.365 1078.09 439.925 1081.67 439.925Z" fill="#5595B5"/>
<path d="M1137.84 399.846H1103.48V598.44H1137.84V399.846Z" fill="#D8E6EF"/>
<path d="M1133.32 460.84H1107.42V565.906H1133.32V460.84Z" fill="#8FB5CC"/>
<path d="M1120.65 445.022C1126.02 445.022 1130.37 438.181 1130.37 429.742C1130.37 421.302 1126.02 414.461 1120.65 414.461C1115.29 414.461 1110.94 421.302 1110.94 429.742C1110.94 438.181 1115.29 445.022 1120.65 445.022Z" fill="#8FB5CC"/>
<path d="M1120.65 439.925C1124.22 439.925 1127.12 435.365 1127.12 429.741C1127.12 424.116 1124.22 419.556 1120.65 419.556C1117.07 419.556 1114.17 424.116 1114.17 429.741C1114.17 435.365 1117.07 439.925 1120.65 439.925Z" fill="#5595B5"/>
<path d="M1392.85 635.438H902.901V865.709H1392.85V635.438Z" fill="#FFFEBC"/>
<path opacity="0.55" d="M893.371 795.844C893.371 795.844 981.37 846.543 1120.65 834.624C1259.93 822.704 1392.84 635.471 1392.84 635.471L1400.73 627.824L1402.42 883.779L893.371 873.574V795.844Z" fill="#FFFD77"/>
<path d="M1373.39 730.218H1215.52V868.077H1373.39V730.218Z" fill="#EDCE8D"/>
<path d="M1379.47 756.847H1213.43V776.121H1379.47V756.847Z" fill="#DBB879"/>
<path d="M1379.48 690.22H1211.16V762.398H1379.48V690.22Z" fill="#D1AA65"/>
<path d="M1365.9 668.974C1365.28 669.953 1346.99 727.443 1269.31 745.411C1191.62 763.379 1194.11 760.44 1194.11 760.44C1194.11 760.44 1206.99 798.002 1225.06 797.349C1243.13 796.696 1266.93 777.503 1311.43 777.619C1355.92 777.735 1375.02 780.34 1375.02 780.34L1390.39 770.536C1390.39 770.536 1386.45 690.18 1386.03 688.547C1385.62 686.914 1365.9 668.974 1365.9 668.974Z" fill="#C49955"/>
<path d="M1308.48 776.114H1279.39C1276.58 776.114 1274.31 779.696 1274.31 784.115V784.122C1274.31 788.541 1276.58 792.123 1279.39 792.123H1308.48C1311.29 792.123 1313.57 788.541 1313.57 784.122V784.115C1313.57 779.696 1311.29 776.114 1308.48 776.114Z" fill="#D1AA65"/>
<path d="M1308.48 720.366H1279.39C1276.58 720.366 1274.31 723.948 1274.31 728.367V728.374C1274.31 732.793 1276.58 736.375 1279.39 736.375H1308.48C1311.29 736.375 1313.57 732.793 1313.57 728.374V728.367C1313.57 723.948 1311.29 720.366 1308.48 720.366Z" fill="#AF8035"/>
<path d="M1392.85 899.212H902.901V1129.48H1392.85V899.212Z" fill="#FFFEBC"/>
<path opacity="0.55" d="M893.379 1033.87C893.379 1033.87 952.648 1094.53 1103.48 1089.22C1254.32 1083.91 1402.42 885.516 1402.42 885.516L1398.48 1140.59L882.624 1150.33L893.379 1033.87Z" fill="#FFFD77"/>
<path d="M1373.39 996.793H1215.52V1134.65H1373.39V996.793Z" fill="#EDCE8D"/>
<path d="M1379.47 1023.42H1213.43V1042.7H1379.47V1023.42Z" fill="#DBB879"/>
<path d="M1379.48 956.795H1211.16V1028.97H1379.48V956.795Z" fill="#D1AA65"/>
<path d="M1365.9 935.546C1365.28 936.526 1346.99 994.022 1269.31 1011.98C1191.62 1029.94 1194.11 1027.01 1194.11 1027.01C1194.11 1027.01 1206.99 1064.58 1225.06 1063.93C1243.13 1063.27 1266.93 1044.08 1311.43 1044.2C1355.92 1044.32 1375.02 1046.92 1375.02 1046.92L1390.39 1037.12C1390.39 1037.12 1386.45 956.759 1386.03 955.126C1385.62 953.494 1365.9 935.546 1365.9 935.546Z" fill="#C49955"/>
<path d="M1308.48 1042.7H1279.39C1276.58 1042.7 1274.31 1046.28 1274.31 1050.7V1050.7C1274.31 1055.12 1276.58 1058.7 1279.39 1058.7H1308.48C1311.29 1058.7 1313.57 1055.12 1313.57 1050.7V1050.7C1313.57 1046.28 1311.29 1042.7 1308.48 1042.7Z" fill="#D1AA65"/>
<path d="M1308.48 986.941H1279.39C1276.58 986.941 1274.31 990.524 1274.31 994.942V994.949C1274.31 999.368 1276.58 1002.95 1279.39 1002.95H1308.48C1311.29 1002.95 1313.57 999.368 1313.57 994.949V994.942C1313.57 990.524 1311.29 986.941 1308.48 986.941Z" fill="#AF8035"/>
<path d="M1392.85 1162.99H902.901V1393.26H1392.85V1162.99Z" fill="#FFFEBC"/>
<path opacity="0.55" d="M888.269 1344.28C888.269 1344.28 989.07 1386.8 1112.4 1368.2C1235.72 1349.6 1401.31 1155.64 1401.31 1155.64L1401.87 1408.05L880.383 1398.28L888.269 1344.28Z" fill="#FFFD77"/>
<path d="M1043.97 1188.07H1009.61V1386.66H1043.97V1188.07Z" fill="#D8E6EF"/>
<path d="M1039.47 1249.06H1013.56V1354.13H1039.47V1249.06Z" fill="#8FB5CC"/>
<path d="M1026.8 1233.24C1032.16 1233.24 1036.51 1226.4 1036.51 1217.96C1036.51 1209.52 1032.16 1202.68 1026.8 1202.68C1021.43 1202.68 1017.08 1209.52 1017.08 1217.96C1017.08 1226.4 1021.43 1233.24 1026.8 1233.24Z" fill="#8FB5CC"/>
<path d="M1026.79 1228.14C1030.37 1228.14 1033.27 1223.58 1033.27 1217.96C1033.27 1212.33 1030.37 1207.77 1026.79 1207.77C1023.21 1207.77 1020.31 1212.33 1020.31 1217.96C1020.31 1223.58 1023.21 1228.14 1026.79 1228.14Z" fill="#5595B5"/>
<path d="M1082.96 1188.07H1048.61V1386.66H1082.96V1188.07Z" fill="#D8E6EF"/>
<path d="M1078.45 1249.06H1052.54V1354.13H1078.45V1249.06Z" fill="#8FB5CC"/>
<path d="M1065.78 1233.24C1071.14 1233.24 1075.49 1226.4 1075.49 1217.96C1075.49 1209.52 1071.14 1202.68 1065.78 1202.68C1060.41 1202.68 1056.06 1209.52 1056.06 1217.96C1056.06 1226.4 1060.41 1233.24 1065.78 1233.24Z" fill="#8FB5CC"/>
<path d="M1065.77 1228.14C1069.35 1228.14 1072.25 1223.58 1072.25 1217.96C1072.25 1212.33 1069.35 1207.77 1065.77 1207.77C1062.19 1207.77 1059.29 1212.33 1059.29 1217.96C1059.29 1223.58 1062.19 1228.14 1065.77 1228.14Z" fill="#5595B5"/>
<path d="M1121.96 1188.07H1087.6V1386.66H1121.96V1188.07Z" fill="#D8E6EF"/>
<path d="M1117.44 1249.06H1091.54V1354.13H1117.44V1249.06Z" fill="#8FB5CC"/>
<path d="M1104.77 1233.24C1110.14 1233.24 1114.49 1226.4 1114.49 1217.96C1114.49 1209.52 1110.14 1202.68 1104.77 1202.68C1099.4 1202.68 1095.05 1209.52 1095.05 1217.96C1095.05 1226.4 1099.4 1233.24 1104.77 1233.24Z" fill="#8FB5CC"/>
<path d="M1104.77 1228.14C1108.34 1228.14 1111.24 1223.58 1111.24 1217.96C1111.24 1212.33 1108.34 1207.77 1104.77 1207.77C1101.19 1207.77 1098.29 1212.33 1098.29 1217.96C1098.29 1223.58 1101.19 1228.14 1104.77 1228.14Z" fill="#5595B5"/>
<path d="M1160.94 1188.07H1126.58V1386.66H1160.94V1188.07Z" fill="#D8E6EF"/>
<path d="M1156.44 1249.06H1130.53V1354.13H1156.44V1249.06Z" fill="#8FB5CC"/>
<path d="M1143.76 1233.24C1149.13 1233.24 1153.48 1226.4 1153.48 1217.96C1153.48 1209.52 1149.13 1202.68 1143.76 1202.68C1138.4 1202.68 1134.05 1209.52 1134.05 1217.96C1134.05 1226.4 1138.4 1233.24 1143.76 1233.24Z" fill="#8FB5CC"/>
<path d="M1143.76 1228.14C1147.34 1228.14 1150.24 1223.58 1150.24 1217.96C1150.24 1212.33 1147.34 1207.77 1143.76 1207.77C1140.18 1207.77 1137.28 1212.33 1137.28 1217.96C1137.28 1223.58 1140.18 1228.14 1143.76 1228.14Z" fill="#5595B5"/>
<path d="M1199.93 1188.07H1165.58V1386.66H1199.93V1188.07Z" fill="#D8E6EF"/>
<path d="M1195.43 1249.06H1169.52V1354.13H1195.43V1249.06Z" fill="#8FB5CC"/>
<path d="M1182.76 1233.24C1188.13 1233.24 1192.48 1226.4 1192.48 1217.96C1192.48 1209.52 1188.13 1202.68 1182.76 1202.68C1177.39 1202.68 1173.04 1209.52 1173.04 1217.96C1173.04 1226.4 1177.39 1233.24 1182.76 1233.24Z" fill="#8FB5CC"/>
<path d="M1182.75 1228.14C1186.33 1228.14 1189.23 1223.58 1189.23 1217.96C1189.23 1212.33 1186.33 1207.77 1182.75 1207.77C1179.18 1207.77 1176.28 1212.33 1176.28 1217.96C1176.28 1223.58 1179.18 1228.14 1182.75 1228.14Z" fill="#5595B5"/>
<path d="M1238.92 1188.07H1204.57V1386.66H1238.92V1188.07Z" fill="#D8E6EF"/>
<path d="M1234.41 1249.06H1208.5V1354.13H1234.41V1249.06Z" fill="#8FB5CC"/>
<path d="M1221.74 1233.24C1227.1 1233.24 1231.46 1226.4 1231.46 1217.96C1231.46 1209.52 1227.1 1202.68 1221.74 1202.68C1216.37 1202.68 1212.02 1209.52 1212.02 1217.96C1212.02 1226.4 1216.37 1233.24 1221.74 1233.24Z" fill="#8FB5CC"/>
<path d="M1221.73 1228.14C1225.31 1228.14 1228.21 1223.58 1228.21 1217.96C1228.21 1212.33 1225.31 1207.77 1221.73 1207.77C1218.16 1207.77 1215.26 1212.33 1215.26 1217.96C1215.26 1223.58 1218.16 1228.14 1221.73 1228.14Z" fill="#5595B5"/>
<path d="M1193.11 255.518C1193.11 255.518 1185.28 192.402 1190.08 154.785C1190.08 154.785 1201.64 186.85 1200.68 225.222C1199.71 263.594 1199.88 264.859 1199.88 264.859L1193.11 255.518Z" fill="#6C8721"/>
<path d="M1210.84 255.518C1210.84 255.518 1218.67 192.402 1213.87 154.785C1213.87 154.785 1202.31 186.85 1203.28 225.222C1204.24 263.594 1204.08 264.859 1204.08 264.859L1210.84 255.518Z" fill="#6C8721"/>
<path d="M1202.86 262.206C1202.86 262.206 1186.59 193.198 1206.07 132.939C1206.07 132.939 1219.56 195.219 1202.86 262.206Z" fill="#81A532"/>
<path d="M1213.09 278.732C1213.09 278.732 1246.02 226.44 1244.1 158.915C1244.1 158.915 1215.47 206.88 1213.09 278.732Z" fill="#6C8721"/>
<path d="M1193.1 278.337C1193.1 278.337 1160.17 226.045 1162.09 158.521C1162.09 158.521 1190.73 206.485 1193.1 278.337Z" fill="#6C8721"/>
<path d="M1197.77 273.562C1197.77 273.562 1169.48 214.937 1177 148.378C1177.01 148.385 1201.4 201.84 1197.77 273.562Z" fill="#81A532"/>
<path d="M1196.51 296.862C1196.51 296.862 1159.18 252.469 1154.98 185.203C1154.98 185.19 1187.64 226.269 1196.51 296.862Z" fill="#81A532"/>
<path d="M1205.59 297.251C1205.59 297.251 1242.92 252.865 1247.13 185.592C1247.13 185.592 1214.45 226.692 1205.59 297.251Z" fill="#81A532"/>
<path d="M1210.03 267.895C1210.03 267.895 1238.32 209.269 1230.8 142.71C1230.78 142.717 1206.4 196.172 1210.03 267.895Z" fill="#81A532"/>
<path d="M1238.71 251.264H1163.39V338.151H1238.71V251.264Z" fill="#D3AE6C"/>
<path d="M1230.27 242.339C1231.36 244.026 1228.74 298.223 1222.96 313.708C1217.18 329.193 1211.31 341.67 1211.31 341.67L1242.38 355.774L1245.34 336.928C1245.34 336.928 1246.75 277.785 1245.34 260.906C1243.92 244.026 1242.38 234.59 1242.38 234.59L1230.27 242.339Z" fill="#C19752"/>
<path d="M1217.99 251.264H1163.39V338.151H1217.99V251.264Z" fill="#EDCE8D"/>
<path d="M1213.82 241.42C1213.82 241.42 1215.55 283.99 1196.49 305.537C1177.43 327.083 1153.03 324.389 1153.03 324.389L1154.96 355.352C1154.96 355.352 1192.96 357.039 1210.46 357.039C1227.95 357.039 1242.3 372.857 1239.94 349.63C1237.58 326.403 1230.17 244.632 1228.63 241.42C1227.09 238.209 1213.82 241.42 1213.82 241.42Z" fill="#E0BD7E"/>
<path d="M1301.66 255.518C1301.66 255.518 1293.83 192.402 1298.63 154.785C1298.63 154.785 1310.19 186.85 1309.23 225.222C1308.26 263.594 1308.43 264.859 1308.43 264.859L1301.66 255.518Z" fill="#6C8721"/>
<path d="M1319.38 255.518C1319.38 255.518 1327.21 192.402 1322.41 154.785C1322.41 154.785 1310.85 186.85 1311.81 225.222C1312.78 263.594 1312.62 264.859 1312.62 264.859L1319.38 255.518Z" fill="#6C8721"/>
<path d="M1311.41 262.206C1311.41 262.206 1295.15 193.198 1314.62 132.939C1314.62 132.939 1328.11 195.219 1311.41 262.206Z" fill="#81A532"/>
<path d="M1321.64 278.732C1321.64 278.732 1354.57 226.44 1352.65 158.915C1352.65 158.915 1324.02 206.88 1321.64 278.732Z" fill="#6C8721"/>
<path d="M1301.66 278.337C1301.66 278.337 1268.72 226.045 1270.65 158.521C1270.65 158.521 1299.28 206.485 1301.66 278.337Z" fill="#6C8721"/>
<path d="M1306.3 273.562C1306.3 273.562 1278.02 214.937 1285.54 148.378C1285.55 148.385 1309.94 201.84 1306.3 273.562Z" fill="#81A532"/>
<path d="M1305.05 296.862C1305.05 296.862 1267.72 252.469 1263.51 185.203C1263.51 185.19 1296.19 226.269 1305.05 296.862Z" fill="#81A532"/>
<path d="M1314.15 297.251C1314.15 297.251 1351.48 252.865 1355.68 185.592C1355.68 185.592 1323 226.692 1314.15 297.251Z" fill="#81A532"/>
<path d="M1318.57 267.895C1318.57 267.895 1346.86 209.269 1339.33 142.71C1339.32 142.717 1314.93 196.172 1318.57 267.895Z" fill="#81A532"/>
<path d="M1347.27 251.264H1271.95V338.151H1347.27V251.264Z" fill="#D3AE6C"/>
<path d="M1338.81 242.339C1339.9 244.026 1337.28 298.223 1331.5 313.708C1325.72 329.193 1319.85 341.67 1319.85 341.67L1350.96 355.774L1353.91 336.928C1353.91 336.928 1355.33 277.785 1353.91 260.906C1352.5 244.026 1350.96 234.59 1350.96 234.59L1338.81 242.339Z" fill="#C19752"/>
<path d="M1326.55 251.264H1271.95V338.151H1326.55V251.264Z" fill="#EDCE8D"/>
<path d="M1322.38 241.42C1322.38 241.42 1324.11 283.99 1305.05 305.537C1285.99 327.083 1261.59 324.389 1261.59 324.389L1263.51 355.352C1263.51 355.352 1301.52 357.039 1319.01 357.039C1336.5 357.039 1350.84 372.857 1348.49 349.63C1346.14 326.403 1338.72 244.632 1337.19 241.42C1335.65 238.209 1322.38 241.42 1322.38 241.42Z" fill="#E0BD7E"/>
<path d="M1332.95 493.611H1194.09V519.506H1332.95V493.611Z" fill="#E58985"/>
<path d="M1332.95 520.385H1194.09V546.279H1332.95V520.385Z" fill="#D67272"/>
<path d="M1332.95 547.148H1194.09V573.043H1332.95V547.148Z" fill="#C46060"/>
<path d="M1332.95 573.922H1194.09V599.816H1332.95V573.922Z" fill="#B74F4F"/>
<path opacity="0.55" d="M700.375 129.305H157.118C144.651 129.305 134.544 145.199 134.544 164.805V772.318C134.544 791.924 144.651 807.819 157.118 807.819H700.375C712.842 807.819 722.949 791.924 722.949 772.318V164.805C722.949 145.199 712.842 129.305 700.375 129.305Z" fill="#AF9494"/>
<path d="M694.081 122.415H150.824C138.357 122.415 128.25 138.309 128.25 157.916V765.428C128.25 785.035 138.357 800.929 150.824 800.929H694.081C706.548 800.929 716.655 785.035 716.655 765.428V157.916C716.655 138.309 706.548 122.415 694.081 122.415Z" fill="#E1D3D0"/>
<path opacity="0.55" d="M674.456 153.817H170.464C159.029 153.817 149.759 168.396 149.759 186.379V736.96C149.759 754.943 159.029 769.521 170.464 769.521H674.456C685.891 769.521 695.161 754.943 695.161 736.96V186.379C695.161 168.396 685.891 153.817 674.456 153.817Z" fill="#AF9494"/>
<path opacity="0.4" d="M305.457 104.006L188.961 893.478H261.433L381.385 122.416L305.457 104.006Z" fill="white"/>
<path opacity="0.4" d="M461.772 96.2607L345.281 885.726H417.753L537.705 114.671L461.772 96.2607Z" fill="white"/>
<path d="M682.813 153.556H178.821C167.386 153.556 158.116 168.134 158.116 186.117V736.698C158.116 754.681 167.386 769.26 178.821 769.26H682.813C694.248 769.26 703.518 754.681 703.518 736.698V186.117C703.518 168.134 694.248 153.556 682.813 153.556Z" fill="#DFEDF4"/>
<path opacity="0.4" d="M313.824 103.738L197.333 893.204H269.805L389.757 122.149L313.824 103.738Z" fill="white"/>
<path opacity="0.4" d="M470.143 95.9902L353.652 885.463H426.12L546.076 114.401L470.143 95.9902Z" fill="white"/>
<path opacity="0.55" d="M434.649 142.704H418.296V776.131H434.649V142.704Z" fill="#AF9494"/>
<path d="M428.757 142.704H412.404V776.131H428.757V142.704Z" fill="#E1D3D0"/>
<path d="M103.416 1408.18C103.416 1408.18 146.418 1436.8 119.661 1502.17C92.9034 1567.53 90.0351 1608.86 228.118 1620.14C366.202 1631.41 956.999 1624.65 1139.04 1620.14C1321.07 1615.63 1411.38 1623.54 1412.81 1548.02C1414.25 1472.5 1400.15 1436.44 1433.84 1418.41L103.416 1408.18Z" fill="#9FC9E6"/>
<path d="M1462.75 1498.6H85.2627V1517.24H1462.75V1498.6Z" fill="white"/>
<path d="M357.879 1367.29L215.695 1715H226.207L363.811 1372.37L357.879 1367.29Z" fill="white"/>
<path d="M656.031 1367.29L513.846 1715H524.359L661.962 1372.37L656.031 1367.29Z" fill="white"/>
<path d="M954.167 1367.29L811.983 1715H822.496L960.099 1372.37L954.167 1367.29Z" fill="white"/>
<path d="M1252.32 1367.29L1110.13 1715H1120.65L1258.25 1372.37L1252.32 1367.29Z" fill="white"/>
<path opacity="0.31" d="M754.555 1577.74C839.406 1577.74 908.191 1554.73 908.191 1526.35C908.191 1497.97 839.406 1474.96 754.555 1474.96C669.705 1474.96 600.919 1497.97 600.919 1526.35C600.919 1554.73 669.705 1577.74 754.555 1577.74Z" fill="#507199"/>
<path d="M653.277 107.63C653.277 107.63 639.979 116.774 637.271 157.847C634.562 198.919 640.775 225.473 597.772 264.049" stroke="#025090" stroke-width="3" stroke-linecap="round" stroke-linejoin="round"/>
<path d="M699.767 88.4029C700.2 88.4029 706.737 81.3885 724.301 97.1726C741.865 112.957 748.134 134.878 751.621 176.964C755.108 219.051 734.909 258.069 720.118 270.125C705.326 282.18 639.136 350.794 613.343 331.064C587.55 311.333 590.207 281.745 600.659 267.492C611.111 253.238 635.787 237.685 637.596 202.178C639.404 166.67 636.488 116.025 659.633 93.4443C682.778 70.8634 699.767 88.4029 699.767 88.4029Z" fill="#025090"/>
<path d="M725.49 87.9746C725.49 87.9746 750.816 131.054 732.659 132.061C714.502 133.068 713.87 122.414 713.87 122.414C713.87 122.414 705.425 155.35 693.636 161.112C681.848 166.875 668.358 171.481 668.358 171.481C668.358 171.481 664.032 203.192 648.246 230.739C632.46 258.287 599.36 316.151 601.739 323.662C604.119 331.173 642.194 347.957 642.194 347.957L688.916 351.719L727.891 316.899L789.05 178.897C789.05 178.897 783.158 148.335 774.718 138.076C766.277 127.816 725.49 87.9746 725.49 87.9746Z" fill="#01406B"/>
<path d="M702.723 95.7385C702.723 95.7385 681.858 82.4513 660.993 109.264C640.128 136.077 647.776 181.163 641.092 211.84C634.409 242.517 618.795 262.554 598.886 274.576" stroke="#034877" stroke-width="6" stroke-linecap="round" stroke-linejoin="round"/>
<path d="M707.173 110.515C707.173 110.515 674.528 96.2275 663.379 151.846C652.231 207.465 655.255 235.203 627.861 268.411" stroke="#034877" stroke-width="6" stroke-linecap="round" stroke-linejoin="round"/>
<path d="M676.016 220.818C676.016 220.818 608.286 253.781 586.352 319.469C567.451 376.101 578.387 397.362 608.649 394.613C638.911 391.865 840.377 357.541 853.758 333.994C867.139 310.447 855.03 283.403 828.752 263.367C802.475 243.331 770.301 206.51 727.459 209.517L676.016 220.818Z" fill="#F65E51"/>
<path d="M593.14 350.218C593.287 349.953 615.122 315.439 642.355 296.259C669.588 277.08 709.247 272.073 711.475 255.268C713.703 238.464 734.092 193.152 734.092 193.152L826.149 226.217C826.149 226.217 844.942 249.009 849.402 258.527C853.862 268.045 860.217 290.082 860.217 290.082C860.217 290.082 876.782 336.169 873.594 342.183C870.406 348.197 823.743 369.479 800.97 381.256C778.197 393.033 689.009 398.264 684.708 399.537C680.408 400.809 594.256 422.635 593.781 423.104C593.305 423.574 584.86 423.601 580.88 415.334C576.9 407.068 583.424 367.751 593.14 350.218Z" fill="#E0312D"/>
<path d="M668.369 171.479C667.936 171.2 666.297 259.489 701.771 256.788C731.393 254.536 728.888 164.716 728.888 164.716C728.888 164.716 719.015 158.647 715.987 144.652C715.987 144.652 694.01 187.508 668.369 171.479Z" fill="#FFB6B0"/>
<path d="M664.021 180.543C664.021 180.543 699.011 193.17 714.801 159.105C714.801 159.105 725.816 179.713 732.024 177.801L733.62 156.853L715.45 130.558L677.812 153.553C677.812 153.553 664.661 160.112 664.661 160.86C664.661 161.609 664.021 180.543 664.021 180.543Z" fill="#F4A39F"/>
<path d="M740.985 268.411L743.218 317.505C743.218 317.505 830.494 340.549 842.119 337.29C853.743 334.031 857.407 316.566 853.908 303.007C850.408 289.448 845.147 280.936 834.314 278.181C823.481 275.426 740.985 268.411 740.985 268.411Z" fill="#F65E51"/>
<path d="M688.913 288.7C688.913 288.7 703.09 281.216 717.423 275.174C731.755 269.133 767.113 279.937 764.578 299.47C762.043 319.002 735.273 308.736 725.396 310.743C715.519 312.75 698.911 319.009 698.911 319.009L688.913 288.7Z" fill="#FFB6B0"/>
<path d="M677.811 307.141C679.87 308.005 703.46 305.005 718.122 299.555C732.783 294.106 744.849 308.339 753.45 303.005C762.05 297.671 766.826 284.717 766.826 284.717L768.5 304.631L763.244 327.919C763.244 327.919 720.354 333.988 708.302 332.804C696.249 331.62 681.189 324.728 681.189 324.728L677.811 307.141Z" fill="#F4928E"/>
<path d="M584.115 376.108C579.611 350.622 605.936 331.028 639.058 311.475C672.179 291.922 693.529 278.138 693.529 278.138L703.085 324.721C703.085 324.721 637.466 392.348 612.46 392.076C587.455 391.804 584.604 378.864 584.115 376.108Z" fill="#F65E51"/>
<path d="M689.942 202.89C691.817 202.844 693.306 199.639 693.267 195.731C693.228 191.824 691.676 188.694 689.8 188.74C687.925 188.787 686.436 191.992 686.475 195.899C686.514 199.806 688.066 202.936 689.942 202.89Z" fill="#591929"/>
<path d="M690.694 189.082C690.694 189.082 693.723 188.898 695.276 186.734C695.276 186.734 693.545 191.939 691.382 191.245L690.694 189.082Z" fill="#591929"/>
<path d="M713.128 201.312C715.003 201.265 716.492 198.06 716.453 194.153C716.414 190.246 714.862 187.116 712.987 187.162C711.111 187.209 709.622 190.414 709.661 194.321C709.701 198.228 711.252 201.358 713.128 201.312Z" fill="#591929"/>
<path d="M713.88 187.503C713.88 187.503 716.909 187.313 718.462 185.149C718.462 185.149 716.731 190.361 714.568 189.66L713.88 187.503Z" fill="#591929"/>
<path d="M695.885 180.37C695.885 180.37 687.787 170.417 679.948 184.187" stroke="#591929" stroke-width="2" stroke-linecap="round" stroke-linejoin="round"/>
<path d="M708.522 180.591C708.522 180.591 713.588 168.923 721.141 179.319" stroke="#591929" stroke-width="2" stroke-linecap="round" stroke-linejoin="round"/>
<path d="M682.586 223.281C685.224 223.281 687.362 219.918 687.362 215.77C687.362 211.622 685.224 208.259 682.586 208.259C679.948 208.259 677.81 211.622 677.81 215.77C677.81 219.918 679.948 223.281 682.586 223.281Z" fill="#EF877F"/>
<path d="M722.864 208.618C723.093 204.485 721.572 200.902 719.468 200.614C717.364 200.326 715.473 203.443 715.244 207.576C715.016 211.708 716.536 215.292 718.641 215.58C720.745 215.867 722.636 212.75 722.864 208.618Z" fill="#EF877F"/>
<path d="M707.221 221.214C708.785 220.812 709.621 216.336 709.09 211.214C708.558 206.093 706.86 202.267 705.297 202.668C703.733 203.069 702.897 207.546 703.428 212.667C703.96 217.789 705.658 221.615 707.221 221.214Z" fill="#EF877F"/>
<path d="M689.911 227.609C689.911 227.609 711.252 227.112 712.049 229.99C712.845 232.868 709.102 239.379 699.628 238.631C690.154 237.882 685.04 228.487 689.911 227.609Z" fill="white"/>
<path d="M893.748 543.182C891.754 446.3 872.16 309.59 742.076 314.584C611.966 317.401 586.225 455.471 586.584 552.401C586.943 649.33 615.137 710.385 634.722 753.213C654.306 796.041 685.844 968.204 685.844 968.204C696.595 984.274 730.227 987.648 744.914 987.655C761.038 987.655 795.262 978.26 804.65 964.639C804.65 964.639 831.983 790.714 850.508 746.743C869.032 702.772 895.742 640.057 893.748 543.182Z" fill="#FFB65F"/>
<path d="M904.685 506.685C904.685 506.685 898.066 862.263 640.463 746.692C640.463 746.692 674.865 800.807 736.024 807.815C762.301 811.074 773.108 893.974 767.467 974.875L824.417 975.63C824.417 975.63 942.911 767.49 943.387 759.224C943.863 750.958 904.685 506.685 904.685 506.685Z" fill="#F2A34E"/>
<path opacity="0.32" d="M621.704 443.078C639.385 382.84 681.907 350.652 718.1 349.523C754.293 348.394 730.646 380.52 685.32 426.171C639.995 471.823 658.273 558.023 629.789 556.35C601.306 554.676 610.953 479.708 621.704 443.078Z" fill="white"/>
<path opacity="0.37" d="M699.463 987.652C699.104 985.209 690.503 826.286 683.339 728.792C676.175 631.298 652.398 651.028 655.985 695.359C659.571 739.691 682.738 805.44 708.301 752.461C733.865 699.482 703.287 622.848 697.789 665.302C692.29 707.755 695.626 780.961 726.696 769.524C757.767 758.088 758.472 657.409 744.135 653.654C729.798 649.898 725.502 764.483 751.779 766.368C778.057 768.252 810.789 664.927 788.812 658.192C766.835 651.456 763.72 757.373 785.467 765.64C807.215 773.906 840.41 726.179 835.158 678.854C829.906 631.529 809.833 668.71 806.969 751.366C804.105 834.022 794.544 968.228 794.544 968.228" stroke="white" stroke-width="13" stroke-miterlimit="10"/>
<path d="M695.163 1168.39V1168.93C695.161 1170.8 695.562 1172.61 696.301 1174.08C697.039 1175.54 698.072 1176.57 699.229 1176.99L731.36 1188.81C731.753 1188.95 732.155 1189.02 732.558 1189.02H763.43C763.879 1189.02 764.327 1188.93 764.762 1188.76L793.955 1176.74C795.082 1176.28 796.079 1175.24 796.791 1173.79C797.502 1172.34 797.888 1170.56 797.888 1168.73V1168.73C797.888 1166.54 797.335 1164.44 796.35 1162.89C795.366 1161.33 794.03 1160.46 792.636 1160.45L700.441 1160.11C699.748 1160.11 699.062 1160.32 698.422 1160.74C697.782 1161.15 697.201 1161.76 696.71 1162.53C696.22 1163.3 695.831 1164.22 695.566 1165.22C695.3 1166.23 695.163 1167.3 695.163 1168.39V1168.39Z" fill="#248EBC"/>
<path d="M801.357 955.338H691.225C683.242 955.338 676.771 965.515 676.771 978.068V1144.5C676.771 1157.06 683.242 1167.23 691.225 1167.23H801.357C809.339 1167.23 815.81 1157.06 815.81 1144.5V978.068C815.81 965.515 809.339 955.338 801.357 955.338Z" fill="#65A7CA"/>
<path opacity="0.48" d="M772.321 944.065C772.321 944.065 780.921 949.454 783.071 1021.71C785.221 1093.97 751.776 1182.64 655.263 1127.03L655.384 1189.02L779.013 1191.46L836.707 1183.88L843.158 1108.62C843.158 1108.62 841.721 981.056 840.649 968.197C839.576 955.339 833.121 939.562 833.121 939.562L772.321 944.065Z" fill="#509BBC"/>
<path d="M805.288 987.648H684.886C682.642 987.648 680.824 990.509 680.824 994.037C680.824 997.565 682.642 1000.43 684.886 1000.43H805.288C807.532 1000.43 809.35 997.565 809.35 994.037C809.35 990.509 807.532 987.648 805.288 987.648Z" fill="#438DB5"/>
<path d="M805.288 1021.71H684.886C682.642 1021.71 680.824 1024.57 680.824 1028.1C680.824 1031.63 682.642 1034.49 684.886 1034.49H805.288C807.532 1034.49 809.35 1031.63 809.35 1028.1C809.35 1024.57 807.532 1021.71 805.288 1021.71Z" fill="#438DB5"/>
<path d="M805.288 1055.77H684.886C682.642 1055.77 680.824 1058.63 680.824 1062.16C680.824 1065.69 682.642 1068.55 684.886 1068.55H805.288C807.532 1068.55 809.35 1065.69 809.35 1062.16C809.35 1058.63 807.532 1055.77 805.288 1055.77Z" fill="#438DB5"/>
<path d="M805.288 1089.84H684.886C682.642 1089.84 680.824 1092.7 680.824 1096.23C680.824 1099.75 682.642 1102.61 684.886 1102.61H805.288C807.532 1102.61 809.35 1099.75 809.35 1096.23C809.35 1092.7 807.532 1089.84 805.288 1089.84Z" fill="#438DB5"/>
<path d="M805.288 1123.9H684.886C682.642 1123.9 680.824 1126.76 680.824 1130.29C680.824 1133.82 682.642 1136.68 684.886 1136.68H805.288C807.532 1136.68 809.35 1133.82 809.35 1130.29C809.35 1126.76 807.532 1123.9 805.288 1123.9Z" fill="#438DB5"/>
<path d="M874.395 1189.02H625.821C619.389 1189.02 614.175 1197.22 614.175 1207.34V1285.67C614.175 1295.79 619.389 1303.99 625.821 1303.99H874.395C880.827 1303.99 886.041 1295.79 886.041 1285.67V1207.34C886.041 1197.22 880.827 1189.02 874.395 1189.02Z" fill="#4884C1"/>
<path d="M883.263 1208.19H637.566C636.342 1208.19 635.131 1208.56 634 1209.3C632.869 1210.04 631.842 1211.11 630.977 1212.47C630.111 1213.83 629.425 1215.45 628.957 1217.23C628.488 1219.01 628.247 1220.91 628.247 1222.83V1269.78C628.247 1273.67 629.229 1277.39 630.976 1280.14C632.724 1282.89 635.094 1284.43 637.566 1284.43H880.598C882.927 1284.43 885.171 1283.06 886.888 1280.59C888.606 1278.11 889.672 1274.72 889.878 1271.07L892.525 1224.13C892.639 1222.1 892.485 1220.07 892.071 1218.14C891.658 1216.22 890.994 1214.45 890.123 1212.95C889.252 1211.45 888.193 1210.26 887.012 1209.44C885.831 1208.62 884.554 1208.19 883.263 1208.19V1208.19Z" fill="white"/>
<path d="M876.228 1223.22H640.676C638.829 1223.22 637.332 1225.57 637.332 1228.47C637.332 1231.38 638.829 1233.73 640.676 1233.73H876.228C878.075 1233.73 879.572 1231.38 879.572 1228.47C879.572 1225.57 878.075 1223.22 876.228 1223.22Z" fill="#EFDFDC"/>
<path d="M876.228 1262.29H640.676C638.829 1262.29 637.332 1264.64 637.332 1267.55C637.332 1270.45 638.829 1272.81 640.676 1272.81H876.228C878.075 1272.81 879.572 1270.45 879.572 1267.55C879.572 1264.64 878.075 1262.29 876.228 1262.29Z" fill="#EFDFDC"/>
<path d="M742.925 1242.18H640.676C638.829 1242.18 637.332 1244.54 637.332 1247.44C637.332 1250.35 638.829 1252.7 640.676 1252.7H742.925C744.772 1252.7 746.269 1250.35 746.269 1247.44C746.269 1244.54 744.772 1242.18 742.925 1242.18Z" fill="#EFDFDC"/>
<path d="M866.915 1242.18H764.665C762.819 1242.18 761.321 1244.54 761.321 1247.44C761.321 1250.35 762.819 1252.7 764.665 1252.7H866.915C868.762 1252.7 870.259 1250.35 870.259 1247.44C870.259 1244.54 868.762 1242.18 866.915 1242.18Z" fill="#EFDFDC"/>
<path d="M857.904 1302.51H609.33C602.898 1302.51 597.684 1310.71 597.684 1320.83V1399.17C597.684 1409.28 602.898 1417.48 609.33 1417.48H857.904C864.336 1417.48 869.55 1409.28 869.55 1399.17V1320.83C869.55 1310.71 864.336 1302.51 857.904 1302.51Z" fill="#FFB65F"/>
<path d="M866.779 1321.67H621.099C619.875 1321.68 618.663 1322.06 617.533 1322.79C616.402 1323.53 615.375 1324.61 614.51 1325.97C613.645 1327.34 612.959 1328.95 612.492 1330.73C612.024 1332.51 611.784 1334.42 611.785 1336.34V1383.29C611.785 1385.21 612.026 1387.12 612.494 1388.89C612.962 1390.67 613.648 1392.28 614.513 1393.65C615.378 1395.01 616.405 1396.08 617.535 1396.82C618.665 1397.56 619.876 1397.94 621.099 1397.94H864.132C866.46 1397.94 868.705 1396.57 870.423 1394.09C872.142 1391.62 873.209 1388.23 873.416 1384.58L876.063 1337.64C876.178 1335.61 876.023 1333.57 875.609 1331.64C875.194 1329.71 874.529 1327.94 873.656 1326.44C872.783 1324.94 871.721 1323.74 870.537 1322.92C869.353 1322.1 868.073 1321.68 866.779 1321.67V1321.67Z" fill="white"/>
<path d="M859.766 1336.7H624.214C622.367 1336.7 620.87 1339.06 620.87 1341.96C620.87 1344.86 622.367 1347.22 624.214 1347.22H859.766C861.613 1347.22 863.11 1344.86 863.11 1341.96C863.11 1339.06 861.613 1336.7 859.766 1336.7Z" fill="#EFDFDC"/>
<path d="M859.766 1375.77H624.214C622.367 1375.77 620.87 1378.13 620.87 1381.03C620.87 1383.94 622.367 1386.29 624.214 1386.29H859.766C861.613 1386.29 863.11 1383.94 863.11 1381.03C863.11 1378.13 861.613 1375.77 859.766 1375.77Z" fill="#EFDFDC"/>
<path d="M726.463 1355.68H624.214C622.367 1355.68 620.87 1358.03 620.87 1360.94C620.87 1363.84 622.367 1366.19 624.214 1366.19H726.463C728.31 1366.19 729.807 1363.84 729.807 1360.94C729.807 1358.03 728.31 1355.68 726.463 1355.68Z" fill="#EFDFDC"/>
<path d="M850.453 1355.68H748.204C746.357 1355.68 744.859 1358.03 744.859 1360.94C744.859 1363.84 746.357 1366.19 748.204 1366.19H850.453C852.3 1366.19 853.797 1363.84 853.797 1360.94C853.797 1358.03 852.3 1355.68 850.453 1355.68Z" fill="#EFDFDC"/>
<path d="M874.395 1417.48H625.821C619.389 1417.48 614.175 1425.68 614.175 1435.8V1514.13C614.175 1524.25 619.389 1532.45 625.821 1532.45H874.395C880.827 1532.45 886.041 1524.25 886.041 1514.13V1435.8C886.041 1425.68 880.827 1417.48 874.395 1417.48Z" fill="#B74F4F"/>
<path d="M883.275 1436.64H637.578C636.354 1436.64 635.143 1437.03 634.013 1437.77C632.883 1438.51 631.857 1439.59 630.994 1440.95C630.13 1442.31 629.445 1443.93 628.979 1445.71C628.513 1447.49 628.274 1449.4 628.276 1451.32V1498.27C628.276 1500.19 628.517 1502.1 628.986 1503.87C629.454 1505.65 630.141 1507.27 631.006 1508.63C631.871 1509.99 632.899 1511.07 634.029 1511.8C635.16 1512.54 636.371 1512.91 637.595 1512.91H880.627C882.955 1512.91 885.199 1511.54 886.916 1509.07C888.634 1506.6 889.701 1503.21 889.907 1499.56L892.555 1452.61C892.671 1450.59 892.518 1448.54 892.105 1446.61C891.691 1444.69 891.027 1442.91 890.154 1441.41C889.281 1439.91 888.218 1438.71 887.034 1437.89C885.85 1437.06 884.569 1436.64 883.275 1436.64V1436.64Z" fill="white"/>
<path d="M876.242 1451.67H640.69C638.843 1451.67 637.346 1454.02 637.346 1456.93C637.346 1459.83 638.843 1462.18 640.69 1462.18H876.242C878.089 1462.18 879.586 1459.83 879.586 1456.93C879.586 1454.02 878.089 1451.67 876.242 1451.67Z" fill="#EFDFDC"/>
<path d="M876.242 1490.74H640.69C638.843 1490.74 637.346 1493.09 637.346 1496C637.346 1498.9 638.843 1501.26 640.69 1501.26H876.242C878.089 1501.26 879.586 1498.9 879.586 1496C879.586 1493.09 878.089 1490.74 876.242 1490.74Z" fill="#EFDFDC"/>
<path d="M742.939 1470.64H640.69C638.843 1470.64 637.346 1473 637.346 1475.9C637.346 1478.81 638.843 1481.16 640.69 1481.16H742.939C744.786 1481.16 746.283 1478.81 746.283 1475.9C746.283 1473 744.786 1470.64 742.939 1470.64Z" fill="#EFDFDC"/>
<path d="M866.929 1470.64H764.68C762.833 1470.64 761.335 1473 761.335 1475.9C761.335 1478.81 762.833 1481.16 764.68 1481.16H866.929C868.776 1481.16 870.273 1478.81 870.273 1475.9C870.273 1473 868.776 1470.64 866.929 1470.64Z" fill="#EFDFDC"/>
<path opacity="0.31" d="M1155.82 1533.8C1245.06 1533.8 1317.4 1510.79 1317.4 1482.41C1317.4 1454.03 1245.06 1431.03 1155.82 1431.03C1066.58 1431.03 994.234 1454.03 994.234 1482.41C994.234 1510.79 1066.58 1533.8 1155.82 1533.8Z" fill="#507199"/>
<path d="M962.034 430.613C962.034 430.613 943.695 387.255 935.735 375.008C927.775 362.762 893.728 351.577 887.896 365.422C882.065 379.267 931.435 428.11 939.715 446.384L962.034 430.613Z" fill="#FFB1AB"/>
<path d="M1074.01 394.058C1074.01 394.058 1060.39 398.943 1054.89 448.907C1049.4 498.872 1044.18 557.362 1031.76 568.649C1019.34 579.936 961.763 426.34 961.763 426.34C961.763 426.34 949.1 424.088 932.855 440.628C932.855 440.628 984.06 641.331 1029.37 646.134C1075.96 651.047 1079.74 578.542 1079.74 578.542L1074.01 394.058Z" fill="#F7E8E8"/>
<path d="M931.428 425.979C931.904 427.483 969.56 544.041 990.195 581.14C1010.83 618.24 1022.45 629.608 1036.3 621.716C1050.16 613.824 1065 489.429 1065 489.429L1085.8 552.021L1077.18 646.4C1077.18 646.4 1015.78 657.428 1015.06 656.305C1014.34 655.183 960.834 611.219 957.727 603.708C954.621 596.196 924.52 525.821 917.593 502.396C910.667 478.972 904.459 447.968 904.459 447.968L931.428 425.979Z" fill="#E8C4C4"/>
<path d="M1075.77 699.114C1074.77 699.863 1069.28 707.006 1069.28 707.006C1069.28 707.006 1059.96 797.547 1056.38 842.627C1052.8 887.707 1075.77 1357.71 1075.77 1357.71H1124.46L1137.59 1167.22C1137.59 1167.22 1188.63 1286.96 1227.82 1347.05L1259.2 1299.71C1259.2 1299.71 1199.71 1180.74 1196.85 1118.18C1193.99 1055.62 1195.06 937.285 1198.28 845.988C1201.5 754.692 1186.57 717.13 1186.57 717.13L1179.29 699.094L1075.77 699.114Z" fill="#A55716"/>
<path opacity="0.65" d="M1079.73 813.325C1079.73 813.325 1102.73 985.774 1097.21 1105.24C1091.7 1224.71 1107.59 1382.47 1107.59 1382.47L1155.48 1364.01C1155.48 1364.01 1161.34 1146.43 1157.59 1119.64C1153.83 1092.85 1125.17 962.104 1119.44 921.528C1113.7 880.952 1079.73 813.325 1079.73 813.325Z" fill="#894410"/>
<path d="M1044.3 847.173C1044.3 847.173 1087.56 811.114 1105.81 870.842C1124.06 930.57 1118.79 1081.07 1137.57 1167.27L1212.47 1394.94C1212.47 1394.94 1260.92 1367.89 1264.84 1367.89C1268.76 1367.89 1311.56 1294.27 1319.29 1274C1327.02 1253.74 1336.83 1288.29 1306.61 1167.3C1276.39 1046.3 1208.67 686.093 1208.67 686.093C1208.67 686.093 1045.1 603.593 1044.28 609.213C1043.45 614.833 1044.3 847.173 1044.3 847.173Z" fill="#BF6C21"/>
<path d="M1177.8 721.989C1177.8 721.989 1184.12 797.603 1177.8 928.346C1171.49 1059.09 1149.72 1100.79 1187.84 1177.44C1225.96 1254.08 1257.06 1313.03 1257.06 1313.03C1257.06 1313.03 1274.4 1299.16 1274.4 1285.63C1274.4 1272.11 1193.72 690.529 1193.72 690.529L1177.8 721.989Z" fill="#AA5917"/>
<path d="M1055.98 724.187C1055.98 724.187 1069.98 746.264 1111.91 753.027C1153.84 759.79 1197.57 737.25 1197.57 737.25L1185.61 658.329L1061.4 686.013L1055.98 724.187Z" fill="#9B4E10"/>
<path d="M1141.33 373.524C1141.61 373.82 1141.88 374.15 1142.13 374.511C1142.13 374.511 1147.55 374.259 1176.06 386.533C1204.57 398.806 1213.56 411.706 1212.37 469.182C1211.17 526.658 1189.91 641.991 1186.56 717.149C1186.56 717.149 1177.01 733.675 1125.89 729.919C1074.76 726.164 1069.27 707.019 1069.27 707.019C1069.27 707.019 1066.16 582.283 1063.29 503.39C1060.43 424.496 1068.05 396.813 1076.36 391.05C1084.66 385.288 1102.36 377.341 1102.36 377.341L1120.47 375.15L1141.33 373.524Z" fill="white"/>
<g opacity="0.65">
<path opacity="0.65" d="M1225.15 662.857C1225.15 664.551 1187.13 727.103 1056 677.512L1063.98 629.649L1205.69 613.226L1225.15 662.857Z" fill="#FFE9E9"/>
</g>
<path d="M1107.61 376.696L1104.08 407.768C1104.08 407.768 1084.72 509.14 1102.34 746.692" stroke="#F4A2A2" stroke-width="6" stroke-miterlimit="10"/>
<path d="M1085.12 229.99C1085.12 229.99 1070.94 206.443 1077.79 156.104C1077.79 156.104 1130.82 137.816 1182.91 184.903C1182.91 184.903 1182.05 315.53 1138.79 321.531L1108.21 300.12L1085.12 229.99Z" fill="#7A3C4E"/>
<path d="M1161.04 150.596C1161.04 150.596 1164.58 202.819 1154.55 220.475C1144.52 238.13 1140.94 203.561 1140.94 203.561C1140.94 203.561 1104.79 222.931 1078.99 212.406L1082.18 233.401L1086.63 244.382L1112.83 255.526C1112.83 255.526 1124.62 285.917 1126.05 290.51C1127.48 295.102 1128.28 314.635 1130.35 321.52C1132.42 328.405 1137.93 342.162 1137.93 342.162L1163.77 326.704L1190.98 296.647C1190.98 296.647 1209.98 271.072 1204.25 237.272C1198.52 203.473 1198.84 189.716 1196.47 181.443C1194.09 173.17 1161.04 150.596 1161.04 150.596Z" fill="#632C3E"/>
<path d="M1105.98 353.236L1092.85 360.502C1092.85 360.502 1093.08 410.971 1092.85 410.474C1092.61 409.978 1102.36 377.348 1102.36 377.348C1102.36 377.348 1105.19 376.035 1105.19 375.409C1105.19 374.783 1105.98 353.236 1105.98 353.236Z" fill="#C46060"/>
<path d="M1102.36 412.264C1102.72 411.889 1098.73 376.327 1092.84 360.482L1105.98 353.236C1105.98 353.236 1107.37 386.927 1107.28 388.145C1107.18 389.363 1105.31 398.276 1105.49 399.412" fill="#F9DBD9"/>
<path d="M1130.78 306.885L1132.73 309.388C1132.73 309.388 1133.77 318.342 1138.79 321.533C1138.79 321.533 1136.17 359.666 1139.75 374.321L1104.71 402.712L1102.36 377.328C1102.36 377.328 1105.1 370.375 1105.22 349.148C1105.34 327.921 1104.62 324.914 1104.62 324.914L1130.78 306.885Z" fill="#F7ADA4"/>
<path d="M1095.91 347.833C1096.63 347.833 1114.23 329.613 1124.78 346.139C1135.33 362.665 1133 388.763 1133.66 390.287C1134.32 391.811 1154.55 374.884 1154.55 374.884L1153 317.401L1146.11 302.372L1131.58 299.746C1131.58 299.746 1101.73 313.646 1102.35 314.394C1102.97 315.142 1095.91 347.833 1095.91 347.833Z" fill="#F48E89"/>
<path d="M1084.96 220.471C1084.96 220.471 1073.97 323.66 1088.31 330.422C1102.64 337.185 1122.55 325.415 1132.74 309.386C1132.74 309.386 1130.67 296.112 1135.53 292.731C1140.38 289.349 1146.04 289.601 1146.12 268.061C1146.2 246.521 1132.27 247.896 1128.28 263.047C1128.28 263.047 1128.04 237.003 1130.44 223.587C1130.43 223.6 1094.44 231.989 1084.96 220.471Z" fill="#FFB1AB"/>
<path d="M1076.56 227.043C1076.56 227.043 1080.74 234.887 1101.04 237.071C1121.35 239.255 1124.77 233.622 1124.77 233.622C1124.77 233.622 1122.9 268.558 1128.04 273.633C1128.04 273.633 1133.89 260.291 1139.15 261.611C1144.41 262.931 1145 284.151 1145.36 283.587C1145.72 283.022 1152.05 261.611 1152.05 261.611L1148.46 242.072L1129.95 249.399L1134.97 214.082C1134.97 214.082 1082.65 211.639 1082.29 211.83C1081.93 212.02 1076.56 227.043 1076.56 227.043Z" fill="#F48E89"/>
<path d="M1104.07 407.764C1103.15 408.628 1104.71 402.709 1104.71 402.709C1104.71 402.709 1116.62 348.961 1121.06 360.419C1121.27 360.983 1124.14 370.876 1124.14 370.876L1126.85 387.884L1122.71 413.683C1122.71 413.683 1114.75 397.811 1104.07 407.764Z" fill="#F9DBD9"/>
<path d="M1121.06 360.421C1121.06 360.421 1122.19 417.904 1122.55 417.53C1122.91 417.156 1142.14 374.511 1142.14 374.511L1139.36 351.468L1121.06 360.421Z" fill="#D67272"/>
<path d="M922.821 508.909L1221.61 550.267C1227.93 551.141 1233.76 555.926 1237.84 563.569C1241.91 571.212 1243.89 581.087 1243.33 591.022V591.022C1242.78 600.956 1239.73 610.137 1234.87 616.543C1230.01 622.95 1223.73 626.057 1217.42 625.183L918.628 583.826L922.821 508.909Z" fill="#354D60"/>
<path d="M940.277 548.452C940.277 548.452 1025.94 571.584 1109.06 573.816C1192.18 576.047 1202.23 534.355 1202.23 534.355L1250.96 551.99C1250.96 551.99 1284.01 581.994 1281.82 594.24C1279.63 606.486 1255.98 651.042 1255.98 651.042C1255.98 651.042 1167.59 679.753 1126.86 673.555C1086.13 667.357 999.823 640.306 985.997 634.095C972.17 627.883 954.415 625.638 951.642 610.963C948.869 596.288 940.277 548.452 940.277 548.452Z" fill="#253C4C"/>
<path d="M1194.81 407.942C1209.54 405.003 1217.74 438.374 1219.77 463.547C1221.81 488.72 1216.19 645.949 1179.28 662.856C1142.37 679.763 1041.68 647.079 1041.68 647.079C1041.68 647.079 1033.79 626.791 1043.84 593.542C1043.84 593.542 1092.45 605.938 1131.79 600.679C1171.13 595.42 1166.03 561.858 1168.27 514.016C1170.5 466.173 1165.31 413.834 1194.81 407.942Z" fill="#F7E8E8"/>
<path d="M1212.47 395.662C1212.47 395.662 1217.14 509.573 1196.84 586.779C1176.53 663.986 1157.8 658.216 1096.5 648.766C1035.2 639.316 1029.61 631.247 1029.61 631.247V656.672L1184.29 693.302L1239.84 626.24L1242.34 489.442L1212.47 395.662Z" fill="#E8C4C4"/>
<path d="M815.21 306.885C734.137 306.885 668.414 410.244 668.414 537.741C668.414 665.239 734.137 768.591 815.21 768.591C896.283 768.591 962.028 665.239 962.028 537.741C962.028 410.244 896.27 306.885 815.21 306.885ZM815.21 704.291C756.72 704.291 709.305 629.725 709.305 537.741C709.305 445.758 756.72 371.185 815.21 371.185C873.7 371.185 921.12 445.751 921.12 537.741C921.12 629.732 873.7 704.298 815.21 704.298V704.291Z" fill="#0B457F"/>
<path d="M654.44 543.643C654.44 543.643 676.037 715.003 805.619 739.625C935.201 764.247 982.175 497.196 938.982 386.604L1018.81 523.103L938.441 735.373L861.773 799.652L751.628 807.544C751.628 807.544 654.44 728.583 653.899 726.066C653.359 723.548 654.44 543.643 654.44 543.643Z" fill="#053760"/>
<path d="M890.104 655.511C931.462 590.469 931.462 485.015 890.104 419.974C848.745 354.932 781.69 354.932 740.331 419.974C698.973 485.016 698.973 590.469 740.331 655.511C781.69 720.552 848.745 720.553 890.104 655.511Z" fill="#C3D9E2"/>
<path opacity="0.32" d="M736.846 466.215C762.621 391.376 810.213 395.316 821.552 412.297C832.891 429.279 764.91 456.445 757.46 501.028C750.01 545.612 749.867 583.814 736.846 582.963C723.824 582.113 720.168 514.615 736.846 466.215Z" fill="white"/>
<path opacity="0.32" d="M849.629 437.347C856.788 437.347 862.591 428.221 862.591 416.963C862.591 405.706 856.788 396.58 849.629 396.58C842.471 396.58 836.668 405.706 836.668 416.963C836.668 428.221 842.471 437.347 849.629 437.347Z" fill="white"/>
<path d="M1083.63 1378C1083.63 1378 1086.01 1399.66 1074.15 1409.69C1062.29 1419.71 1016.96 1430.66 1016.96 1458.59C1016.96 1486.52 1035.69 1488.33 1064.44 1485.08C1093.18 1481.82 1116.44 1489.46 1120.97 1482.69C1125.51 1475.93 1119.22 1380.64 1119.22 1380.64L1083.63 1378Z" fill="#43555F"/>
<path d="M1032.06 1433.39L1035.93 1441.51L1084.87 1412.64L1069.91 1399.41L1032.06 1433.39Z" fill="white"/>
<path opacity="0.66" d="M1026.88 1426.65C1027.24 1427.03 1048.14 1445.06 1038.23 1499.54C1028.31 1554.01 1038.34 1498.22 1038.34 1498.22C1038.34 1498.22 1001.31 1491.84 1001.31 1490.9C1001.31 1489.96 1001.67 1441.86 1001.91 1440.37C1002.15 1438.87 1024.37 1421.39 1024.37 1421.39" fill="#324751"/>
<path d="M1074.61 1400.91C1074.61 1400.91 1075.41 1409.94 1096.43 1418.6C1117.45 1427.27 1127.81 1412.72 1127.81 1412.72L1123.84 1372.4L1082.91 1374.91L1074.61 1400.91Z" fill="#FFB1AB"/>
<path d="M1009.79 1471.17C1010.39 1471.36 1023.77 1481.32 1045.39 1478.5C1067 1475.69 1084.93 1475.1 1102.73 1477C1120.52 1478.9 1126.09 1473.43 1126.09 1473.43C1126.09 1473.43 1125.9 1484.7 1126.09 1485.26C1126.27 1485.83 1113.26 1498.23 1112.78 1498.41C1112.3 1498.59 1021.52 1491.08 1020.92 1490.71C1020.32 1490.33 1009.79 1471.17 1009.79 1471.17Z" fill="#324751"/>
<path opacity="0.66" d="M1124.23 1428.34C1123.88 1428.72 1099.63 1449.19 1098.91 1493.91L1128.76 1501.04C1128.76 1501.04 1131.99 1452.01 1131.75 1448.66C1131.51 1445.3 1124.23 1428.34 1124.23 1428.34Z" fill="#324751"/>
<path d="M1231.29 1348.03C1231.29 1348.03 1241.74 1362.64 1236.42 1382.11C1231.11 1401.57 1199.98 1454.53 1211.04 1476.37C1222.1 1498.22 1237.47 1481.31 1258.68 1450.6C1279.88 1419.9 1301.07 1403.1 1301.97 1393.37C1302.86 1383.63 1260.18 1315.25 1260.18 1315.25L1231.29 1348.03Z" fill="#43555F"/>
<path d="M1212.88 1441.88L1219.13 1444.45L1245.98 1373.93L1229.04 1378.23L1212.88 1441.88Z" fill="white"/>
<path opacity="0.66" d="M1206.16 1441.68C1206.59 1441.62 1230.09 1435.26 1243.9 1487.59C1257.72 1539.93 1243.47 1486.44 1243.47 1486.44C1243.47 1486.44 1211.97 1517.74 1211.6 1516.98C1211.23 1516.22 1192.47 1478.27 1192.05 1476.84C1191.64 1475.41 1202.11 1440 1202.11 1440" fill="#324751"/>
<path d="M1233.33 1374.79C1233.33 1374.79 1237.52 1381.06 1257.39 1367.23C1277.26 1353.4 1279.61 1331.9 1279.61 1331.9L1260.52 1304.25L1229.49 1346.3L1233.33 1374.79Z" fill="#FFB1AB"/>
<path d="M1210.43 1493.24C1210.97 1492.81 1225.39 1487.49 1241.18 1464.12C1256.98 1440.74 1270.78 1422.74 1285.45 1406.78C1300.12 1390.82 1302.3 1381.13 1302.3 1381.13C1302.3 1381.13 1306.63 1390.13 1306.99 1390.39C1307.35 1390.64 1302.08 1413.1 1301.79 1413.71C1301.51 1414.32 1227.49 1497.36 1226.88 1497.65C1226.26 1497.94 1210.43 1493.24 1210.43 1493.24Z" fill="#324751"/>
<path opacity="0.66" d="M1283 1347.66C1282.87 1348.31 1272.01 1388.07 1289.15 1423.76L1315.34 1400.09C1315.34 1400.09 1298.45 1358.59 1296.92 1356.16C1295.39 1353.74 1283 1347.66 1283 1347.66Z" fill="#324751"/>
<path d="M1123.52 1347.38H1077.26C1074.9 1347.38 1072.98 1350.4 1072.98 1354.12V1380.47C1072.98 1384.19 1074.9 1387.2 1077.26 1387.2H1123.52C1125.89 1387.2 1127.81 1384.19 1127.81 1380.47V1354.12C1127.81 1350.4 1125.89 1347.38 1123.52 1347.38Z" fill="#9B4805"/>
<path d="M1252.69 1288.8L1219.18 1333.29C1217.42 1335.63 1217.19 1339.78 1218.68 1342.55L1229.62 1362.93C1231.11 1365.71 1233.75 1366.06 1235.51 1363.72L1269.02 1319.23C1270.79 1316.89 1271.01 1312.74 1269.52 1309.97L1258.58 1289.58C1257.09 1286.81 1254.45 1286.46 1252.69 1288.8Z" fill="#9B4805"/>
<path d="M1044.31 599.926C1043.95 599.926 1033.79 588.468 1022.57 569.5C1011.34 550.532 991.85 551.09 995.93 583.583C1000.01 616.077 1029.13 639.372 1042.03 641.822L1044.31 599.926Z" fill="#FFB1AB"/>
<path d="M1117.24 264.248C1117.43 260.168 1116.15 256.691 1114.38 256.484C1112.61 256.277 1111.02 259.417 1110.83 263.497C1110.63 267.578 1111.91 271.054 1113.68 271.261C1115.45 271.469 1117.04 268.329 1117.24 264.248Z" fill="#591929"/>
<path d="M1094.05 259.737C1094.24 255.656 1092.97 252.18 1091.2 251.972C1089.43 251.765 1087.83 254.905 1087.64 258.986C1087.45 263.066 1088.73 266.542 1090.5 266.75C1092.27 266.957 1093.86 263.817 1094.05 259.737Z" fill="#591929"/>
<path d="M1107.49 248.549C1107.49 248.549 1119.1 238.609 1125.75 253.312Z" fill="#591929"/>
<path d="M1096.87 246.59C1096.87 246.59 1091.51 233.147 1083.83 244.039Z" fill="#591929"/>
<path d="M1091.15 303.993C1091.15 303.993 1097.79 321.499 1110.7 304.306Z" fill="#591929"/>
<path d="M1098.54 277.492C1099.31 271.765 1098.57 266.669 1096.89 266.11C1095.21 265.551 1093.22 269.741 1092.45 275.468C1091.68 281.196 1092.42 286.292 1094.1 286.851C1095.78 287.41 1097.77 283.22 1098.54 277.492Z" fill="#E26A61"/>
<path opacity="0.64" d="M1117.64 283.766C1119.14 283.766 1120.36 281.85 1120.36 279.486C1120.36 277.123 1119.14 275.207 1117.64 275.207C1116.13 275.207 1114.91 277.123 1114.91 279.486C1114.91 281.85 1116.13 283.766 1117.64 283.766Z" fill="#E26A61"/>
<path opacity="0.64" d="M1084.89 277.446C1086.39 277.446 1087.61 275.53 1087.61 273.166C1087.61 270.803 1086.39 268.887 1084.89 268.887C1083.39 268.887 1082.17 270.803 1082.17 273.166C1082.17 275.53 1083.39 277.446 1084.89 277.446Z" fill="#E26A61"/>
<path opacity="0.31" d="M357.875 1517.24C481.217 1517.24 581.206 1494.24 581.206 1465.86C581.206 1437.48 481.217 1414.47 357.875 1414.47C234.533 1414.47 134.544 1437.48 134.544 1465.86C134.544 1494.24 234.533 1517.24 357.875 1517.24Z" fill="#507199"/>
<path d="M416.444 1409.88C426.728 1406.04 439.866 1403.72 454.182 1403.72C468.497 1403.72 481.636 1406.04 491.919 1409.88H513.84V1431.03C513.84 1446.1 487.13 1458.32 454.186 1458.32C421.242 1458.32 394.532 1446.08 394.532 1431.03V1409.88H416.444Z" fill="#348193"/>
<path d="M454.186 1437.19C487.132 1437.19 513.84 1424.96 513.84 1409.88C513.84 1394.8 487.132 1382.58 454.186 1382.58C421.24 1382.58 394.532 1394.8 394.532 1409.88C394.532 1424.96 421.24 1437.19 454.186 1437.19Z" fill="#5199AF"/>
<path d="M465.618 1139.48H446.604V1412.05H465.618V1139.48Z" fill="#8799A3"/>
<path d="M450.895 646.133C450.895 646.133 527.157 622.742 586.651 655.494C605.042 665.271 605.042 744.804 605.851 850.279C606.66 955.753 601.797 1048.04 585.297 1105.45C568.797 1162.87 516.61 1194.34 422.225 1178.6C327.841 1162.87 316.139 1149.25 316.307 1104.17C316.476 1059.1 393.11 1021.67 403.748 984.24C414.386 946.813 405.189 689.94 410.463 673.353C415.736 656.766 439.063 649.065 450.895 646.133Z" fill="#EDCE8D"/>
<path d="M569.019 623.614C569.019 623.614 570.451 630.737 574.037 789.62C577.623 948.502 570.243 1080.13 522.33 1107.89C474.418 1135.65 367.63 1146.91 299.532 1074.78C299.532 1074.78 424.238 949.672 422.447 927.139C420.656 904.606 460.751 754.622 471.822 697.18C482.893 639.738 520.782 598.747 522.322 592.168C523.862 585.589 569.019 623.614 569.019 623.614Z" fill="#E2BB76"/>
<path d="M395.971 607.395C395.971 607.395 386.098 608.442 378.614 629.234C371.13 650.025 375.426 710.631 359.181 756.459C342.936 802.288 344.688 833.04 267.898 829.475C267.898 829.475 259.415 870.425 268.971 882.073C268.971 882.073 324.636 895.598 354.258 872.303C383.879 849.007 399.886 794.158 399.886 794.158L395.971 607.395Z" fill="#F7E8E8"/>
<path d="M391.998 600.679C391.998 600.679 381.486 631.86 383.878 721.278C386.271 810.697 377.419 833.985 332.154 849.769C286.889 865.553 251.527 850.144 251.527 850.144C251.527 850.144 243.883 880.868 243.883 885.984C243.883 891.101 286.405 904.619 303.584 904.245C320.763 903.871 374.776 896.353 382.658 891.468C390.541 886.583 401.841 867.343 401.841 867.343C401.841 867.343 424.704 779.421 420.876 740.022C417.047 700.623 400.807 596.699 400.807 596.699L391.998 600.679Z" fill="#E5CFCF"/>
<path d="M258.336 1327.08C258.695 1327.45 260.127 1355.65 260.127 1355.65C260.127 1355.65 245.673 1371.43 229.666 1386.27C213.659 1401.11 198.85 1399.04 199.21 1422.71C199.569 1446.38 202.195 1445.25 214.736 1445.63C227.278 1446 310.176 1439.25 310.176 1439.25C310.176 1439.25 313.282 1370.12 305.279 1361.85L300.127 1324.1L258.336 1327.08Z" fill="#964711"/>
<path opacity="0.71" d="M314.178 1372.92C314.056 1373.3 287.896 1393.59 287.182 1445.63L322.54 1443.75L314.178 1372.92Z" fill="#773507"/>
<path opacity="0.71" d="M213.308 1390.95C213.308 1390.95 219.364 1384.44 223.18 1426.76L227.004 1469.09L196.107 1459.83L193.875 1434.03C193.875 1434.03 201.999 1398.46 204.387 1395.45C206.775 1392.44 213.308 1390.95 213.308 1390.95Z" fill="#773507"/>
<path d="M252.48 1352.62L260.124 1355.63C260.124 1355.63 263.468 1366.4 279.713 1370.66C295.958 1374.92 305.276 1361.81 305.276 1361.81L312.683 1357.87L305.674 1315.54L248.5 1309.81L252.48 1352.62Z" fill="#F7ADA4"/>
<path d="M195.953 1435.28C195.953 1435.28 240.387 1433.52 262.208 1432.27C284.029 1431.02 313.011 1426.01 313.011 1426.01L310.778 1448.05L198.501 1450.31L195.953 1435.28Z" fill="#5E2904"/>
<path d="M394.695 870.335L392.965 872.308C392.965 872.308 397.265 903.488 373.376 921.525C349.487 939.561 257.512 968.863 242.219 1004.18C226.926 1039.5 232.632 1100.73 236.958 1152.2C241.284 1203.68 248.907 1338.93 248.907 1338.93C248.907 1338.93 259.658 1346.81 278.529 1345.31C297.399 1343.82 309.348 1327.63 309.348 1327.63C309.348 1327.63 304.927 1163.26 303.85 1122.68C302.773 1082.11 325.433 1073.53 339.926 1065.26C354.419 1057 421.47 1021.93 421.47 1021.93L427.202 913.755V873.145L394.695 870.335Z" fill="#003B75"/>
<path d="M437.975 987.648C437.975 987.648 293.087 1000.42 280.186 1061.28C267.285 1122.15 288.787 1369 288.787 1369L321.034 1357.73C321.034 1357.73 326.693 1179.64 324.927 1153.72C323.162 1127.8 323.167 1087.22 332.131 1087.22C341.094 1087.22 434.856 1043.27 434.856 1043.27L437.975 987.648Z" fill="#02335B"/>
<path d="M410.28 1351.58C410.635 1351.95 412.071 1380.15 412.071 1380.15C412.071 1380.15 397.617 1395.93 381.611 1410.77C365.604 1425.6 350.791 1423.54 351.15 1447.21C351.509 1470.88 354.139 1469.75 366.681 1470.13C379.223 1470.5 462.121 1463.74 462.121 1463.74C462.121 1463.74 465.223 1394.61 457.224 1386.35L452.071 1348.59L410.28 1351.58Z" fill="#964711"/>
<path opacity="0.71" d="M466.103 1397.42C465.982 1397.8 439.822 1418.08 439.108 1470.12L474.462 1468.24L466.103 1397.42Z" fill="#773507"/>
<path opacity="0.71" d="M365.229 1415.44C365.229 1415.44 371.286 1408.92 375.106 1451.26L378.926 1493.59L348.028 1484.31L345.8 1458.52C345.8 1458.52 353.925 1422.95 356.313 1419.95C358.701 1416.94 365.229 1415.44 365.229 1415.44Z" fill="#773507"/>
<path d="M404.41 1377.12L412.054 1380.13C412.054 1380.13 415.398 1390.9 431.643 1395.16C447.888 1399.42 457.207 1386.31 457.207 1386.31L464.609 1382.37L457.587 1340.05L400.425 1334.3L404.41 1377.12Z" fill="#F7ADA4"/>
<path d="M347.878 1459.78C347.878 1459.78 392.313 1458.02 414.13 1456.77C435.947 1455.52 464.936 1450.51 464.936 1450.51L462.704 1472.55L350.427 1474.81L347.878 1459.78Z" fill="#5E2904"/>
<path d="M423.862 877.194L415.422 995.412C415.422 995.412 400.609 1033.67 391.29 1070.3C381.971 1106.94 392.008 1290.65 396.308 1353.77C396.308 1353.77 407.894 1362.97 429.395 1363.91C450.896 1364.85 464.035 1345.51 464.035 1345.51C464.035 1345.51 461.05 1152.46 464.035 1125.15C467.02 1097.85 486.293 1090.09 503.334 1058.03C520.375 1025.97 522.767 1013.94 522.287 977.628C521.807 941.31 512.415 886.209 512.415 886.209L510.342 875.323L423.862 877.194Z" fill="#00418E"/>
<path d="M494.493 893.473C494.493 893.473 515.259 930.539 495.211 1001.55C475.163 1072.56 445.581 1055.65 439.58 1146.94C433.58 1238.24 444.681 1433.31 444.681 1433.31L483.742 1382.47C483.742 1382.47 488.761 1256.27 488.761 1210.06C488.761 1163.85 506.675 1107.92 506.675 1107.92C506.675 1107.92 555.89 1072.7 562.526 1028.41C569.163 984.11 554.307 915.864 551.624 895.024C548.942 874.185 573.826 859.476 544.992 861.517C516.158 863.558 494.493 893.494 494.493 893.494" fill="#013970"/>
<path d="M472.908 584.901L474.063 585.772C488.266 587.832 502.384 591.158 516.347 595.733C538.208 603.06 539.159 640.636 538.446 682.709C537.732 724.781 512.644 886.712 512.644 886.712C512.644 886.712 440.258 942.31 393.194 872.812C393.194 872.812 390.088 728.918 390.33 668.428C390.572 607.938 390.33 606.19 404.502 598.923C418.675 591.657 438.247 591.269 438.247 591.269L472.908 584.901Z" fill="#4CBDE5"/>
<path d="M444.682 600.202C444.682 600.202 416.436 678.524 439.581 930.567" stroke="#1477A3" stroke-width="6" stroke-miterlimit="10"/>
<path d="M506.677 658.535C506.677 660.787 508.113 699.86 489 756.968C469.887 814.077 387.452 822.336 387.452 822.336C387.452 822.336 391.938 897.515 388.39 902.373C384.843 907.231 500.469 943.316 500.469 943.316L538.604 910.34L533.928 789.339L506.677 658.535Z" fill="#259FD6"/>
<path d="M406.323 471.44C406.323 471.44 385.778 458.411 388.647 402.309C388.647 402.309 402.819 404.813 426.073 398.805C449.326 392.798 470.667 385.777 491.372 413.093C512.077 440.409 504.113 488.734 495.196 515.785C486.28 542.836 463.819 556.361 463.819 556.361L406.323 471.44Z" fill="#F65E51"/>
<path d="M480.15 389.157C480.15 389.157 490.42 415.834 473.816 432.366C457.212 448.899 414.69 461.669 386.739 426.726L393.427 474.82L430.935 501.871L448.854 569.498H487.556L514.811 531.922C514.811 531.922 526.518 474.446 526.518 467.683C526.518 460.921 518.874 407.942 518.393 404.186C517.913 400.431 480.15 389.157 480.15 389.157Z" fill="#EA4A42"/>
<path d="M440.38 569.5L428.435 576.263V614.954L437.992 590.768L441.336 589.223L440.38 569.5Z" fill="#F7E8E8"/>
<path d="M439.567 551.464C439.567 551.464 440.61 576.684 437.979 590.767L444.668 609.137L470.711 586.005L467.125 524.773L450.642 530.216L439.567 551.464Z" fill="#F7ADA4"/>
<path d="M434.867 562.026C435.464 561.605 455.412 558.625 459.094 580.763C462.776 602.902 474.383 614.012 473.803 613.828C473.223 613.645 480.725 599.364 480.725 599.364L483.113 552.209L468.897 502.618C468.897 502.618 433.422 532.302 433.422 532.86C433.422 533.418 434.867 562.026 434.867 562.026Z" fill="#ED8883"/>
<path d="M404.419 461.67C404.419 461.67 400.356 521.779 406.807 545.074C413.257 568.369 431.172 564.804 445.388 551.463C459.603 538.121 467.127 524.786 467.127 524.786C467.127 524.786 466.292 512.764 471.963 507.226C477.635 501.688 476.982 485.244 471.963 481.768C466.945 478.291 460.079 481.958 459.781 490.877C459.781 490.877 458.526 463.922 452.915 461.67C447.304 459.418 433.084 472.379 404.419 461.67Z" fill="#FFB1AB"/>
<path d="M397.263 462.772C397.341 463.146 404.51 477.923 427.979 475.916C451.449 473.909 454.101 475.168 458.639 500.089C458.639 500.089 472.573 480.427 476.714 500.715L479.184 485.686L468.195 467.405L460.309 482.679L457.28 452.628L427.499 450.498L402.333 453.219L397.263 462.772Z" fill="#ED8883"/>
<path d="M456.411 576.022L453.037 572.314L444.674 609.128C444.674 609.128 452.28 601.556 454.352 621.089L457.458 607.393C457.892 602.938 458.051 598.426 457.934 593.922C457.774 585.915 456.411 576.022 456.411 576.022Z" fill="#259FD6"/>
<path d="M453.031 572.31C453.031 572.31 454.329 624.697 454.329 623.588C454.329 622.479 473.797 585.271 473.797 585.271L471.409 564.228L453.031 572.31Z" fill="#F7E8E8"/>
<path d="M399.878 835.114C399.878 835.114 359.982 832.862 350.27 838.121C340.557 843.38 333.229 874.064 350.27 875.125C367.311 876.187 402.184 872.683 402.184 872.683L399.878 835.114Z" fill="#F7ADA4"/>
<path d="M502.84 636.261C509.33 612.047 523.1 603.318 530.567 609.142C538.034 614.966 545.843 634.505 548.231 669.822C550.619 705.139 547.102 818.411 538.35 849.435C529.598 880.459 510.714 889.018 400.466 882.187C400.466 882.187 388.171 861.96 399.475 823.643C399.475 823.643 462.205 827.521 484.446 816.751C506.686 805.981 504.753 783.502 504.394 748.94C504.035 714.379 494.24 668.428 502.84 636.261Z" fill="#F7E8E8"/>
<path d="M537.34 617.114C537.34 617.114 538.412 678.217 534.83 758.804C531.248 839.392 540.922 864.177 491.469 870.98C442.016 877.784 390.63 871.545 391.24 873.239C391.85 874.933 388.372 895.738 388.372 895.738L421.251 910.434L537.508 920.102L569.955 905.923C569.955 905.923 578.2 836.609 578.914 798.85C579.628 761.09 581.782 725.589 578.914 704.737C576.046 683.884 537.34 617.114 537.34 617.114Z" fill="#EAD8D8"/>
<path d="M401.67 873.152H291.637C288.07 873.152 285.178 877.7 285.178 883.31V883.317C285.178 888.927 288.07 893.475 291.637 893.475H401.67C405.237 893.475 408.129 888.927 408.129 883.317V883.31C408.129 877.7 405.237 873.152 401.67 873.152Z" fill="#438BAA"/>
<path d="M152.214 842.158L335.653 842.58L307.533 637.883L124.094 637.461L152.214 842.158Z" fill="#65A7CA"/>
<path d="M255.439 834.068L262.728 873.154L213.994 873.045L206.224 833.952L255.439 834.068Z" fill="#65A7CA"/>
<path d="M191.809 857.008L264.753 857.168L264.775 832.369L191.831 832.209L191.809 857.008Z" fill="#438BAA"/>
<path d="M188.024 880.458L188.018 887.282C188.014 891.934 190.409 895.71 193.367 895.717L286.41 895.921C289.368 895.928 291.769 892.162 291.773 887.51L291.779 880.686C291.783 876.034 289.389 872.258 286.431 872.252L193.388 872.047C190.43 872.041 188.028 875.807 188.024 880.458Z" fill="#7FC6E5"/>
<path d="M177.736 919.663L295.91 919.923L295.938 887.735L177.764 887.476L177.736 919.663Z" fill="#48A2C1"/>
<path d="M141.512 842.131L324.951 842.553L296.831 637.862L113.392 637.44L141.512 842.131Z" fill="#7FC6E5"/>
<path opacity="0.59" d="M292.037 649.183L121.036 648.217L147.621 832.068L317.237 832.456L292.037 649.183Z" stroke="white" stroke-width="4" stroke-linecap="round" stroke-linejoin="round"/>
<path opacity="0.26" d="M202.929 625.696C202.929 625.696 258.853 862.139 257.439 861.778C256.024 861.418 232.598 857.213 232.598 857.213L183.335 618.138L202.929 625.696Z" fill="#CFF0FF"/>
<path opacity="0.26" d="M156.989 620.976C156.989 620.976 206.961 862.025 205.529 861.644C204.097 861.263 180.688 857.078 180.688 857.078L131.456 618.023L156.989 620.976Z" fill="#CFF0FF"/>
<path d="M222.632 771.158C230.275 768.573 234.919 755.131 233.004 741.135C231.09 727.139 223.342 717.889 215.699 720.475C208.056 723.06 203.412 736.502 205.327 750.498C207.241 764.494 214.989 773.744 222.632 771.158Z" fill="white"/>
<path d="M167.323 913.636H154.063V1445.62H167.323V913.636Z" fill="#8799A3"/>
<path d="M551.613 913.636H538.353V1445.62H551.613V913.636Z" fill="#8799A3"/>
<path d="M566.921 893.475H142.531C134.644 893.475 128.25 903.529 128.25 915.933V955.42C128.25 967.824 134.644 977.879 142.531 977.879H566.921C574.808 977.879 581.202 967.824 581.202 955.42V915.933C581.202 903.529 574.808 893.475 566.921 893.475Z" fill="#F48989"/>
<path d="M566.936 935.679H142.545C134.658 935.679 128.265 945.734 128.265 958.137V997.625C128.265 1010.03 134.658 1020.08 142.545 1020.08H566.936C574.823 1020.08 581.217 1010.03 581.217 997.625V958.137C581.217 945.734 574.823 935.679 566.936 935.679Z" fill="#E25A5A"/>
<path d="M436.683 499.401C438.456 499.249 439.778 495.814 439.637 491.729C439.496 487.643 437.945 484.453 436.172 484.605C434.399 484.756 433.077 488.191 433.218 492.277C433.359 496.363 434.911 499.552 436.683 499.401Z" fill="#591929"/>
<path d="M413.319 499.602C415.092 499.451 416.415 496.015 416.273 491.93C416.132 487.844 414.581 484.654 412.808 484.806C411.036 484.957 409.713 488.392 409.854 492.478C409.995 496.564 411.547 499.753 413.319 499.602Z" fill="#591929"/>
<path d="M428.643 478.047C428.643 478.047 439.337 465.849 447.133 479.061Z" fill="#591929"/>
<path d="M417.938 478.252C417.938 478.252 411.527 466.005 404.804 478.347Z" fill="#591929"/>
<path d="M422.036 508.509C422.332 502.674 421.183 497.769 419.471 497.554C417.758 497.339 416.13 501.896 415.834 507.732C415.538 513.567 416.687 518.472 418.399 518.687C420.112 518.902 421.74 514.345 422.036 508.509Z" fill="#E26A61"/>
<path opacity="0.64" d="M441.22 510.963C442.723 510.963 443.941 509.047 443.941 506.684C443.941 504.32 442.723 502.404 441.22 502.404C439.717 502.404 438.499 504.32 438.499 506.684C438.499 509.047 439.717 510.963 441.22 510.963Z" fill="#E26A61"/>
<path opacity="0.64" d="M408.223 511.295C409.726 511.295 410.944 509.379 410.944 507.016C410.944 504.652 409.726 502.736 408.223 502.736C406.72 502.736 405.501 504.652 405.501 507.016C405.501 509.379 406.72 511.295 408.223 511.295Z" fill="#E26A61"/>
<path d="M417.926 531.741C417.926 531.741 424.778 544.328 436.438 528.639" stroke="#591929" stroke-width="5" stroke-linecap="round" stroke-linejoin="round"/>
</svg>
